SplineFontDB: 3.0
FontName: GeneraleMonoB
FullName: GeneraleMonoB
FamilyName: GeneraleMono
Weight: Regular
Copyright: Generale Mono is released under the SIL Open Font Licence v1.1 - 2017. \nOriginal font created by Ariel Martin Perez
UComments: "[EN]+AAoACgAA-Hey! you found the comment section!+AAoACgAA-Please tell me if ever you use G+AOkA-n+AOkA-rale Mono in any of your projects, if you're making a fork, if you've found errors in it, or what do you think of it.+AAoA-Here's my mail: contact@arielgraphisme.com+AAoA-And my website: www.arielgraphisme.com+AAoACgAA-I hope you enjoy G+AOkA-n+AOkA-rale Mono,+AAoACgAA-Ariel+AAoACgAA[FR]+AAoACgAA-Hey ! Tu as trouv+AOkA la section de commentaires !+AAoACgAA-S'il te plait, dis-moi si jamais tu utilises G+AOkA-n+AOkA-rale Mono dans l'un de tes projets, si tu penses cr+AOkA-er une variation, si tu as trouv+AOkA des erreurs dans le fichier ou ce que tu penses de cette fonte.+AAoACgAA-Voici mon courriel: contact@arielgraphisme.com+AAoA-Et mon site web: www.arielgraphisme.com+AAoACgAA-J'esp+AOgA-re que tu aimes G+AOkA-n+AOkA-rale Mono,+AAoACgAA-Ariel+AAoACgAA[ES]+AAoACgCh-Hey! +AKEA-Encontraste la secci+APMA-n de comentarios!+AAoACgAA-Por favor, dime si utilizas G+AOkA-n+AOkA-rale Mono en alguno de tus proyectos, si quieres crear una variaci+APMA-n, si has encontrado errores en la fuente o qu+AOkA te parece.+AAoACgAA-Aqu+AO0A tienes mi correo: contact@arielgraphisme.com+AAoA-Y mi p+AOEA-gina web: www.arielgraphisme.com+AAoACgAA-Espero que te guste G+AOkA-n+AOkA-rale Mono,+AAoACgAA-Ariel+AAoACgAA-2017-11-14: Created with FontForge (http://fontforge.org)"
Version: 001.500
ItalicAngle: 0
UnderlinePosition: -100
UnderlineWidth: 50
Ascent: 800
Descent: 200
InvalidEm: 0
LayerCount: 2
Layer: 0 0 "Back" 1
Layer: 1 0 "Fore" 0
XUID: [1021 434 -1460188140 3818975]
FSType: 0
OS2Version: 0
OS2_WeightWidthSlopeOnly: 0
OS2_UseTypoMetrics: 1
CreationTime: 1510095805
ModificationTime: 1528395427
PfmFamily: 17
TTFWeight: 400
TTFWidth: 5

StartChar: h
Encoding: 72 104 0
Width: 666
VWidth: 0
Flags: W
HStem: 0 21G<66.2998 199.6 466.3 599.7> 466.7 133.3<199.6 466.3> 780 20G<66.2998 199.6 466.3 599.7>
VStem: 66.2998 133.3<0 466.7 600 800> 466.3 133.4<0 466.7 600 800>
LayerCount: 2
Back
Fore
SplineSet
466.299804688 800 m 1
 599.700195312 800 l 1
 599.700195312 0 l 1
 466.299804688 0 l 1
 466.299804688 466.700195312 l 1
 199.599609375 466.700195312 l 1
 199.599609375 0 l 1
 66.2998046875 0 l 1
 66.2998046875 800 l 1
 199.599609375 800 l 1
 199.599609375 600 l 1
 466.299804688 600 l 1
 466.299804688 800 l 1
EndSplineSet
Validated: 1
EndChar

StartChar: exclam
Encoding: 1 33 2
Width: 666
VWidth: 0
Flags: W
HStem: -0.0996094 200.1<253.863 412.237> 666.7 133.3<199.7 266.3 399.7 466.4>
VStem: 233 200.1<20.7626 179.175> 266.3 133.4<333.3 666.7>
LayerCount: 2
Back
Fore
SplineSet
366.400390625 200 m 2xe0
 399.700195312 200 433.099609375 166.700195312 433.099609375 133.299804688 c 2
 433.099609375 66.599609375 l 2
 433.099609375 33.2001953125 399.700195312 -0.099609375 366.400390625 -0.099609375 c 2
 299.700195312 -0.099609375 l 2
 266.299804688 -0.099609375 233 33.2998046875 233 66.599609375 c 2
 233 133.299804688 l 2
 233 166.700195312 266.400390625 200 299.700195312 200 c 2
 366.400390625 200 l 2xe0
199.700195312 800 m 1
 466.400390625 800 l 1
 466.400390625 666.700195312 l 1
 399.700195312 666.700195312 l 1
 399.700195312 333.299804688 l 1
 399.599609375 333.299804688 l 1
 366.299804688 266.700195312 l 1
 299.599609375 266.700195312 l 1
 266.299804688 333.299804688 l 1
 266.299804688 666.700195312 l 1xd0
 199.700195312 666.700195312 l 1
 199.700195312 800 l 1
EndSplineSet
Validated: 1
EndChar

StartChar: quotedbl
Encoding: 2 34 3
Width: 666
VWidth: 0
Flags: W
HStem: 533.3 266.7<169 235.7 435.6 502.3>
VStem: 102.4 199.899<614.55 779.137> 369 199.9<614.55 779.137>
LayerCount: 2
Back
Fore
SplineSet
302.5 733.299804688 m 1
 302.299804688 733.299804688 l 1
 302.299804688 666.599609375 l 2
 302.299804688 655 298.299804688 643.5 291.599609375 633.299804688 c 2
 235.700195312 533.299804688 l 1
 169 533.299804688 l 1
 113.099609375 633.299804688 l 2
 106.5 643.5 102.400390625 655 102.400390625 666.599609375 c 2
 102.400390625 733.299804688 l 2
 102.400390625 766.700195312 135.799804688 800 169.099609375 800 c 2
 235.799804688 800 l 2
 269.200195312 800 302.5 766.599609375 302.5 733.299804688 c 1
569.099609375 733.299804688 m 1
 568.900390625 733.299804688 l 1
 568.900390625 666.599609375 l 2
 568.900390625 655 564.900390625 643.5 558.200195312 633.299804688 c 2
 502.299804688 533.299804688 l 1
 435.599609375 533.299804688 l 1
 379.700195312 633.299804688 l 2
 373.099609375 643.5 369 655 369 666.599609375 c 2
 369 733.299804688 l 2
 369 766.700195312 402.400390625 800 435.700195312 800 c 2
 502.400390625 800 l 2
 535.799804688 800 569.099609375 766.599609375 569.099609375 733.299804688 c 1
EndSplineSet
Validated: 1
EndChar

StartChar: numbersign
Encoding: 3 35 4
Width: 666
VWidth: 0
Flags: W
HStem: 200.1 133.301<66.7002 133.5 266.7 400 533.3 600.1> 466.7 133.3<66.7002 133.5 266.7 400 533.3 600.1>
VStem: 133.5 133.2<133.3 200.1 333.4 466.7 600 666.8> 400.1 133.2<133.3 200.1 333.4 466.7 600 666.8>
LayerCount: 2
Back
Fore
SplineSet
266.700195312 333.400390625 m 1
 400.099609375 333.400390625 l 1
 400 466.700195312 l 1
 266.700195312 466.700195312 l 1
 266.700195312 333.400390625 l 1
600.099609375 466.700195312 m 1
 533.299804688 466.700195312 l 1
 533.299804688 333.400390625 l 1
 600.099609375 333.400390625 l 1
 600.099609375 200.099609375 l 1
 533.299804688 200.099609375 l 1
 533.299804688 133.299804688 l 1
 400 133.299804688 l 1
 400 200.099609375 l 1
 266.700195312 200.099609375 l 1
 266.700195312 133.299804688 l 1
 133.5 133.299804688 l 1
 133.5 200.099609375 l 1
 66.7001953125 200.099609375 l 1
 66.7001953125 333.400390625 l 1
 133.5 333.400390625 l 1
 133.5 466.700195312 l 1
 66.7001953125 466.700195312 l 1
 66.7001953125 600 l 1
 133.5 600 l 1
 133.5 666.799804688 l 1
 266.700195312 666.799804688 l 1
 266.700195312 600 l 1
 400.099609375 600 l 1
 400.099609375 666.799804688 l 1
 533.299804688 666.799804688 l 1
 533.299804688 600 l 1
 600.099609375 600 l 1
 600.099609375 466.700195312 l 1
EndSplineSet
Validated: 1
EndChar

StartChar: dollar
Encoding: 4 36 5
Width: 666
VWidth: 0
Flags: W
HStem: 0 200<66.2998 199.6> 66.7002 133.3<199.6 266.3 399.6 466.3> 333.3 133.4<199.6 266.3 399.6 466.3> 600 200<466.3 599.7> 600 133.3<199.6 266.3 399.6 466.3>
VStem: 66.2998 133.3<0 66.7002 466.7 600> 266.3 133.3<0 66.7002 200 333.3 466.7 600 733.3 800> 466.3 133.3<200 333.3 733.3 800>
LayerCount: 2
Back
Fore
SplineSet
599.700195312 600 m 1x37
 399.599609375 600 l 1
 399.599609375 466.700195312 l 1
 499.599609375 466.700195312 l 2
 549.599609375 466.700195312 599.599609375 416.700195312 599.599609375 366.700195312 c 2
 599.599609375 166.700195312 l 2
 599.599609375 116.700195312 549.599609375 66.7001953125 499.599609375 66.7001953125 c 2
 399.599609375 66.7001953125 l 1x6f
 399.599609375 0 l 1
 266.299804688 0 l 1xa7
 266.299804688 66.7001953125 l 1
 199.599609375 66.7001953125 l 1x67
 199.599609375 0 l 1
 66.2998046875 0 l 1
 66.2998046875 200 l 1xa7
 266.299804688 200 l 1
 266.299804688 333.299804688 l 1
 166.299804688 333.299804688 l 2
 116.299804688 333.299804688 66.2998046875 383.299804688 66.2998046875 433.299804688 c 2
 66.2998046875 633.299804688 l 2
 66.2998046875 683.299804688 116.299804688 733.299804688 166.299804688 733.299804688 c 2
 266.299804688 733.299804688 l 1x6f
 266.299804688 800 l 1
 399.599609375 800 l 1x37
 399.599609375 733.299804688 l 1
 466.299804688 733.299804688 l 1x2f
 466.299804688 800 l 1
 599.700195312 800 l 1
 599.700195312 600 l 1x37
466.299804688 333.299804688 m 1
 399.599609375 333.299804688 l 1
 399.599609375 200 l 1
 466.299804688 200 l 1
 466.299804688 333.299804688 l 1
266.299804688 466.700195312 m 1
 266.299804688 600 l 1
 199.599609375 600 l 1
 199.599609375 466.700195312 l 1
 266.299804688 466.700195312 l 1
EndSplineSet
Validated: 1
EndChar

StartChar: percent
Encoding: 5 37 6
Width: 666
VWidth: 0
Flags: W
HStem: 0 133.3<399.9 466.6> 200 133.3<399.9 466.6> 466.7 133.3<199.9 266.6> 666.7 133.3<199.9 266.6>
VStem: 66.5996 133.301<600 666.7> 266.6 133.301<133.3 200 600 666.7> 466.6 133.301<133.3 200>
CounterMasks: 1 0e
LayerCount: 2
Back
Fore
SplineSet
66.599609375 333.299804688 m 1
 599.900390625 533.299804688 l 1
 599.900390625 466.700195312 l 1
 66.599609375 266.700195312 l 1
 66.599609375 333.299804688 l 1
466.599609375 133.299804688 m 1
 466.599609375 200 l 1
 399.900390625 200 l 1
 399.900390625 133.299804688 l 1
 466.599609375 133.299804688 l 1
499.900390625 333.299804688 m 2
 549.900390625 333.299804688 599.900390625 283.299804688 599.900390625 233.299804688 c 2
 599.900390625 100 l 2
 599.900390625 50 549.900390625 0 499.900390625 0 c 2
 366.599609375 0 l 2
 316.599609375 0 266.599609375 50 266.599609375 100 c 2
 266.599609375 233.299804688 l 2
 266.599609375 283.299804688 316.599609375 333.299804688 366.599609375 333.299804688 c 2
 499.900390625 333.299804688 l 2
199.900390625 666.700195312 m 1
 199.900390625 600 l 1
 266.599609375 600 l 1
 266.599609375 666.700195312 l 1
 199.900390625 666.700195312 l 1
166.599609375 466.700195312 m 2
 116.599609375 466.700195312 66.599609375 516.700195312 66.599609375 566.700195312 c 2
 66.599609375 700 l 2
 66.599609375 750 116.599609375 800 166.599609375 800 c 2
 300 800 l 2
 350 800 400 750 400 700 c 2
 400 566.700195312 l 2
 400 516.700195312 350 466.700195312 300 466.700195312 c 2
 166.599609375 466.700195312 l 2
EndSplineSet
Validated: 1
EndChar

StartChar: ampersand
Encoding: 6 38 7
Width: 666
VWidth: 0
Flags: W
HStem: 0 133.3<66.5 133 266.4 398.69 534.111 599.7> 333.3 133.4<66.4004 133 266.4 333 533 599.7> 666.7 133.3<66.5 133 266.4 333 466.2 532.9>
VStem: 133 133.4<133.4 333.3 466.7 666.7> 333 133.2<466.7 666.7> 399.7 133.3<133.3 333.3>
CounterMasks: 1 e0
LayerCount: 2
Back
Fore
SplineSet
599.700195312 333.299804688 m 1xf8
 533 333.299804688 l 1
 533 133.299804688 l 1xf4
 599.700195312 133.299804688 l 1
 599.700195312 0 l 1
 566.400390625 0 l 2
 516.400390625 0 466.400390625 50 466.400390625 100 c 1
 466.400390625 50 416.400390625 0 366.400390625 0 c 2
 66.5 0 l 1
 66.5 133.400390625 l 1
 133 133.400390625 l 1
 133 333.400390625 l 1
 66.400390625 333.400390625 l 1
 66.400390625 466.700195312 l 1
 133 466.700195312 l 1
 133 666.700195312 l 1
 66.5 666.700195312 l 1
 66.5 800 l 1
 532.900390625 800 l 1
 532.900390625 666.700195312 l 1
 466.200195312 666.700195312 l 1
 466.200195312 466.700195312 l 1
 599.700195312 466.700195312 l 1
 599.700195312 333.299804688 l 1xf8
266.400390625 666.700195312 m 1
 266.400390625 466.700195312 l 1
 333 466.700195312 l 1
 333 666.700195312 l 1xf8
 266.400390625 666.700195312 l 1
266.400390625 133.299804688 m 1
 399.700195312 133.299804688 l 1
 399.700195312 333.299804688 l 1xf4
 266.400390625 333.299804688 l 1
 266.400390625 133.299804688 l 1
EndSplineSet
Validated: 1
EndChar

StartChar: quotesingle
Encoding: 7 39 8
Width: 666
VWidth: 0
Flags: W
HStem: 533.3 266.7 780 20G<233 433>
VStem: 233 200<466.6 533.3>
LayerCount: 2
Back
Fore
SplineSet
233 800 m 1x60
 433 800 l 1x60
 433 733.299804688 l 1
 233 533.299804688 l 1xa0
 233 800 l 1x60
EndSplineSet
Validated: 1
EndChar

StartChar: parenleft
Encoding: 8 40 9
Width: 666
VWidth: 0
Flags: W
HStem: 0 133.3<366.3 433> 666.7 133.3<366.3 433>
VStem: 233 200<42.4149 133.3 666.7 757.585>
LayerCount: 2
Back
Fore
SplineSet
433 666.700195312 m 1
 366.299804688 666.700195312 l 1
 366.299804688 133.299804688 l 1
 433 133.299804688 l 1
 433 0 l 1
 333 0 l 2
 283 0 233 50 233 100 c 2
 233 700 l 2
 233 750 283 800 333 800 c 2
 433 800 l 1
 433 666.700195312 l 1
EndSplineSet
Validated: 1
EndChar

StartChar: parenright
Encoding: 9 41 10
Width: 666
VWidth: 0
Flags: W
HStem: 0 133.3<233 299.7> 666.7 133.3<233 299.7>
VStem: 233 200<42.4149 133.3 666.7 757.585>
LayerCount: 2
Back
Fore
SplineSet
233 666.700195312 m 1
 233 800 l 1
 333 800 l 2
 383 800 433 750 433 700 c 2
 433 100 l 2
 433 50 383 0 333 0 c 2
 233 0 l 1
 233 133.299804688 l 1
 299.700195312 133.299804688 l 1
 299.700195312 666.700195312 l 1
 233 666.700195312 l 1
EndSplineSet
Validated: 1
EndChar

StartChar: asterisk
Encoding: 10 42 11
Width: 666
VWidth: 0
Flags: W
HStem: 780 20G<233 433> 780 20G<233 433>
LayerCount: 2
Back
Fore
SplineSet
533 600 m 1x80
 466.299804688 566.700195312 l 1
 533 500 l 1
 433 400 l 1
 333 500 l 1
 233 400 l 1
 133 500 l 1
 199.599609375 566.700195312 l 1
 133 600 l 1
 166.299804688 733.299804688 l 1
 266.299804688 700 l 1
 233 800 l 1
 433 800 l 1
 399.599609375 700 l 1
 499.599609375 733.299804688 l 1
 533 600 l 1x80
EndSplineSet
Validated: 1
EndChar

StartChar: plus
Encoding: 11 43 12
Width: 666
VWidth: 0
Flags: W
HStem: 333.3 133.4<66.4004 266.4 399.7 599.7>
VStem: 266.4 133.3<133.3 333.3 466.7 666.7>
LayerCount: 2
Back
Fore
SplineSet
599.700195312 466.700195312 m 1
 599.700195312 333.299804688 l 1
 399.700195312 333.299804688 l 1
 399.700195312 133.299804688 l 1
 266.400390625 133.299804688 l 1
 266.400390625 333.299804688 l 1
 66.400390625 333.299804688 l 1
 66.400390625 466.700195312 l 1
 266.400390625 466.700195312 l 1
 266.400390625 666.700195312 l 1
 399.700195312 666.700195312 l 1
 399.700195312 466.700195312 l 1
 599.700195312 466.700195312 l 1
EndSplineSet
Validated: 1
EndChar

StartChar: comma
Encoding: 12 44 13
Width: 666
VWidth: 0
Flags: HMW
LayerCount: 2
Back
Fore
SplineSet
199.799804688 0 m 1
 299.799804688 200 l 1
 433.099609375 200 l 1
 333.099609375 0 l 1
 199.799804688 0 l 1
EndSplineSet
Validated: 524289
EndChar

StartChar: hyphen
Encoding: 13 45 14
Width: 666
VWidth: 0
Flags: W
HStem: 333.4 133.3<133 533>
LayerCount: 2
Back
Fore
SplineSet
133 333.400390625 m 1
 133 466.700195312 l 1
 533 466.700195312 l 1
 533 333.400390625 l 1
 133 333.400390625 l 1
EndSplineSet
Validated: 1
EndChar

StartChar: period
Encoding: 14 46 15
Width: 666
VWidth: 0
Flags: W
HStem: -0.0996094 200.1<253.825 412.237>
VStem: 233 200.1<20.7626 179.137>
LayerCount: 2
Back
Fore
SplineSet
233 133.299804688 m 2
 233 166.700195312 266.299804688 200 299.700195312 200 c 2
 366.400390625 200 l 2
 399.799804688 200 433.099609375 166.599609375 433.099609375 133.299804688 c 2
 433.099609375 66.599609375 l 2
 433.099609375 33.2001953125 399.700195312 -0.099609375 366.400390625 -0.099609375 c 2
 299.700195312 -0.099609375 l 2
 266.299804688 -0.099609375 233 33.2998046875 233 66.599609375 c 2
 233 133.299804688 l 2
EndSplineSet
Validated: 1
EndChar

StartChar: slash
Encoding: 15 47 16
Width: 666
VWidth: 0
Flags: W
HStem: 0 21G<133 272.967> 0 21G<133 272.967> 780 20G<393.033 533> 780 20G<393.033 533>
LayerCount: 2
Back
Fore
SplineSet
133 0 m 1xa0
 399.700195312 800 l 1
 533 800 l 1
 266.299804688 0 l 1
 133 0 l 1xa0
EndSplineSet
Validated: 1
EndChar

StartChar: zero
Encoding: 16 48 17
Width: 666
VWidth: 0
Flags: W
HStem: 0 133.3<199.6 466.3> 666.7 133.3<199.6 466.3>
VStem: 66.2998 133.3<133.3 200 366.7 433.3 600 666.7> 466.3 133.3<133.3 200 366.7 433.3 600 666.7>
LayerCount: 2
Back
Fore
SplineSet
499.599609375 800 m 2
 549.549492779 800 599.59976058 750.100182958 599.59976058 700.150349737 c 0
 599.599609375 700 l 2
 599.599609375 100 l 2
 599.599609375 50 549.599609375 0 499.599609375 0 c 2
 166.299804688 0 l 2
 116.299804688 0 66.2998046875 50 66.2998046875 100 c 2
 66.2998046875 700 l 2
 66.2998046875 750 116.299804688 800 166.299804688 800 c 2
 499.599609375 800 l 2
199.599609375 433.299804688 m 1
 199.599609375 366.700195312 l 1
 237.700195312 400 l 1
 199.599609375 433.299804688 l 1
466.299804688 133.299804688 m 1
 466.299804688 200 l 1
 333 316.700195312 l 1
 199.599609375 200 l 1
 199.599609375 133.299804688 l 1
 466.299804688 133.299804688 l 1
428.200195312 400 m 1
 466.299804688 366.700195312 l 1
 466.299804688 433.299804688 l 1
 428.200195312 400 l 1
466.299804688 600 m 1
 466.299804688 666.700195312 l 1
 199.599609375 666.700195312 l 1
 199.599609375 600 l 1
 333 483.299804688 l 1
 466.299804688 600 l 1
EndSplineSet
Validated: 1
EndChar

StartChar: one
Encoding: 17 49 18
Width: 666
VWidth: 0
Flags: W
HStem: 0 133.4<66.4004 266.4 399.7 599.7> 666.7 133.3<199.7 266.4>
VStem: 66.4004 133.3<527.8 666.7> 266.4 133.3<133.4 666.7>
LayerCount: 2
Back
Fore
SplineSet
399.700195312 133.299804688 m 1
 599.700195312 133.299804688 l 1
 599.700195312 0 l 1
 66.400390625 0 l 1
 66.400390625 133.400390625 l 1
 266.400390625 133.400390625 l 1
 266.400390625 666.700195312 l 1
 199.700195312 666.700195312 l 1
 199.700195312 527.799804688 l 1
 66.400390625 527.799804688 l 1
 66.400390625 700 l 2
 66.400390625 750 116.400390625 800 166.400390625 800 c 2
 299.700195312 800 l 2
 349.700195312 800 399.700195312 750 399.700195312 700 c 2
 399.700195312 133.299804688 l 1
EndSplineSet
Validated: 1
EndChar

StartChar: two
Encoding: 18 50 19
Width: 666
VWidth: 0
Flags: W
HStem: 0 133.3<199.6 599.6> 200 133.4<199.6 466.3> 600 200<108.715 199.6>
VStem: 66.2998 133.3<133.3 200 600 666.7> 466.3 133.3<333.4 666.7>
LayerCount: 2
Back
Fore
SplineSet
199.599609375 133.299804688 m 1
 599.599609375 133.299804688 l 1
 599.599609375 0 l 1
 66.2998046875 0 l 1
 66.2998046875 233.400390625 l 2
 66.2998046875 283.400390625 116.299804688 333.400390625 166.299804688 333.400390625 c 2
 466.299804688 333.400390625 l 1
 466.299804688 666.700195312 l 1
 199.599609375 666.700195312 l 1
 199.599609375 600 l 1
 66.2998046875 600 l 1
 66.2998046875 700 l 2
 66.2998046875 750 116.299804688 800 166.299804688 800 c 2
 499.599609375 800 l 2
 549.599609375 800 599.599609375 750 599.599609375 700 c 2
 599.599609375 300 l 2
 599.599609375 250 549.599609375 200 499.599609375 200 c 2
 199.599609375 200 l 1
 199.599609375 133.299804688 l 1
EndSplineSet
Validated: 1
EndChar

StartChar: three
Encoding: 19 51 20
Width: 666
VWidth: 0
Flags: W
HStem: 0 133.4<199.6 466.3> 466.7 133.3<266.3 466.3> 666.7 133.3<199.6 466.3>
VStem: 66.2998 133.3<133.4 200 600 666.7> 466.3 133.3<133.4 466.7 600 666.7>
LayerCount: 2
Back
Fore
SplineSet
599.599609375 700 m 2
 599.599609375 600.099609375 l 2
 599.599609375 566.700195312 566.200195312 533.400390625 532.900390625 533.400390625 c 1
 566.299804688 533.400390625 599.599609375 500 599.599609375 466.700195312 c 2
 599.599609375 100 l 2
 599.599609375 50 549.599609375 0 499.599609375 0 c 2
 166.299804688 0 l 2
 116.299804688 0 66.2998046875 50 66.2998046875 100 c 2
 66.2998046875 200 l 1
 199.599609375 200 l 1
 199.599609375 133.400390625 l 1
 466.299804688 133.400390625 l 1
 466.299804688 466.700195312 l 1
 266.299804688 466.700195312 l 1
 266.299804688 600 l 1
 466.299804688 600 l 1
 466.299804688 666.700195312 l 1
 199.599609375 666.700195312 l 1
 199.599609375 600 l 1
 66.2998046875 600 l 1
 66.2998046875 700 l 2
 66.2998046875 750 116.299804688 800 166.299804688 800 c 2
 499.599609375 800 l 2
 549.599609375 800 599.599609375 750 599.599609375 700 c 2
EndSplineSet
Validated: 1
EndChar

StartChar: four
Encoding: 20 52 21
Width: 666
VWidth: 0
Flags: W
HStem: 0 21G<466.3 599.6> 66.7002 133.3<199.6 466.3> 780 20G<66.2998 199.6 466.3 599.6>
VStem: 66.2998 133.3<200 800> 466.3 133.3<0 66.7002 200 800>
LayerCount: 2
Back
Fore
SplineSet
466.299804688 200 m 1
 466.299804688 800 l 1
 599.599609375 800 l 1
 599.599609375 0 l 1
 466.299804688 0 l 1
 466.299804688 66.7001953125 l 1
 166.299804688 66.7001953125 l 2
 116.299804688 66.7001953125 66.2998046875 116.700195312 66.2998046875 166.700195312 c 2
 66.2998046875 800 l 1
 199.599609375 800 l 1
 199.599609375 200 l 1
 466.299804688 200 l 1
EndSplineSet
Validated: 1
EndChar

StartChar: five
Encoding: 21 53 22
Width: 666
VWidth: 0
Flags: W
HStem: 0 133.4<199.7 466.3> 466.7 133.3<199.7 466.4> 666.7 133.3<199.7 599.7>
VStem: 66.4004 133.3<133.4 200 600 666.7> 466.3 133.4<133.4 466.7>
LayerCount: 2
Back
Fore
SplineSet
599.700195312 666.700195312 m 1
 199.700195312 666.700195312 l 1
 199.700195312 600 l 1
 499.700195312 600 l 2
 549.700195312 600 599.700195312 550 599.700195312 500 c 2
 599.700195312 100 l 2
 599.700195312 50 549.700195312 0 499.700195312 0 c 2
 166.400390625 0 l 2
 116.400390625 0 66.400390625 50 66.400390625 100 c 2
 66.400390625 200 l 1
 199.700195312 200 l 1
 199.700195312 133.400390625 l 1
 466.299804688 133.400390625 l 1
 466.400390625 466.700195312 l 1
 66.400390625 466.700195312 l 1
 66.400390625 800 l 1
 599.700195312 800 l 1
 599.700195312 666.700195312 l 1
EndSplineSet
Validated: 1
EndChar

StartChar: six
Encoding: 22 54 23
Width: 666
VWidth: 0
Flags: W
HStem: 0 133.3<199.7 466.2> 466.6 133.4<199.7 466.2> 666.7 133.3<199.7 533>
VStem: 66.2998 133.4<133.3 466.6 600 666.7> 466.2 133.5<133.3 466.6>
LayerCount: 2
Back
Fore
SplineSet
166.099609375 800 m 2
 533 800 l 1
 533 666.700195312 l 1
 199.700195312 666.700195312 l 1
 199.700195312 600 l 1
 499.700195312 600 l 2
 549.700195312 600 599.700195312 550 599.700195312 500 c 2
 599.700195312 100 l 2
 599.700195312 50 549.799804688 0 499.799804688 0 c 2
 166.099609375 0 l 2
 116.200195312 0.2001953125 66.2998046875 50.099609375 66.2998046875 100 c 2
 66.2998046875 700 l 2
 66.2998046875 749.900390625 116.200195312 799.799804688 166.099609375 800 c 2
466.200195312 133.299804688 m 1
 466.200195312 466.599609375 l 1
 199.700195312 466.599609375 l 1
 199.700195312 133.299804688 l 1
 466.200195312 133.299804688 l 1
EndSplineSet
Validated: 1
EndChar

StartChar: seven
Encoding: 23 55 24
Width: 666
VWidth: 0
Flags: W
HStem: 0 21G<399 532.3> 333.4 133.3<65.7002 399 532.3 599> 666.7 133.3<65.7002 399>
VStem: 399 133.3<0 333.3 466.7 666.7>
LayerCount: 2
Back
Fore
SplineSet
599 466.700195312 m 1
 599 333.299804688 l 1
 532.299804688 333.299804688 l 1
 532.299804688 0 l 1
 399 0 l 1
 399 333.400390625 l 1
 65.7001953125 333.400390625 l 1
 65.7001953125 466.700195312 l 1
 399 466.700195312 l 1
 399 666.700195312 l 1
 65.7001953125 666.700195312 l 1
 65.7001953125 800 l 1
 432.299804688 800 l 2
 482.299804688 800 532.299804688 750 532.299804688 700 c 2
 532.299804688 466.700195312 l 1
 599 466.700195312 l 1
EndSplineSet
Validated: 1
EndChar

StartChar: eight
Encoding: 24 56 25
Width: 666
VWidth: 0
Flags: W
HStem: -0.0996094 133.399<199.7 466.2> 200 133.3<199.7 466.2> 666.7 133.3<199.7 466.4>
VStem: 66.2998 133.4<133.3 200 333.3 666.7> 466.4 133.199<133.3 200 333.3 666.7>
LayerCount: 2
Back
Fore
SplineSet
499.799804688 800 m 2
 549.65007809 799.900490667 599.599760884 750.10018421 599.599760884 700.150651442 c 0
 599.599609375 700 l 2
 599.599609375 333.400390625 l 2
 599.599609375 300 566.200195312 266.700195312 532.900390625 266.700195312 c 1
 566.299804688 266.700195312 599.599609375 233.299804688 599.599609375 200 c 2
 599.599609375 99.900390625 l 2
 599.599609375 49.900390625 549.700195312 -0.099609375 499.700195312 -0.099609375 c 2
 166.099609375 -0.099609375 l 2
 116.200195312 0.099609375 66.2998046875 50 66.2998046875 99.900390625 c 2
 66.2998046875 199.900390625 l 2
 66.2998046875 233.299804688 99.7001953125 266.599609375 133 266.599609375 c 1
 99.599609375 266.599609375 66.2998046875 300 66.2998046875 333.299804688 c 2
 66.2998046875 700 l 2
 66.2998046875 749.900390625 116.200195312 799.900390625 166.099609375 800 c 2
 499.799804688 800 l 2
466.200195312 133.299804688 m 1
 466.200195312 200 l 1
 199.700195312 200 l 1
 199.700195312 133.299804688 l 1
 466.200195312 133.299804688 l 1
466.299804688 333.299804688 m 1
 466.400390625 333.299804688 l 1
 466.400390625 666.700195312 l 1
 199.700195312 666.700195312 l 1
 199.700195312 333.299804688 l 1
 466.299804688 333.299804688 l 1
EndSplineSet
Validated: 1
EndChar

StartChar: nine
Encoding: 25 57 26
Width: 666
VWidth: 0
Flags: W
HStem: 0 133.3<133 466.3> 200 133.4<199.8 466.3> 666.7 133.3<199.8 466.3>
VStem: 66.2998 133.5<333.4 666.7> 466.3 133.4<133.3 200 333.4 666.7>
LayerCount: 2
Back
Fore
SplineSet
499.900390625 0 m 2
 133 0 l 1
 133 133.299804688 l 1
 466.299804688 133.299804688 l 1
 466.299804688 200 l 1
 166.299804688 200 l 2
 116.299804688 200 66.2998046875 250 66.2998046875 300 c 2
 66.2998046875 700 l 2
 66.2998046875 750 116.200195312 800 166.200195312 800 c 2
 499.900390625 800 l 2
 549.799804688 799.799804688 599.700195312 749.900390625 599.700195312 700 c 2
 599.700195312 100 l 2
 599.700195312 50.099609375 549.799804688 0.2001953125 499.900390625 0 c 2
199.799804688 666.700195312 m 1
 199.799804688 333.400390625 l 1
 466.299804688 333.400390625 l 1
 466.299804688 666.700195312 l 1
 199.799804688 666.700195312 l 1
EndSplineSet
Validated: 1
EndChar

StartChar: colon
Encoding: 26 58 27
Width: 666
VWidth: 0
Flags: W
HStem: -0.0996094 200.1<259.425 417.838> 399.9 200.1<259.425 417.838>
VStem: 238.6 200.101<20.7626 179.137 420.763 579.137>
LayerCount: 2
Back
Fore
SplineSet
238.599609375 133.299804688 m 2
 238.599609375 166.700195312 271.900390625 200 305.299804688 200 c 2
 372 200 l 2
 405.400390625 200 438.700195312 166.599609375 438.700195312 133.299804688 c 2
 438.700195312 66.599609375 l 2
 438.700195312 33.2001953125 405.299804688 -0.099609375 372 -0.099609375 c 2
 305.299804688 -0.099609375 l 2
 271.900390625 -0.099609375 238.599609375 33.2998046875 238.599609375 66.599609375 c 2
 238.599609375 133.299804688 l 2
238.599609375 533.299804688 m 2
 238.599609375 566.700195312 271.900390625 600 305.299804688 600 c 2
 372 600 l 2
 405.400390625 600 438.700195312 566.599609375 438.700195312 533.299804688 c 2
 438.700195312 466.599609375 l 2
 438.700195312 433.200195312 405.299804688 399.900390625 372 399.900390625 c 2
 305.299804688 399.900390625 l 2
 271.900390625 399.900390625 238.599609375 433.299804688 238.599609375 466.599609375 c 2
 238.599609375 533.299804688 l 2
EndSplineSet
Validated: 1
EndChar

StartChar: semicolon
Encoding: 27 59 28
Width: 666
VWidth: 0
Flags: HMW
LayerCount: 2
Back
Fore
SplineSet
238.700195312 533.299804688 m 2
 238.700195312 566.700195312 272 600 305.299804688 600 c 2
 372 600 l 2
 405.400390625 600 438.700195312 566.599609375 438.700195312 533.299804688 c 2
 438.700195312 466.599609375 l 2
 438.700195312 433.200195312 405.299804688 399.900390625 372 399.900390625 c 2
 305.400390625 399.900390625 l 2
 272 399.900390625 238.700195312 433.299804688 238.700195312 466.599609375 c 2
 238.700195312 533.299804688 l 2
199.799804688 0 m 1
 299.799804688 200 l 1
 433.099609375 200 l 1
 333.099609375 0 l 1
 199.799804688 0 l 1
EndSplineSet
Validated: 524289
EndChar

StartChar: less
Encoding: 28 60 29
Width: 666
VWidth: 0
Flags: W
LayerCount: 2
Back
Fore
SplineSet
599.700195312 733.299804688 m 1
 599.700195312 566.700195312 l 1
 244.099609375 400 l 1
 599.700195312 233.299804688 l 1
 599.700195312 66.7001953125 l 1
 66.2998046875 316.700195312 l 1
 66.2998046875 483.299804688 l 1
 599.700195312 733.299804688 l 1
EndSplineSet
Validated: 1
EndChar

StartChar: equal
Encoding: 29 61 30
Width: 666
VWidth: 0
Flags: W
HStem: 200.1 133.301<133 533> 466.7 133.3<133 533>
LayerCount: 2
Back
Fore
SplineSet
133 200.099609375 m 1
 133 333.400390625 l 1
 533 333.400390625 l 1
 533 200.099609375 l 1
 133 200.099609375 l 1
133 466.700195312 m 1
 133 600 l 1
 533 600 l 1
 533 466.700195312 l 1
 133 466.700195312 l 1
EndSplineSet
Validated: 1
EndChar

StartChar: greater
Encoding: 30 62 31
Width: 666
VWidth: 0
Flags: W
LayerCount: 2
Back
Fore
SplineSet
66.2998046875 733.299804688 m 1
 599.700195312 483.299804688 l 1
 599.700195312 316.700195312 l 1
 66.2998046875 66.7001953125 l 1
 66.2998046875 233.299804688 l 1
 421.900390625 400 l 1
 66.2998046875 566.700195312 l 1
 66.2998046875 733.299804688 l 1
EndSplineSet
Validated: 1
EndChar

StartChar: question
Encoding: 31 63 32
Width: 666
VWidth: 0
Flags: W
HStem: -0.0996094 200.1<253.863 412.237> 400 133.3<533 599.6> 666.7 133.3<66.4004 133 266.3 399.6 533 599.7>
VStem: 133 133.3<533.4 666.7> 233 200.1<20.7626 179.175> 266.3 133.4<333.4 400> 399.7 133.3<533.4 666.7>
LayerCount: 2
Back
Fore
SplineSet
533 533.299804688 m 1xf2
 599.599609375 533.299804688 l 1
 599.599609375 400 l 1
 399.700195312 400 l 1
 399.700195312 333.400390625 l 1
 399.599609375 333.400390625 l 1
 366.299804688 266.700195312 l 1
 299.599609375 266.700195312 l 1
 266.299804688 333.400390625 l 1
 266.299804688 433.400390625 l 2xe4
 266.299804688 483.400390625 316.299804688 533.400390625 366.299804688 533.400390625 c 2
 399.700195312 533.400390625 l 1
 399.599609375 666.700195312 l 1
 266.299804688 666.700195312 l 1
 266.299804688 533.400390625 l 1
 133 533.400390625 l 1
 133 666.700195312 l 1
 66.400390625 666.700195312 l 1
 66.400390625 800 l 1
 599.700195312 800 l 1
 599.700195312 666.700195312 l 1
 533 666.700195312 l 1
 533 533.299804688 l 1xf2
366.400390625 200 m 2
 399.700195312 200 433.099609375 166.700195312 433.099609375 133.299804688 c 2
 433.099609375 66.599609375 l 2
 433.099609375 33.2001953125 399.700195312 -0.099609375 366.400390625 -0.099609375 c 2
 299.700195312 -0.099609375 l 2
 266.299804688 -0.099609375 233 33.2998046875 233 66.599609375 c 2
 233 133.299804688 l 2xe8
 233 166.700195312 266.400390625 200 299.700195312 200 c 2
 366.400390625 200 l 2
EndSplineSet
Validated: 1
EndChar

StartChar: at
Encoding: 32 64 33
Width: 666
VWidth: 0
Flags: W
HStem: 0 166.7<175.415 266.3 466.3 599.7> 0 133.4<266.3 466.3> 200 133.3<199.7 299.7 433.34 466.3> 433.3 133.4<199.7 299.7> 666.7 133.3<266.3 466.3>
VStem: 66.4004 133.3<333.3 433.3> 133 133.3<133.4 166.7 600 666.7> 299.7 133.3<333.4 433.3> 466.3 133.4<133.4 166.7 333.4 666.7>
LayerCount: 2
Back
Fore
SplineSet
399.700195312 266.700195312 m 1x3b80
 399.700195312 233.299804688 366.299804688 200 333 200 c 2
 66.400390625 200 l 1
 66.400390625 566.700195312 l 1x3d80
 433 566.700195312 l 1
 433 333.400390625 l 1
 466.299804688 333.400390625 l 1
 466.299804688 666.700195312 l 1
 266.299804688 666.700195312 l 1
 266.299804688 600 l 1
 133 600 l 1
 133 700 l 2
 133 750 183 800 233 800 c 2
 599.700195312 800 l 1
 599.700195312 266.700195312 l 2
 599.700195312 233.299804688 566.299804688 200 533 200 c 2
 466.400390625 200 l 2
 433 200 399.700195312 233.400390625 399.700195312 266.700195312 c 1x3b80
299.700195312 433.299804688 m 1
 199.700195312 433.299804688 l 1
 199.700195312 333.299804688 l 1
 299.700195312 333.299804688 l 1
 299.700195312 433.299804688 l 1
599.700195312 166.700195312 m 1xbb80
 599.700195312 0 l 1
 233 0 l 2
 183 0 133 50 133 100 c 2
 133 166.700195312 l 1
 266.299804688 166.700195312 l 1xbb80
 266.299804688 133.400390625 l 1
 466.299804688 133.400390625 l 1x7b80
 466.299804688 166.700195312 l 1
 599.700195312 166.700195312 l 1xbb80
EndSplineSet
Validated: 1
EndChar

StartChar: A
Encoding: 33 65 34
Width: 666
VWidth: 0
Flags: W
HStem: 0 133.4<66.2998 99.5996 233 266.4 399.4 433 566.3 599.6> 333.4 133.3<66.2998 149.6 316.3 349.7 516.3 599.6> 666.7 133.3<66.2998 233 433 599.7>
VStem: 66.2998 200.101<0 133.3> 399.4 200.199<0 133.3>
LayerCount: 2
Back
Fore
SplineSet
599.700195312 800 m 1
 599.700195312 666.700195312 l 1
 433 666.700195312 l 1
 483 466.700195312 l 1
 599.599609375 466.700195312 l 1
 599.599609375 333.299804688 l 1
 516.299804688 333.299804688 l 1
 566.299804688 133.299804688 l 1
 599.5 133.299804688 l 1
 599.599609375 133.299804688 l 1
 599.599609375 0 l 1
 599.5 0 l 1
 399.400390625 0 l 1
 399.400390625 133.299804688 l 1
 433 133.299804688 l 1
 383 333.299804688 l 1
 283 333.299804688 l 1
 233 133.299804688 l 1
 266.400390625 133.299804688 l 1
 266.400390625 0 l 1
 66.2998046875 0 l 1
 66.2998046875 133.400390625 l 1
 99.599609375 133.400390625 l 1
 149.599609375 333.400390625 l 1
 66.2998046875 333.400390625 l 1
 66.2998046875 466.700195312 l 1
 183 466.700195312 l 1
 233 666.700195312 l 1
 66.2998046875 666.700195312 l 1
 66.2998046875 800 l 1
 599.700195312 800 l 1
316.299804688 466.700195312 m 1
 349.700195312 466.700195312 l 1
 333 533.400390625 l 1
 316.299804688 466.700195312 l 1
EndSplineSet
Validated: 1
EndChar

StartChar: B
Encoding: 34 66 35
Width: 666
VWidth: 0
Flags: W
HStem: 0 133.3<66.2998 133 266.3 466.6> 333.3 133.4<66.2998 133 266.3 466.6> 666.7 133.3<66.2998 133 266.3 466.6>
VStem: 133 133.3<133.4 333.3 466.7 666.7> 466.6 133<133.3 333.3 466.7 666.7>
CounterMasks: 1 e0
LayerCount: 2
Back
Fore
SplineSet
599.700195312 466.700195312 m 2
 599.700195312 433.299804688 566.299804688 400 532.900390625 400 c 1
 566.299804688 400 599.599609375 366.599609375 599.599609375 333.299804688 c 2
 599.599609375 100 l 2
 599.599609375 50 549.599609375 0 499.599609375 0 c 2
 66.2998046875 0 l 1
 66.2998046875 133.400390625 l 1
 133 133.400390625 l 1
 133 333.400390625 l 1
 66.2998046875 333.400390625 l 1
 66.2998046875 466.700195312 l 1
 133 466.700195312 l 1
 133 666.700195312 l 1
 66.2998046875 666.700195312 l 1
 66.2998046875 800 l 1
 499.700195312 800 l 2
 549.700195312 800 599.700195312 750 599.700195312 700 c 2
 599.700195312 466.700195312 l 2
266.299804688 666.700195312 m 1
 266.299804688 466.700195312 l 1
 466.599609375 466.700195312 l 1
 466.599609375 666.700195312 l 1
 266.299804688 666.700195312 l 1
266.299804688 333.299804688 m 1
 266.299804688 133.299804688 l 1
 466.599609375 133.299804688 l 1
 466.599609375 333.299804688 l 1
 266.299804688 333.299804688 l 1
EndSplineSet
Validated: 1
EndChar

StartChar: C
Encoding: 35 67 36
Width: 666
VWidth: 0
Flags: W
HStem: 0 133.3<66.2998 132.9 266.2 466.2> 666.7 133.3<66.2998 132.9 266.2 466.2>
VStem: 132.9 133.3<133.3 666.7> 466.2 133.3<133.3 266.7 533.3 666.7>
LayerCount: 2
Back
Fore
SplineSet
66.2998046875 800 m 1
 599.700195312 800 l 1
 599.5 533.299804688 l 1
 466.200195312 533.299804688 l 1
 466.200195312 666.700195312 l 1
 266.200195312 666.700195312 l 1
 266.200195312 133.299804688 l 1
 466.200195312 133.299804688 l 1
 466.200195312 266.700195312 l 1
 599.5 266.700195312 l 1
 599.700195312 0 l 1
 66.2998046875 0 l 1
 66.2998046875 133.299804688 l 1
 132.900390625 133.299804688 l 1
 132.900390625 666.700195312 l 1
 66.2998046875 666.700195312 l 1
 66.2998046875 800 l 1
EndSplineSet
Validated: 1
EndChar

StartChar: D
Encoding: 36 68 37
Width: 666
VWidth: 0
Flags: W
HStem: 0 133.4<66.2998 132.8 266.2 466.2> 666.7 133.3<66.2998 132.8 266.2 466.2>
VStem: 132.8 133.4<133.4 666.7> 466.2 133.3<133.4 666.7>
LayerCount: 2
Back
Fore
SplineSet
599.5 700 m 1
 599.5 100 l 1
 599.599609375 100 l 1
 599.599609375 50 549.599609375 0 499.599609375 0 c 2
 66.2998046875 0 l 1
 66.2998046875 133.400390625 l 1
 132.799804688 133.400390625 l 1
 132.799804688 666.700195312 l 1
 66.2998046875 666.700195312 l 1
 66.2998046875 800 l 1
 499.599609375 800 l 2
 549.599609375 800 599.599609375 750 599.599609375 700 c 1
 599.5 700 l 1
266.200195312 666.700195312 m 1
 266.200195312 133.400390625 l 1
 466.200195312 133.400390625 l 1
 466.200195312 666.700195312 l 1
 266.200195312 666.700195312 l 1
EndSplineSet
Validated: 1
EndChar

StartChar: E
Encoding: 37 69 38
Width: 666
VWidth: 0
Flags: W
HStem: 0 201.4<466.4 599.7> 0 133.3<66.4004 133 266.4 466.4> 333.3 133.4<66.4004 133 266.4 333> 600 200<466.4 599.7> 666.7 133.3<66.4004 133 266.4 466.4>
VStem: 133 133.4<133.3 333.3 466.7 666.7> 333 133.4<266.7 333.3 466.7 533.3> 466.4 133.3<133.3 201.4 600 666.7>
LayerCount: 2
Back
Fore
SplineSet
266.400390625 800 m 1x6d
 599.700195312 800 l 1
 599.700195312 600 l 1
 466.400390625 600 l 1x35
 466.400390625 666.700195312 l 1x2d
 266.400390625 666.700195312 l 1
 266.400390625 466.700195312 l 1
 333 466.700195312 l 1
 333 533.299804688 l 1
 466.400390625 533.299804688 l 1
 466.400390625 266.700195312 l 1
 333 266.700195312 l 1
 333 333.299804688 l 1x2e
 266.400390625 333.299804688 l 1
 266.400390625 133.299804688 l 1
 466.400390625 133.299804688 l 1x6d
 466.400390625 201.400390625 l 1
 599.700195312 201.400390625 l 1
 599.700195312 1.400390625 l 1
 599.700195312 0 l 1xa5
 66.400390625 0 l 1
 66.400390625 133.299804688 l 1
 133 133.299804688 l 1
 133 333.299804688 l 1
 66.400390625 333.299804688 l 1
 66.400390625 466.700195312 l 1
 133 466.700195312 l 1
 133 666.700195312 l 1
 66.400390625 666.700195312 l 1
 66.400390625 800 l 1
 266.400390625 800 l 1x6d
EndSplineSet
Validated: 1
EndChar

StartChar: F
Encoding: 38 70 39
Width: 666
VWidth: 0
Flags: W
HStem: 0 133.3<66.2998 133 266.3 333> 333.3 133.4<66.2998 133 266.3 333> 600 200<466.3 599.7> 666.7 133.3<66.2998 133 266.3 466.3>
VStem: 133 133.3<133.3 333.3 466.7 666.7> 333 133.3<266.7 333.3 466.7 533.3> 466.3 133.4<600 666.7>
LayerCount: 2
Back
Fore
SplineSet
66.2998046875 800 m 1xdc
 599.700195312 800 l 1xea
 599.700195312 666.700195312 l 1xda
 599.700195312 600 l 1
 466.299804688 600 l 1xea
 466.299804688 666.700195312 l 1xda
 266.299804688 666.700195312 l 1
 266.299804688 466.700195312 l 1
 333 466.700195312 l 1
 333 533.299804688 l 1
 466.299804688 533.299804688 l 1
 466.299804688 266.700195312 l 1
 333 266.700195312 l 1
 333 333.299804688 l 1
 266.299804688 333.299804688 l 1
 266.299804688 133.299804688 l 1
 333 133.299804688 l 1
 333 0 l 1
 66.2998046875 0 l 1
 66.2998046875 133.299804688 l 1
 133 133.299804688 l 1
 133 333.299804688 l 1
 66.2998046875 333.299804688 l 1
 66.2998046875 466.700195312 l 1
 133 466.700195312 l 1
 133 666.700195312 l 1
 66.2998046875 666.700195312 l 1
 66.2998046875 800 l 1xdc
EndSplineSet
Validated: 1
EndChar

StartChar: G
Encoding: 39 71 40
Width: 666
VWidth: 0
Flags: W
HStem: 0 133.3<66.2998 132.9 266.2 466.2> 266.7 133.3<333 466.2> 666.7 133.3<66.2998 132.9 266.2 466.2>
VStem: 132.9 133.3<133.3 666.7> 466.2 133.3<133.3 266.7 533.3 666.7>
LayerCount: 2
Back
Fore
SplineSet
599.5 400 m 1
 599.5 266.700195312 l 1
 599.700195312 0 l 1
 66.2998046875 0 l 1
 66.2998046875 133.299804688 l 1
 132.900390625 133.299804688 l 1
 132.900390625 666.700195312 l 1
 66.2998046875 666.700195312 l 1
 66.2998046875 800 l 1
 599.700195312 800 l 1
 599.5 533.299804688 l 1
 466.200195312 533.299804688 l 1
 466.200195312 666.700195312 l 1
 266.200195312 666.700195312 l 1
 266.200195312 133.299804688 l 1
 466.200195312 133.299804688 l 1
 466.200195312 266.700195312 l 1
 333 266.700195312 l 1
 333 400 l 1
 599.5 400 l 1
EndSplineSet
Validated: 1
EndChar

StartChar: H
Encoding: 40 72 41
Width: 666
VWidth: 0
Flags: W
HStem: 0 133.3<66.4004 133.1 533 599.7> 333.3 133.4<66.4004 133.1 266.4 399.7 533 599.7> 666.7 133.3<66.4004 133.1 533 599.7>
VStem: 66.4004 200<0 133.3 666.7 800> 133.1 133.301<133.3 333.3 466.7 666.7> 399.7 200<0 133.3 666.7 800> 399.7 133.3<133.3 333.3 466.7 666.7>
CounterMasks: 1 e0
LayerCount: 2
Back
Fore
SplineSet
599.700195312 666.700195312 m 1xe4
 533 666.700195312 l 1
 533 466.700195312 l 1xe2
 599.700195312 466.700195312 l 1
 599.700195312 333.299804688 l 1xe4
 533 333.299804688 l 1
 533 133.299804688 l 1xe2
 599.700195312 133.299804688 l 1
 599.700195312 0 l 1
 399.700195312 0 l 1xe4
 399.700195312 333.299804688 l 1
 266.400390625 333.299804688 l 1xea
 266.400390625 0 l 1
 66.400390625 0 l 1
 66.400390625 133.299804688 l 1xf0
 133.099609375 133.299804688 l 1
 133.099609375 333.299804688 l 1xe8
 66.400390625 333.299804688 l 1
 66.400390625 466.700195312 l 1xf0
 133.099609375 466.700195312 l 1
 133.099609375 666.700195312 l 1xe8
 66.400390625 666.700195312 l 1
 66.400390625 800 l 1
 266.400390625 800 l 1xf0
 266.400390625 466.700195312 l 1
 399.700195312 466.700195312 l 1xea
 399.700195312 800 l 1
 599.700195312 800 l 1
 599.700195312 666.700195312 l 1xe4
EndSplineSet
Validated: 1
EndChar

StartChar: I
Encoding: 41 73 42
Width: 666
VWidth: 0
Flags: W
HStem: 0 133.3<66.4004 266.3 399.7 599.7> 666.7 133.3<66.4004 266.3 399.7 599.7>
VStem: 266.3 133.4<133.3 666.7>
LayerCount: 2
Back
Fore
SplineSet
66.400390625 800 m 1
 599.700195312 800 l 1
 599.700195312 666.700195312 l 1
 399.700195312 666.700195312 l 1
 399.700195312 133.299804688 l 1
 599.700195312 133.299804688 l 1
 599.700195312 0 l 1
 66.400390625 0 l 1
 66.400390625 133.299804688 l 1
 266.299804688 133.299804688 l 1
 266.299804688 666.700195312 l 1
 66.400390625 666.700195312 l 1
 66.400390625 800 l 1
EndSplineSet
Validated: 1
EndChar

StartChar: J
Encoding: 42 74 43
Width: 666
VWidth: 0
Flags: W
HStem: 0 133.4<266.3 466.3> 133.4 133.3<66.2998 133> 666.7 133.3<332.9 466.2>
VStem: 66.2998 200<133.4 266.7> 466.3 133.4<133.4 666.7>
LayerCount: 2
Back
Fore
SplineSet
599.599609375 800 m 1xb8
 599.700195312 0 l 1
 233 0 l 2xb8
 183 0 133 50 133 100 c 2
 133 133.400390625 l 1
 66.2998046875 133.400390625 l 1
 66.2998046875 266.700195312 l 1
 266.299804688 266.700195312 l 1x78
 266.299804688 133.400390625 l 1
 466.299804688 133.400390625 l 1
 466.200195312 666.700195312 l 1
 332.900390625 666.700195312 l 1
 332.900390625 800 l 1
 599.599609375 800 l 1xb8
EndSplineSet
Validated: 1
EndChar

StartChar: K
Encoding: 43 75 44
Width: 666
VWidth: 0
Flags: W
HStem: 0 133.4<66.2998 133 266.4 333 533.1 599.6> 333.3 133.4<66.2998 133 266.3 400> 666.7 133.3<66.2998 133 266.3 333 533.1 599.6>
VStem: 66.2998 266.7<0 133.3 666.7 800> 133 133.4<133.4 333.3 466.7 666.7> 400 199.6<0 133.3 666.7 800> 400 133.1<133.3 333.3 467.809 666.7>
LayerCount: 2
Back
Fore
SplineSet
533.099609375 475.599609375 m 2xe2
 533.099609375 442.299804688 499.799804688 408.900390625 466.400390625 408.900390625 c 1
 499.799804688 408.900390625 533.099609375 375.5 533.099609375 342.200195312 c 2
 533.099609375 133.299804688 l 1xe2
 599.599609375 133.299804688 l 1
 599.599609375 0 l 1
 400 0 l 1xe4
 400 333.299804688 l 1
 266.299804688 333.299804688 l 1
 266.400390625 133.299804688 l 1xea
 333 133.299804688 l 1
 333 0 l 1
 66.2998046875 0 l 1
 66.2998046875 133.400390625 l 1xf0
 133 133.400390625 l 1
 133 333.400390625 l 1xe8
 66.2998046875 333.400390625 l 1
 66.2998046875 466.700195312 l 1xf0
 133 466.700195312 l 1
 133 666.700195312 l 1xe8
 66.2998046875 666.700195312 l 1
 66.2998046875 800 l 1
 333 800 l 1
 333 666.700195312 l 1
 266.299804688 666.700195312 l 1
 266.299804688 466.700195312 l 1
 400 466.700195312 l 1xf2
 400 800 l 1
 599.599609375 800 l 1
 599.599609375 666.700195312 l 1xe4
 533.099609375 666.700195312 l 1
 533.099609375 475.599609375 l 2xe2
EndSplineSet
Validated: 1
EndChar

StartChar: L
Encoding: 44 76 45
Width: 666
VWidth: 0
Flags: W
HStem: 0 200<466.3 599.7> 0 133.3<66.2998 133 266.3 466.3> 666.7 133.3<66.2998 133>
VStem: 66.2998 200<666.7 800> 133 133.3<133.3 666.7> 466.3 133.4<133.3 200>
LayerCount: 2
Back
Fore
SplineSet
466.299804688 200 m 1xac
 599.700195312 200 l 1
 599.700195312 0 l 1xac
 66.2998046875 0 l 1
 66.2998046875 133.299804688 l 1x74
 133 133.299804688 l 1
 133 666.700195312 l 1x6c
 66.2998046875 666.700195312 l 1
 66.2998046875 800 l 1
 266.299804688 800 l 1x74
 266.299804688 133.299804688 l 1
 466.299804688 133.299804688 l 1x6c
 466.299804688 200 l 1xac
EndSplineSet
Validated: 1
EndChar

StartChar: M
Encoding: 45 77 46
Width: 666
VWidth: 0
Flags: W
HStem: 0 133.3<66.4004 133 533 599.7> 666.7 133.3<66.4004 133 533 599.7>
VStem: 66.4004 200<0 133.3> 133 133.4<133.3 533.3> 399.7 200<0 133.3> 399.7 133.3<133.3 533.3>
LayerCount: 2
Back
Fore
SplineSet
599.700195312 666.700195312 m 1xe8
 533 666.700195312 l 1
 533 133.299804688 l 1xc4
 599.700195312 133.299804688 l 1
 599.700195312 0 l 1xc8
 533 0 l 1xc4
 399.700195312 0 l 1
 399.700195312 133.299804688 l 1xc8
 399.700195312 533.299804688 l 1
 333 466.700195312 l 1
 266.400390625 533.299804688 l 1xd4
 266.400390625 133.299804688 l 1
 266.400390625 0 l 1xe0
 133 0 l 1xd0
 66.400390625 0 l 1
 66.400390625 133.299804688 l 1xe0
 133 133.299804688 l 1
 133 666.700195312 l 1xd0
 66.400390625 666.700195312 l 1
 66.400390625 800 l 1
 199.700195312 800 l 1
 333 666.700195312 l 1
 466.400390625 800 l 1
 599.700195312 800 l 1
 599.700195312 666.700195312 l 1xe8
EndSplineSet
Validated: 1
EndChar

StartChar: N
Encoding: 46 78 47
Width: 666
VWidth: 0
Flags: W
HStem: 0 133.3<66.4004 133 266.4 333 533 599.7> 666.7 133.3<66.4004 132.1 266.4 333 533 599.7>
VStem: 66.4004 266.6<0 133.3 666.7 800> 133 133.4<133.3 395.8 600 666.7> 399.7 200<0.0996094 133.4 666.6 799.9> 399.7 133.3<133.4 197.9 400 666.6>
LayerCount: 2
Back
Fore
SplineSet
533 666.599609375 m 1xc4
 533 133.400390625 l 1xc4
 599.700195312 133.400390625 l 1
 599.700195312 0.099609375 l 1
 399.700195312 0.099609375 l 1xc8
 399.700195312 197.900390625 l 1
 266.400390625 395.799804688 l 1
 266.400390625 133.299804688 l 1xd4
 333 133.299804688 l 1
 333 0 l 1
 66.400390625 0 l 1
 66.400390625 133.299804688 l 1xe0
 133 133.299804688 l 1xd0
 132.099609375 666.700195312 l 1
 66.400390625 666.700195312 l 1
 66.400390625 800 l 1
 333 800 l 1
 333 666.700195312 l 1xe0
 266.400390625 666.700195312 l 1
 266.400390625 600 l 1
 399.700195312 400 l 1
 399.700195312 800 l 1xd4
 599.700195312 799.900390625 l 1
 599.700195312 666.599609375 l 1xc8
 533 666.599609375 l 1xc4
EndSplineSet
Validated: 1
EndChar

StartChar: O
Encoding: 47 79 48
Width: 666
VWidth: 0
Flags: W
HStem: 0 133.3<66.4004 133 266.4 399.7 533 599.7> 666.7 133.3<66.4004 133 266.4 399.7 533 599.7>
VStem: 133 133.4<133.4 666.7> 399.7 133.3<133.3 666.7>
LayerCount: 2
Back
Fore
SplineSet
599.700195312 666.700195312 m 1
 533 666.700195312 l 1
 533 133.299804688 l 1
 599.700195312 133.299804688 l 1
 599.700195312 0 l 1
 66.400390625 0 l 1
 66.400390625 133.400390625 l 1
 133 133.400390625 l 1
 133 666.700195312 l 1
 66.400390625 666.700195312 l 1
 66.400390625 800 l 1
 599.700195312 800 l 1
 599.700195312 666.700195312 l 1
399.700195312 133.299804688 m 1
 399.700195312 666.700195312 l 1
 266.400390625 666.700195312 l 1
 266.400390625 133.299804688 l 1
 399.700195312 133.299804688 l 1
EndSplineSet
Validated: 1
EndChar

StartChar: P
Encoding: 48 80 49
Width: 666
VWidth: 0
Flags: W
HStem: 0 133.4<66.2998 133 266.3 333> 333.3 133.4<66.2998 133 266.3 466.3> 666.7 133.3<66.2998 133 266.3 466.3>
VStem: 133 133.3<133.4 333.3 466.7 666.7> 466.3 133.3<466.7 666.7>
LayerCount: 2
Back
Fore
SplineSet
499.599609375 800 m 2
 549.649877126 800 599.599760884 750.100383891 599.599760884 700.150651439 c 0
 599.599609375 700 l 2
 599.599609375 433.299804688 l 2
 599.599609375 383.299804688 549.599609375 333.299804688 499.599609375 333.299804688 c 2
 266.299804688 333.299804688 l 1
 266.299804688 133.299804688 l 1
 333 133.299804688 l 1
 333 0 l 1
 66.2998046875 0 l 1
 66.2998046875 133.400390625 l 1
 133 133.400390625 l 1
 133 333.400390625 l 1
 66.2998046875 333.400390625 l 1
 66.2998046875 466.700195312 l 1
 133 466.700195312 l 1
 133 666.700195312 l 1
 66.2998046875 666.700195312 l 1
 66.2998046875 800 l 1
 499.599609375 800 l 2
266.299804688 666.700195312 m 1
 266.299804688 466.700195312 l 1
 466.299804688 466.700195312 l 1
 466.299804688 666.700195312 l 1
 266.299804688 666.700195312 l 1
EndSplineSet
Validated: 1
EndChar

StartChar: Q
Encoding: 49 81 50
Width: 666
VWidth: 0
Flags: W
HStem: 0 133.3<66.2998 133 266.3 399.7 533 599.6> 200 133.3<333 399.6 533 599.7> 666.7 133.3<66.2998 133 266.3 399.6 533 599.7>
VStem: 133 133.3<133.4 666.7> 399.6 133.4<133.3 200 333.3 666.7>
LayerCount: 2
Back
Fore
SplineSet
599.700195312 666.700195312 m 1
 533 666.700195312 l 1
 533 333.299804688 l 1
 599.700195312 333.299804688 l 1
 599.700195312 200 l 1
 533 200 l 1
 533 133.299804688 l 1
 599.599609375 133.299804688 l 1
 599.599609375 0 l 1
 66.2998046875 0 l 1
 66.2998046875 133.400390625 l 1
 133 133.400390625 l 1
 133 666.700195312 l 1
 66.2998046875 666.700195312 l 1
 66.2998046875 800 l 1
 599.700195312 800 l 1
 599.700195312 666.700195312 l 1
399.599609375 333.299804688 m 1
 399.599609375 666.700195312 l 1
 266.299804688 666.700195312 l 1
 266.299804688 133.299804688 l 1
 399.700195312 133.299804688 l 1
 399.700195312 200 l 1
 333 200 l 1
 333 333.299804688 l 1
 399.599609375 333.299804688 l 1
EndSplineSet
Validated: 1
EndChar

StartChar: R
Encoding: 50 82 51
Width: 666
VWidth: 0
Flags: W
HStem: 0 133.4<66.2998 133 266.4 333 533.1 599.6> 333.3 133.4<66.2998 133 266.3 400> 666.7 133.3<66.2998 133 266.3 400 533.1 599.6>
VStem: 133 133.4<133.4 333.3 466.7 666.7> 400 199.6<0 133.3> 400 133.1<133.3 333.3 466.7 666.7>
LayerCount: 2
Back
Fore
SplineSet
599.599609375 800 m 1xf8
 599.599609375 666.700195312 l 1xf8
 533.099609375 666.700195312 l 1
 533.200195312 466.700195312 l 2
 533.200195312 433.299804688 499.799804688 400 466.5 400 c 1
 499.900390625 400 533.200195312 366.599609375 533.200195312 333.299804688 c 2
 533.099609375 133.299804688 l 1xf4
 599.599609375 133.299804688 l 1
 599.599609375 0 l 1
 400 0 l 1xf8
 400 333.299804688 l 1xf4
 266.299804688 333.299804688 l 1
 266.400390625 133.299804688 l 1
 333 133.299804688 l 1
 333 0 l 1
 66.2998046875 0 l 1
 66.2998046875 133.400390625 l 1
 133 133.400390625 l 1
 133 333.400390625 l 1
 66.2998046875 333.400390625 l 1
 66.2998046875 466.700195312 l 1
 133 466.700195312 l 1
 133 666.700195312 l 1
 66.2998046875 666.700195312 l 1
 66.2998046875 800 l 1
 599.599609375 800 l 1xf8
266.299804688 466.700195312 m 1
 400 466.700195312 l 1
 400 666.700195312 l 1xf4
 399.599609375 666.700195312 l 1
 266.299804688 666.700195312 l 1
 266.299804688 466.700195312 l 1
EndSplineSet
Validated: 1
EndChar

StartChar: S
Encoding: 51 83 52
Width: 666
VWidth: 0
Flags: W
HStem: 0 133.3<199.6 466.3> 333.3 133.4<199.7 466.3> 533.3 133.4<466.3 599.6> 666.7 133.3<199.7 333>
VStem: 66.2998 133.4<133.3 266.7 466.7 666.7> 466.3 133.4<133.3 333.3 533.3 533.4>
LayerCount: 2
Back
Fore
SplineSet
466.299804688 533.299804688 m 1xec
 466.299804688 533.400390625 l 1
 333 533.400390625 l 1
 333 666.700195312 l 1
 199.700195312 666.700195312 l 1
 199.700195312 466.700195312 l 1
 499.700195312 466.700195312 l 2
 549.700195312 466.700195312 599.700195312 416.700195312 599.700195312 366.700195312 c 2
 599.700195312 133.299804688 l 1
 599.700195312 0 l 1
 66.400390625 0 l 1
 66.2998046875 0 l 1
 66.2998046875 266.700195312 l 1
 199.599609375 266.700195312 l 1
 199.599609375 133.299804688 l 1
 466.299804688 133.299804688 l 1
 466.299804688 333.299804688 l 1
 166.299804688 333.299804688 l 2
 116.299804688 333.299804688 66.2998046875 383.299804688 66.2998046875 433.299804688 c 2
 66.2998046875 800 l 1
 466.299804688 800 l 1xdc
 466.299804688 666.700195312 l 1
 599.599609375 666.700195312 l 1
 599.599609375 533.299804688 l 1
 466.299804688 533.299804688 l 1xec
EndSplineSet
Validated: 1
EndChar

StartChar: T
Encoding: 52 84 53
Width: 666
VWidth: 0
Flags: W
HStem: 0 133.3<199.7 266.3 399.7 466.3> 533.3 266.7<66.4004 199.7 466.3 599.7> 666.7 133.3<199.7 266.3 399.7 466.3>
VStem: 66.4004 133.3<533.3 666.7> 266.3 133.4<133.3 666.7> 466.3 133.4<533.3 666.7>
LayerCount: 2
Back
Fore
SplineSet
66.400390625 800 m 1xdc
 599.700195312 800 l 1
 599.700195312 533.299804688 l 1
 466.299804688 533.299804688 l 1xdc
 466.299804688 666.700195312 l 1
 399.700195312 666.700195312 l 1
 399.700195312 133.299804688 l 1
 466.299804688 133.299804688 l 1
 466.299804688 0 l 1
 199.700195312 0 l 1
 199.700195312 133.299804688 l 1
 266.299804688 133.299804688 l 1
 266.299804688 666.700195312 l 1
 199.700195312 666.700195312 l 1xbc
 199.700195312 533.299804688 l 1
 66.400390625 533.299804688 l 1
 66.400390625 800 l 1xdc
EndSplineSet
Validated: 1
EndChar

StartChar: U
Encoding: 53 85 54
Width: 666
VWidth: 0
Flags: W
HStem: 0 133.3<66.4004 133 266.4 399.7 533 599.7> 666.7 133.3<66.4004 133 533 599.7>
VStem: 66.4004 200<666.7 800> 133 133.4<133.3 666.7> 399.7 200<666.7 800> 399.7 133.3<133.3 666.7>
LayerCount: 2
Back
Fore
SplineSet
599.700195312 666.700195312 m 1xc8
 533 666.700195312 l 1
 533 133.299804688 l 1xc4
 599.700195312 133.299804688 l 1
 599.700195312 0 l 1
 66.400390625 0 l 1
 66.400390625 133.299804688 l 1xe8
 133 133.299804688 l 1
 133 666.700195312 l 1xd0
 66.400390625 666.700195312 l 1
 66.400390625 800 l 1
 266.400390625 800 l 1xe0
 266.400390625 133.299804688 l 1
 399.700195312 133.299804688 l 1xd4
 399.700195312 800 l 1
 599.700195312 800 l 1
 599.700195312 666.700195312 l 1xc8
EndSplineSet
Validated: 1
EndChar

StartChar: V
Encoding: 54 86 55
Width: 666
VWidth: 0
Flags: W
HStem: 0 133.3<199.7 233 433 466.4> 666.7 133.3<66.4004 99.7002 233 266.4 399.7 433 566.3 599.7>
VStem: 66.4004 200<666.7 800> 399.7 200<666.7 800>
LayerCount: 2
Back
Fore
SplineSet
599.700195312 666.700195312 m 1
 566.299804688 666.700195312 l 1
 433 133.299804688 l 1
 466.400390625 133.299804688 l 1
 466.400390625 0 l 1
 199.700195312 0 l 1
 199.700195312 133.299804688 l 1
 233 133.299804688 l 1
 99.7001953125 666.700195312 l 1
 66.400390625 666.700195312 l 1
 66.400390625 800 l 1
 266.400390625 800 l 1
 266.400390625 666.700195312 l 1
 233 666.700195312 l 1
 333 266.700195312 l 1
 433 666.700195312 l 1
 399.700195312 666.700195312 l 1
 399.700195312 800 l 1
 599.700195312 800 l 1
 599.700195312 666.700195312 l 1
EndSplineSet
Validated: 1
EndChar

StartChar: W
Encoding: 55 87 56
Width: 666
VWidth: 0
Flags: W
HStem: 0 133.3<66.4004 133 533 599.7> 666.7 133.3<66.4004 133 533 599.7>
VStem: 66.4004 200<666.7 800> 133 133.4<266.7 666.7> 399.7 200<666.7 800> 399.7 133.3<266.7 666.7>
LayerCount: 2
Back
Fore
SplineSet
66.400390625 133.299804688 m 1xe8
 133 133.299804688 l 1
 133 666.700195312 l 1xd0
 66.400390625 666.700195312 l 1
 66.400390625 800 l 1xe0
 133 800 l 1xd0
 266.400390625 800 l 1
 266.400390625 666.700195312 l 1xe0
 266.400390625 266.700195312 l 1
 333 333.299804688 l 1
 399.700195312 266.700195312 l 1xd4
 399.700195312 666.700195312 l 1
 399.700195312 800 l 1xc8
 533 800 l 1xc4
 599.700195312 800 l 1
 599.700195312 666.700195312 l 1xc8
 533 666.700195312 l 1
 533 133.299804688 l 1xc4
 599.700195312 133.299804688 l 1
 599.700195312 0 l 1
 466.400390625 0 l 1
 333 133.299804688 l 1
 199.700195312 0 l 1
 66.400390625 0 l 1
 66.400390625 133.299804688 l 1xe8
EndSplineSet
Validated: 1
EndChar

StartChar: X
Encoding: 56 88 57
Width: 666
VWidth: 0
Flags: W
HStem: 0 133.3<66.4004 133 533 599.7> 666.7 133.3<66.4004 133 533 599.7>
VStem: 66.4004 199.899<0 133.3 666.7 800> 399.7 200<0 133.3 666.7 800>
LayerCount: 2
Back
Fore
SplineSet
533 666.700195312 m 1
 399.700195312 400 l 1
 533 133.299804688 l 1
 599.700195312 133.299804688 l 1
 599.700195312 0 l 1
 399.700195312 0 l 1
 399.700195312 133.299804688 l 1
 333 266.700195312 l 1
 266.299804688 133.299804688 l 1
 266.299804688 0 l 1
 66.400390625 0 l 1
 66.400390625 133.299804688 l 1
 133 133.299804688 l 1
 266.299804688 400 l 1
 133 666.700195312 l 1
 66.400390625 666.700195312 l 1
 66.400390625 800 l 1
 266.299804688 800 l 1
 266.299804688 666.700195312 l 1
 333 533.299804688 l 1
 399.700195312 666.700195312 l 1
 399.700195312 800 l 1
 599.700195312 800 l 1
 599.700195312 666.700195312 l 1
 533 666.700195312 l 1
EndSplineSet
Validated: 1
EndChar

StartChar: Y
Encoding: 57 89 58
Width: 666
VWidth: 0
Flags: W
HStem: 0 133.3<199.7 266.4 399.7 466.4> 666.7 133.3<66.4004 133 533 599.7>
VStem: 66.4004 200<666.7 800> 266.4 133.3<133.3 400> 399.7 200<666.7 800>
LayerCount: 2
Back
Fore
SplineSet
399.700195312 800 m 1xe8
 599.700195312 800 l 1
 599.700195312 666.700195312 l 1xe8
 533 666.700195312 l 1
 399.700195312 400 l 1
 399.700195312 133.299804688 l 1
 466.400390625 133.299804688 l 1
 466.400390625 0 l 1
 199.700195312 0 l 1
 199.700195312 133.299804688 l 1
 266.400390625 133.299804688 l 1
 266.400390625 400 l 1xd0
 133 666.700195312 l 1
 66.400390625 666.700195312 l 1
 66.400390625 800 l 1
 266.400390625 800 l 1
 266.400390625 666.700195312 l 1
 333 533.299804688 l 1
 399.700195312 666.700195312 l 1
 399.700195312 800 l 1xe8
EndSplineSet
Validated: 1
EndChar

StartChar: Z
Encoding: 58 90 59
Width: 666
VWidth: 0
Flags: W
HStem: 0 133.3<233 466.4> 333.3 133.4<66.4004 203.9 462.2 599.7> 666.7 133.3<199.7 433>
VStem: 66.4004 133.3<533.3 666.7> 466.4 133.3<133.3 266.7>
CounterMasks: 1 e0
LayerCount: 2
Back
Fore
SplineSet
599.700195312 800 m 1
 599.700195312 666.700195312 l 1
 462.200195312 466.700195312 l 1
 599.700195312 466.700195312 l 1
 599.700195312 333.299804688 l 1
 370.5 333.299804688 l 1
 233 133.299804688 l 1
 466.400390625 133.299804688 l 1
 466.400390625 266.700195312 l 1
 599.700195312 266.700195312 l 1
 599.700195312 0 l 1
 66.400390625 0 l 1
 66.400390625 133.299804688 l 1
 203.900390625 333.299804688 l 1
 66.400390625 333.299804688 l 1
 66.400390625 466.700195312 l 1
 295.5 466.700195312 l 1
 433 666.700195312 l 1
 199.700195312 666.700195312 l 1
 199.700195312 533.299804688 l 1
 66.400390625 533.299804688 l 1
 66.400390625 800 l 1
 599.700195312 800 l 1
EndSplineSet
Validated: 1
EndChar

StartChar: bracketleft
Encoding: 59 91 60
Width: 666
VWidth: 0
Flags: W
HStem: 0 133.3<366.4 433> 666.7 133.3<366.4 433>
VStem: 233 200<0 133.3 666.7 800> 233 133.4<133.3 666.7>
LayerCount: 2
Back
Fore
SplineSet
433 133.299804688 m 1xe0
 433 0 l 1
 233 0 l 1
 233 800 l 1
 433 800 l 1
 433 666.700195312 l 1xe0
 366.400390625 666.700195312 l 1
 366.400390625 133.299804688 l 1xd0
 433 133.299804688 l 1xe0
EndSplineSet
Validated: 1
EndChar

StartChar: backslash
Encoding: 60 92 61
Width: 666
VWidth: 0
Flags: W
HStem: 0 21G<393.033 533> 0 21G<393.033 533> 780 20G<133 272.967> 780 20G<133 272.967>
LayerCount: 2
Back
Fore
SplineSet
533 0 m 1xa0
 399.700195312 0 l 1
 133 800 l 1
 266.299804688 800 l 1
 533 0 l 1xa0
EndSplineSet
Validated: 1
EndChar

StartChar: bracketright
Encoding: 61 93 62
Width: 666
VWidth: 0
Flags: W
HStem: 0 133.3<233 299.6> 666.7 133.3<233 299.6>
VStem: 233 200<0 133.3 666.7 800> 299.6 133.4<133.3 666.7>
LayerCount: 2
Back
Fore
SplineSet
233 133.299804688 m 1xe0
 299.599609375 133.299804688 l 1
 299.599609375 666.700195312 l 1xd0
 233 666.700195312 l 1
 233 800 l 1
 433 800 l 1
 433 0 l 1
 233 0 l 1
 233 133.299804688 l 1xe0
EndSplineSet
Validated: 1
EndChar

StartChar: asciicircum
Encoding: 62 94 63
Width: 666
VWidth: 0
Flags: W
HStem: 666.7 133.3<199.7 266.4 399.7 466.4>
LayerCount: 2
Back
Fore
SplineSet
599.700195312 666.700195312 m 1
 399.700195312 666.700195312 l 1
 333 733.299804688 l 1
 266.400390625 666.700195312 l 1
 66.400390625 666.700195312 l 1
 199.700195312 800 l 1
 466.400390625 800 l 1
 599.700195312 666.700195312 l 1
EndSplineSet
Validated: 1
EndChar

StartChar: underscore
Encoding: 63 95 64
Width: 666
VWidth: 0
Flags: W
HStem: 0 133.3<66.4004 599.7>
LayerCount: 2
Back
Fore
SplineSet
66.400390625 0 m 1
 66.400390625 133.299804688 l 1
 599.700195312 133.299804688 l 1
 599.700195312 0 l 1
 66.400390625 0 l 1
EndSplineSet
Validated: 1
EndChar

StartChar: grave
Encoding: 64 96 65
Width: 666
VWidth: 0
Flags: W
HStem: 666.7 133.3<199.7 266.4>
LayerCount: 2
Back
Fore
SplineSet
399.700195312 666.700195312 m 1
 199.700195312 666.700195312 l 1
 66.400390625 800 l 1
 266.400390625 800 l 1
 399.700195312 666.700195312 l 1
EndSplineSet
Validated: 1
EndChar

StartChar: a
Encoding: 65 97 66
Width: 666
VWidth: 0
Flags: HMW
LayerCount: 2
Back
Fore
SplineSet
499.599609375 800 m 2
 549.599609375 800 599.599609375 750 599.700195312 700 c 2
 599.700195312 0 l 1
 466.599609375 0 l 1
 466.599609375 133.299804688 l 1
 199.5 133.299804688 l 1
 199.5 0 l 1
 66.2998046875 0 l 1
 66.2998046875 700 l 2
 66.2998046875 750 116.299804688 799.900390625 166.299804688 800 c 2
 499.599609375 800 l 2
199.5 266.700195312 m 1
 466.599609375 266.700195312 l 1
 466.599609375 666.700195312 l 1
 199.5 666.700195312 l 1
 199.5 266.700195312 l 1
EndSplineSet
Validated: 1
EndChar

StartChar: b
Encoding: 66 98 67
Width: 666
VWidth: 0
Flags: W
HStem: 0 133.4<199.6 466.5> 466.7 133.3<199.6 366.4> 666.7 133.3<199.6 366.4>
VStem: 66.2998 133.3<133.4 466.7 600 666.7> 366.4 133.199<600 666.7> 466.5 133.1<133.4 466.7>
LayerCount: 2
Back
Fore
SplineSet
499.599609375 600 m 1xf8
 549.649877126 600 599.599760884 550.100383892 599.599760884 500.15065144 c 0
 599.599609375 500 l 2
 599.599609375 100 l 2xf4
 599.599609375 50 549.599609375 0 499.599609375 0 c 2
 66.2998046875 0 l 1
 66.2998046875 800 l 1
 399.599609375 800 l 2
 449.599609375 799.900390625 499.5 750 499.5 700 c 2
 499.599609375 600 l 1xf8
199.599609375 666.700195312 m 1
 199.599609375 600 l 1
 366.400390625 600 l 1
 366.400390625 666.700195312 l 1xf8
 199.599609375 666.700195312 l 1
199.599609375 466.700195312 m 1
 199.599609375 133.400390625 l 1
 466.5 133.400390625 l 1
 466.5 466.700195312 l 1xf4
 199.599609375 466.700195312 l 1
EndSplineSet
Validated: 1
EndChar

StartChar: c
Encoding: 67 99 68
Width: 666
VWidth: 0
Flags: W
HStem: 0 133.3<199.9 266.4> 133.3 133.3<399.7 466.4> 533.4 133.3<399.7 466.4> 666.7 133.3<199.9 266.4>
VStem: 66.4004 133.5<133.3 666.7> 466.4 133.3<0 133.3 666.7 800>
LayerCount: 2
Back
Fore
SplineSet
466.400390625 800 m 1x1c
 599.700195312 800 l 1x1c
 599.700195312 633.400390625 l 2
 599.700195312 583.400390625 549.700195312 533.400390625 499.700195312 533.400390625 c 2
 366.400390625 533.400390625 l 2x2c
 316.400390625 533.400390625 266.400390625 583.400390625 266.400390625 633.400390625 c 2
 266.400390625 666.700195312 l 1
 199.900390625 666.700195312 l 1
 199.900390625 133.299804688 l 1
 266.400390625 133.299804688 l 1x9c
 266.400390625 166.599609375 l 2
 266.400390625 216.599609375 316.400390625 266.599609375 366.400390625 266.599609375 c 2
 499.700195312 266.599609375 l 2x4c
 549.700195312 266.599609375 599.700195312 216.599609375 599.700195312 166.599609375 c 2
 599.700195312 0 l 1
 466.400390625 0 l 1x8c
 466.400390625 133.299804688 l 1
 399.700195312 133.299804688 l 1x4c
 399.700195312 100 l 2
 399.700195312 50 349.700195312 0 299.700195312 0 c 2
 166.400390625 0 l 2
 116.400390625 0 66.400390625 50 66.400390625 100 c 2
 66.400390625 700 l 2
 66.400390625 750 116.400390625 800 166.400390625 800 c 2
 299.700195312 800 l 2x9c
 349.700195312 800 399.700195312 750 399.700195312 700 c 2
 399.700195312 666.700195312 l 1
 466.400390625 666.700195312 l 1x2c
 466.400390625 800 l 1x1c
EndSplineSet
Validated: 1
EndChar

StartChar: d
Encoding: 68 100 69
Width: 666
VWidth: 0
Flags: W
HStem: 0 133.3<199.6 333> 666.7 133.3<199.6 333>
VStem: 66.2998 133.3<133.3 666.7> 466.3 133.3<265.7 534.3>
LayerCount: 2
Back
Fore
SplineSet
599.700195312 567.599609375 m 1
 599.599609375 567.599609375 l 1
 599.599609375 232.400390625 l 2
 599.599609375 182.400390625 549.599609375 132.400390625 499.599609375 132.400390625 c 2
 466.299804688 132.400390625 l 1
 466.299804688 100 l 2
 466.299804688 50 416.299804688 0 366.299804688 0 c 2
 66.2998046875 0 l 1
 66.2998046875 800 l 1
 199.599609375 800 l 1
 366.400390625 800 l 2
 416.400390625 800 466.400390625 750 466.400390625 700 c 2
 466.400390625 667.599609375 l 1
 499.700195312 667.599609375 l 2
 549.700195312 667.599609375 599.700195312 617.599609375 599.700195312 567.599609375 c 1
466.299804688 265.700195312 m 1
 466.299804688 534.299804688 l 1
 433 534.299804688 l 2
 383 534.299804688 333 584.299804688 333 634.299804688 c 2
 333 666.700195312 l 1
 199.599609375 666.700195312 l 1
 199.599609375 133.299804688 l 1
 333 133.299804688 l 1
 333 165.700195312 l 2
 333 215.700195312 383 265.700195312 433 265.700195312 c 2
 466.299804688 265.700195312 l 1
EndSplineSet
Validated: 1
EndChar

StartChar: e
Encoding: 69 101 70
Width: 666
VWidth: 0
Flags: W
HStem: 0 133.3<199.7 599.7> 466.7 133.3<199.7 399.7> 666.7 133.3<199.7 599.7>
VStem: 66.4004 133.3<133.3 466.7 600 666.7>
LayerCount: 2
Back
Fore
SplineSet
599.700195312 666.700195312 m 1
 199.700195312 666.700195312 l 1
 199.700195312 600 l 1
 399.700195312 600 l 1
 399.700195312 466.700195312 l 1
 199.700195312 466.700195312 l 1
 199.700195312 133.299804688 l 1
 599.700195312 133.299804688 l 1
 599.700195312 0 l 1
 66.400390625 0 l 1
 66.400390625 800 l 1
 599.700195312 800 l 1
 599.700195312 666.700195312 l 1
EndSplineSet
Validated: 1
EndChar

StartChar: f
Encoding: 70 102 71
Width: 666
VWidth: 0
Flags: W
HStem: 0 21G<66.4004 199.7> 466.7 133.3<199.7 399.7> 666.7 133.3<199.7 599.7>
VStem: 66.4004 133.3<0 466.7 600 666.7>
LayerCount: 2
Back
Fore
SplineSet
199.700195312 466.700195312 m 1
 199.700195312 0 l 1
 66.400390625 0 l 1
 66.400390625 800 l 1
 599.700195312 800 l 1
 599.700195312 666.700195312 l 1
 199.700195312 666.700195312 l 1
 199.700195312 600 l 1
 399.700195312 600 l 1
 399.700195312 466.700195312 l 1
 199.700195312 466.700195312 l 1
EndSplineSet
Validated: 1
EndChar

StartChar: g
Encoding: 71 103 72
Width: 666
VWidth: 0
Flags: W
HStem: 0 133.4<199.7 466.3> 466.7 133.3<266.3 466.3> 666.7 133.3<199.7 599.7>
VStem: 66.2998 133.4<133.4 666.7> 466.3 133.3<133.4 466.7>
LayerCount: 2
Back
Fore
SplineSet
199.700195312 666.700195312 m 1
 199.700195312 133.400390625 l 1
 466.299804688 133.400390625 l 1
 466.299804688 466.700195312 l 1
 266.299804688 466.700195312 l 1
 266.299804688 600 l 1
 599.599609375 600 l 1
 599.599609375 100 l 2
 599.599609375 50 549.700195312 0 499.700195312 0 c 2
 166.099609375 0 l 2
 116.200195312 0.2001953125 66.2998046875 50.099609375 66.2998046875 100 c 2
 66.2998046875 700 l 2
 66.2998046875 749.900390625 116.200195312 799.900390625 166.099609375 800 c 2
 599.700195312 800 l 1
 599.700195312 666.700195312 l 1
 199.700195312 666.700195312 l 1
EndSplineSet
Validated: 1
EndChar

StartChar: i
Encoding: 73 105 73
Width: 666
VWidth: 0
Flags: W
HStem: 0 133.3<66.4004 266.3 399.7 599.7> 666.7 133.3<66.4004 266.3 399.7 599.7>
VStem: 266.3 133.4<133.3 666.7>
LayerCount: 2
Back
Fore
SplineSet
66.400390625 800 m 1
 599.700195312 800 l 1
 599.700195312 666.700195312 l 1
 399.700195312 666.700195312 l 1
 399.700195312 133.299804688 l 1
 599.700195312 133.299804688 l 1
 599.700195312 0 l 1
 66.400390625 0 l 1
 66.400390625 133.299804688 l 1
 266.299804688 133.299804688 l 1
 266.299804688 666.700195312 l 1
 66.400390625 666.700195312 l 1
 66.400390625 800 l 1
EndSplineSet
Validated: 1
EndChar

StartChar: j
Encoding: 74 106 74
Width: 666
VWidth: 0
Flags: W
HStem: 0 133.4<199.6 466.3> 200 133.3<199.6 266.3> 666.7 133.3<333 466.3>
VStem: 66.2998 133.3<133.4 200> 266.3 132.9<333.3 400> 466.3 133.3<133.4 666.7>
LayerCount: 2
Back
Fore
SplineSet
333 800 m 1
 599.599609375 800 l 1
 599.599609375 100 l 2
 599.599609375 50 549.700195312 0 499.700195312 0 c 2
 166.299804688 0 l 2
 116.299804688 0 66.2998046875 50 66.2998046875 100 c 2
 66.2998046875 233.299804688 l 2
 66.2998046875 283.299804688 116.299804688 333.299804688 166.299804688 333.299804688 c 2
 265.799804688 333.299804688 l 1
 266.299804688 333.299804688 l 1
 266.299804688 400 l 1
 399.200195312 400 l 1
 399.200195312 300 l 2
 399.200195312 250 349.200195312 200 299.200195312 200 c 2
 199.599609375 200 l 1
 199.599609375 133.400390625 l 1
 466.299804688 133.400390625 l 1
 466.299804688 666.700195312 l 1
 333 666.700195312 l 1
 333 800 l 1
EndSplineSet
Validated: 1
EndChar

StartChar: k
Encoding: 75 107 75
Width: 666
VWidth: 0
Flags: W
HStem: 0 21G<66.4004 199.7 466.6 599.7> 466.7 133.3<199.7 366.5> 780 20G<66.4004 199.7 366.5 499.6>
VStem: 66.4004 133.3<0 466.7 600 800> 366.5 133.1<600 800> 466.6 133.101<0 466.7>
LayerCount: 2
Back
Fore
SplineSet
499.700195312 600 m 2xf8
 549.700195312 600 599.700195312 550 599.700195312 500 c 2
 599.700195312 0 l 1
 466.599609375 0 l 1
 466.599609375 466.700195312 l 1xf4
 199.700195312 466.700195312 l 1
 199.700195312 0 l 1
 66.400390625 0 l 1
 66.400390625 800 l 1
 199.700195312 800 l 1
 199.700195312 600 l 1
 366.5 600 l 1
 366.5 800 l 1
 499.599609375 800 l 1
 499.599609375 600 l 1
 499.700195312 600 l 2xf8
EndSplineSet
Validated: 1
EndChar

StartChar: l
Encoding: 76 108 76
Width: 666
VWidth: 0
Flags: W
HStem: 0 133.4<199.8 266.3> 133.3 133.4<399.6 466.3> 666.7 133.3<199.8 266.3>
VStem: 66.2998 133.5<133.4 666.7> 466.3 133.3<0 133.3>
LayerCount: 2
Back
Fore
SplineSet
499.599609375 266.700195312 m 2x78
 549.649877126 266.700195312 599.599760884 216.800579204 599.599760884 166.750563579 c 0
 599.599609375 166.599609375 l 2
 599.599609375 0 l 1
 466.299804688 0 l 1xb8
 466.299804688 133.299804688 l 1
 399.599609375 133.299804688 l 1x78
 399.599609375 100 l 2
 399.599609375 50 349.599609375 0 299.599609375 0 c 2
 166.299804688 0 l 2
 116.299804688 0 66.2998046875 50 66.2998046875 100 c 2
 66.2998046875 700 l 2
 66.2998046875 750 116.299804688 800 166.299804688 800 c 2
 266.299804688 800 l 1
 266.299804688 666.700195312 l 1
 199.799804688 666.700195312 l 1
 199.799804688 133.400390625 l 1
 266.299804688 133.400390625 l 1xb8
 266.299804688 166.700195312 l 2
 266.299804688 216.700195312 316.299804688 266.700195312 366.299804688 266.700195312 c 2
 499.599609375 266.700195312 l 2x78
EndSplineSet
Validated: 1
EndChar

StartChar: m
Encoding: 77 109 77
Width: 666
VWidth: 0
Flags: W
HStem: 0 21G<66.2998 199.7 266.4 399.7 466.1 599.7> 666.9 133.1<199.7 266.4 399.7 456.4>
VStem: 66.2998 133.4<0 666.9> 266.4 133.3<0 666.9> 456.4 143.3<200.07 666.9> 466.4 133.3<0 466.83>
LayerCount: 2
Back
Fore
SplineSet
199.700195312 0 m 1xf8
 66.2998046875 0 l 1
 66.2998046875 700 l 2
 66.2998046875 750 116.299804688 800 166.299804688 800 c 2
 266.299804688 800 l 2
 299.700195312 800 333 766.700195312 333 733.299804688 c 1
 333 766.700195312 366.299804688 800 399.700195312 800 c 2
 499.700195312 800 l 2
 549.700195312 800 599.700195312 750 599.700195312 700 c 2
 599.700195312 0 l 1
 466.400390625 0 l 1xf4
 456.400390625 666.900390625 l 1
 399.700195312 666.900390625 l 1
 399.700195312 0 l 1
 266.400390625 0 l 1
 266.400390625 666.900390625 l 1
 266.299804688 666.900390625 l 1
 199.700195312 666.900390625 l 1
 199.700195312 0 l 1xf8
EndSplineSet
Validated: 1
EndChar

StartChar: n
Encoding: 78 110 78
Width: 666
VWidth: 0
Flags: W
HStem: 0.0996094 133.101<399.7 466.4> 666.9 133.1<199.7 266.4>
VStem: 66.4004 133.3<0 666.9> 266.5 133.2<133.2 666.9> 466.4 133.199<133.2 800>
LayerCount: 2
Back
Fore
SplineSet
466.400390625 800 m 1
 599.700195312 800 l 1
 599.599609375 100 l 2
 599.5 50 549.599609375 0.099609375 499.599609375 0.099609375 c 2
 366.5 0.099609375 l 2
 316.5 0.099609375 266.599609375 50 266.5 100 c 2
 266.400390625 666.900390625 l 1
 199.700195312 666.900390625 l 1
 199.700195312 0 l 1
 66.400390625 0 l 1
 66.400390625 700 l 2
 66.400390625 750 116.400390625 800 166.400390625 800 c 2
 299.400390625 800 l 2
 349.400390625 800 399.400390625 750 399.400390625 700 c 2
 399.700195312 133.200195312 l 1
 466.400390625 133.200195312 l 1
 466.400390625 800 l 1
EndSplineSet
Validated: 1
EndChar

StartChar: o
Encoding: 79 111 79
Width: 666
VWidth: 0
Flags: W
HStem: 0 133.3<299.6 366.3> 666.7 133.3<299.6 366.3>
VStem: 66.2998 133.3<265.7 534.3> 466.3 133.4<265.7 534.3>
LayerCount: 2
Back
Fore
SplineSet
499.599609375 667.599609375 m 1
 549.599609375 667.599609375 599.700195312 617.599609375 599.700195312 567.599609375 c 2
 599.700195312 232.400390625 l 2
 599.700195312 182.400390625 549.700195312 132.400390625 499.700195312 132.400390625 c 1
 499.700195312 100 l 2
 499.700195312 50 449.700195312 0 399.700195312 0 c 2
 333 0 l 1
 266.299804688 0 l 2
 216.299804688 0 166.299804688 50 166.299804688 100 c 2
 166.299804688 132.400390625 l 1
 116.299804688 132.400390625 66.2998046875 182.400390625 66.2998046875 232.400390625 c 2
 66.2998046875 567.599609375 l 2
 66.2998046875 617.599609375 116.299804688 667.599609375 166.299804688 667.599609375 c 1
 166.299804688 700 l 2
 166.299804688 750 216.299804688 800 266.299804688 800 c 2
 333 800 l 1
 399.599609375 800 l 2
 449.599609375 800 499.599609375 750 499.599609375 700 c 2
 499.599609375 667.599609375 l 1
466.299804688 265.700195312 m 1
 466.299804688 534.299804688 l 1
 416.299804688 534.299804688 366.299804688 584.299804688 366.299804688 634.299804688 c 2
 366.299804688 666.700195312 l 1
 299.599609375 666.700195312 l 1
 299.599609375 634.299804688 l 2
 299.599609375 584.299804688 249.599609375 534.299804688 199.599609375 534.299804688 c 1
 199.599609375 265.700195312 l 1
 249.599609375 265.700195312 299.599609375 215.700195312 299.599609375 165.700195312 c 2
 299.599609375 133.299804688 l 1
 366.299804688 133.299804688 l 1
 366.299804688 165.700195312 l 2
 366.299804688 215.700195312 416.299804688 265.700195312 466.299804688 265.700195312 c 1
EndSplineSet
Validated: 1
EndChar

StartChar: p
Encoding: 80 112 80
Width: 666
VWidth: 0
Flags: HMW
LayerCount: 2
Back
Fore
SplineSet
499.599609375 800 m 2
 549.599609375 800 599.599609375 750 599.599609375 700 c 2
 599.599609375 233.299804688 l 2
 599.599609375 183.299804688 549.599609375 133.299804688 499.599609375 133.299804688 c 2
 199.599609375 133.299804688 l 1
 199.599609375 0 l 1
 66.2998046875 0 l 1
 66.2998046875 800 l 1
 499.599609375 800 l 2
199.599609375 666.700195312 m 1
 199.599609375 266.700195312 l 1
 466.299804688 266.700195312 l 1
 466.299804688 666.700195312 l 1
 199.599609375 666.700195312 l 1
EndSplineSet
Validated: 1
EndChar

StartChar: q
Encoding: 81 113 81
Width: 666
VWidth: 0
Flags: W
HStem: 0 133.3<66.4004 266.4 399.7 599.7> 200 133.4<199.7 266.4 399.7 466.4> 666.7 133.3<199.7 466.4>
VStem: 66.4004 133.3<333.4 666.7> 266.4 133.3<133.3 200 333.4 466.7> 466.4 133.3<333.4 666.7>
CounterMasks: 1 1c
LayerCount: 2
Back
Fore
SplineSet
499.700195312 800 m 2
 549.700195312 800 599.700195312 750 599.700195312 700 c 2
 599.700195312 300 l 2
 599.700195312 250 549.700195312 200 499.700195312 200 c 2
 399.700195312 200 l 1
 399.700195312 133.299804688 l 1
 599.700195312 133.299804688 l 1
 599.700195312 -0.099609375 l 1
 399.700195312 -0.099609375 l 2
 366.700195312 -0.099609375 333.799804688 32.5 333.099609375 65.5 c 1
 332.400390625 65.5 l 1
 331.700195312 32.7001953125 299.200195312 0.400390625 266.400390625 0 c 2
 66.400390625 0 l 1
 66.400390625 133.299804688 l 1
 266.400390625 133.299804688 l 1
 266.400390625 200 l 1
 166.400390625 200 l 2
 116.400390625 200 66.400390625 250 66.400390625 300 c 2
 66.400390625 700 l 2
 66.400390625 750 116.400390625 800 166.400390625 800 c 2
 499.700195312 800 l 2
266.400390625 466.700195312 m 1
 399.700195312 466.700195312 l 1
 399.700195312 333.400390625 l 1
 466.400390625 333.400390625 l 1
 466.400390625 666.700195312 l 1
 199.700195312 666.700195312 l 1
 199.700195312 333.400390625 l 1
 266.400390625 333.400390625 l 1
 266.400390625 466.700195312 l 1
EndSplineSet
Validated: 1
EndChar

StartChar: r
Encoding: 82 114 82
Width: 666
VWidth: 0
Flags: W
HStem: 0 21G<66.2998 199.6 466.3 599.6> 466.7 133.3<199.6 366.4> 666.7 133.3<199.6 366.4>
VStem: 66.2998 133.3<0 466.7 600 666.7> 366.4 133.199<600 666.7> 466.3 133.3<0 466.7>
LayerCount: 2
Back
Fore
SplineSet
499.599609375 600 m 1xf8
 549.649877126 600 599.599760884 550.100383892 599.599760884 500.15065144 c 0
 599.599609375 500 l 2
 599.599609375 0 l 1
 466.299804688 0 l 1xf4
 466.5 466.700195312 l 1
 199.599609375 466.700195312 l 1
 199.599609375 0 l 1
 66.2998046875 0 l 1
 66.2998046875 800 l 1
 399.599609375 800 l 2
 449.599609375 799.900390625 499.5 750 499.5 700 c 2
 499.599609375 600 l 1xf8
366.400390625 600 m 1xf8
 366.400390625 666.700195312 l 1
 199.599609375 666.700195312 l 1
 199.599609375 600 l 1
 366.400390625 600 l 1xf8
EndSplineSet
Validated: 1
EndChar

StartChar: s
Encoding: 83 115 83
Width: 666
VWidth: 0
Flags: W
HStem: 0 133.3<199.6 466.4> 233.3 133.4<199.6 266.3> 433.3 133.4<399.7 466.4> 666.7 133.3<199.6 466.3>
VStem: 66.2998 133.3<133.3 200 366.7 666.7> 266.3 133.4<366.7 433.3> 466.4 133.199<133.3 433.3 600 666.7>
LayerCount: 2
Back
Fore
SplineSet
599.700195312 600 m 1
 466.299804688 600 l 1
 466.299804688 666.700195312 l 1
 199.599609375 666.700195312 l 1
 199.599609375 366.700195312 l 1
 266.299804688 366.700195312 l 1
 266.299804688 466.700195312 l 2
 266.299804688 516.700195312 316.299804688 566.700195312 366.299804688 566.700195312 c 2
 499.599609375 566.700195312 l 2
 549.599609375 566.700195312 599.599609375 516.700195312 599.599609375 466.700195312 c 2
 599.599609375 100 l 2
 599.599609375 50 549.599609375 0 499.599609375 0 c 2
 166.299804688 0 l 2
 116.299804688 0 66.2998046875 50 66.2998046875 100 c 2
 66.2998046875 200 l 1
 199.599609375 200 l 1
 199.599609375 133.299804688 l 1
 466.400390625 133.299804688 l 1
 466.400390625 433.299804688 l 1
 399.700195312 433.299804688 l 1
 399.700195312 333.299804688 l 2
 399.700195312 284 351.099609375 234.900390625 301.900390625 233.400390625 c 1
 301.900390625 233.299804688 l 1
 166.299804688 233.299804688 l 2
 116.299804688 233.299804688 66.2998046875 283.299804688 66.2998046875 333.299804688 c 2
 66.2998046875 700 l 2
 66.2998046875 750 116.299804688 800 166.299804688 800 c 2
 499.700195312 800 l 2
 549.700195312 800 599.700195312 750 599.700195312 700 c 2
 599.700195312 600 l 1
EndSplineSet
Validated: 1
EndChar

StartChar: t
Encoding: 84 116 84
Width: 666
VWidth: 0
Flags: W
HStem: 0 21G<266.3 399.6> 533.3 266.7<108.715 199.6 466.3 557.206> 666.7 133.3<199.6 266.3 399.6 466.3>
VStem: 66.2998 133.3<533.3 666.7> 266.3 133.3<0 666.7> 466.3 133.3<533.4 666.7>
LayerCount: 2
Back
Fore
SplineSet
499.599609375 800 m 2xdc
 549.649877126 800 599.599760884 750.100383891 599.599760884 700.150651439 c 0
 599.599609375 700 l 2
 599.599609375 533.400390625 l 1
 466.299804688 533.400390625 l 1
 466.299804688 666.700195312 l 1
 399.599609375 666.700195312 l 1
 399.599609375 0 l 1
 266.299804688 0 l 1
 266.299804688 666.700195312 l 1
 199.599609375 666.700195312 l 1xbc
 199.599609375 533.299804688 l 1
 66.2998046875 533.299804688 l 1
 66.2998046875 700 l 2
 66.2998046875 750 116.299804688 800 166.299804688 800 c 2
 499.599609375 800 l 2xdc
EndSplineSet
Validated: 1
EndChar

StartChar: u
Encoding: 85 117 85
Width: 666
VWidth: 0
Flags: W
HStem: 0 133.3<199.7 466.6> 666.7 133.3<66.4004 133 533 599.7>
VStem: 66.2998 200.101<487.525 579.175 666.7 757.585> 66.2998 133.4<133.3 466.7> 399.7 199.899<487.462 580.298 666.7 757.585> 466.6 133<133.3 466.6>
LayerCount: 2
Back
Fore
SplineSet
599.700195312 533.299804688 m 1xc8
 599.599609375 533.299804688 l 1xc8
 599.599609375 100 l 2
 599.599609375 50 549.599609375 0 499.599609375 0 c 2
 166.299804688 0 l 2
 116.299804688 0 66.2998046875 50 66.2998046875 100 c 2xd4
 66.2998046875 533.299804688 l 2
 66.2998046875 566.700195312 99.7001953125 600 133 600 c 1
 133 666.700195312 l 1
 66.400390625 666.700195312 l 1
 66.400390625 800 l 1
 166.400390625 800 l 2
 216.400390625 800 266.400390625 750 266.400390625 700 c 2
 266.400390625 533.400390625 l 2xe0
 266.400390625 500 233 466.700195312 199.700195312 466.700195312 c 1
 199.700195312 133.299804688 l 1
 466.599609375 133.299804688 l 1
 466.599609375 466.599609375 l 1xd4
 466.400390625 466.599609375 l 2
 433 466.599609375 399.700195312 500 399.700195312 533.299804688 c 2
 399.700195312 700 l 2
 399.700195312 750 449.700195312 800 499.700195312 800 c 2
 599.700195312 800 l 1
 599.700195312 666.700195312 l 1
 533 666.700195312 l 1
 533 600 l 1
 566.400390625 600 599.700195312 566.599609375 599.700195312 533.299804688 c 1xc8
EndSplineSet
Validated: 1
EndChar

StartChar: v
Encoding: 86 118 86
Width: 666
VWidth: 0
Flags: W
HStem: 0 133.3<299.6 366.3> 780 20G<66.2998 199.6 466.3 599.7>
VStem: 66.2998 133.3<400 800> 466.3 133.4<400 800>
LayerCount: 2
Back
Fore
SplineSet
466.299804688 800 m 1
 599.700195312 800 l 1
 599.700195312 466.599609375 l 2
 599.700195312 400 599.700195312 372.700195312 589.099609375 352.200195312 c 2
 589.099609375 352.200195312 589.099609375 352.200195312 475.799804688 58.900390625 c 0
 460.400390625 19 423 0 386.900390625 0 c 2
 279.099609375 0 l 2
 243 0 205.599609375 19 190.200195312 59 c 0
 76.900390625 352.299804688 76.900390625 352.299804688 76.900390625 352.299804688 c 2
 66.2998046875 372.799804688 66.2998046875 400 66.2998046875 466.700195312 c 2
 66.2998046875 800 l 1
 199.599609375 800 l 1
 199.599609375 400 l 1
 299.599609375 133.299804688 l 1
 366.299804688 133.299804688 l 1
 466.299804688 400 l 1
 466.299804688 800 l 1
EndSplineSet
Validated: 1
EndChar

StartChar: w
Encoding: 87 119 87
Width: 666
VWidth: 0
Flags: W
HStem: 0 133.1<209.6 266.3 399.6 466.3> 780 20G<66.2998 199.9 266.3 399.6 466.3 599.7>
VStem: 66.2998 143.3<133.1 599.93> 66.2998 133.3<333.17 800> 266.3 133.3<133.1 800> 466.3 133.4<133.1 800>
LayerCount: 2
Back
Fore
SplineSet
466.299804688 800 m 1xec
 599.700195312 800 l 1
 599.700195312 100 l 2
 599.700195312 50 549.700195312 0 499.700195312 0 c 2
 399.700195312 0 l 2
 366.299804688 0 333 33.400390625 333 66.7001953125 c 1
 333 33.2998046875 299.599609375 0 266.299804688 0 c 2
 166.299804688 0 l 2
 116.299804688 0 66.2998046875 50 66.2998046875 100 c 2
 66.2998046875 800 l 1
 199.599609375 800 l 1xdc
 209.599609375 133.099609375 l 1
 266.299804688 133.099609375 l 1
 266.299804688 800 l 1
 399.599609375 800 l 1
 399.599609375 133.099609375 l 1
 399.700195312 133.099609375 l 1
 466.299804688 133.099609375 l 1
 466.299804688 800 l 1xec
EndSplineSet
Validated: 1
EndChar

StartChar: x
Encoding: 88 120 88
Width: 666
VWidth: 0
Flags: W
HStem: 0 21G<66.4004 199.7 466.3 599.6> 333.4 133.199<299.7 366.3> 780 20G<66.4004 199.7 466.4 599.7>
VStem: 66.4004 133.3<0 66.7002 733.3 800> 466.3 133.3<0 66.7002 733.3 800>
LayerCount: 2
Back
Fore
SplineSet
599.700195312 733.299804688 m 2
 599.099609375 716.099609375 597.5 707.099609375 589 685.700195312 c 0
 476.700195312 395 586.900390625 680.299804688 478.700195312 400.099609375 c 1
 586.900390625 119.900390625 476.700195312 405.200195312 589 114.5 c 0
 597.400390625 93 599 83.900390625 599.599609375 66.7001953125 c 2
 599.599609375 0 l 1
 466.299804688 0 l 1
 466.299804688 66.7001953125 l 1
 366.299804688 333.400390625 l 1
 333 333.400390625 l 1
 299.700195312 333.400390625 l 1
 199.700195312 66.7001953125 l 1
 199.700195312 0 l 1
 66.400390625 0 l 1
 66.400390625 66.599609375 l 2
 67 83.7998046875 68.7001953125 92.900390625 77 114.400390625 c 0
 189.299804688 405.099609375 79.099609375 119.799804688 187.299804688 400 c 1
 79 680.200195312 189.200195312 394.900390625 77 685.5 c 0
 68.599609375 707 67 716.099609375 66.400390625 733.299804688 c 2
 66.400390625 800 l 1
 199.700195312 800 l 1
 199.700195312 733.299804688 l 1
 299.700195312 466.599609375 l 1
 333 466.599609375 l 1
 366.400390625 466.599609375 l 1
 466.400390625 733.299804688 l 1
 466.400390625 800 l 1
 599.700195312 800 l 1
 599.700195312 733.299804688 l 2
EndSplineSet
Validated: 1
EndChar

StartChar: y
Encoding: 89 121 89
Width: 666
VWidth: 0
Flags: W
HStem: 0 21G<266.5 399.8> 133.3 133.4<199.9 266.5 399.8 466.5> 780 20G<66.5961 199.9 466.5 599.8>
VStem: 66.5 133.4<266.7 800> 266.5 133.3<0 133.3> 466.5 133.3<266.7 800>
LayerCount: 2
Back
Fore
SplineSet
466.5 800 m 1
 599.799804688 800 l 1
 599.799804688 233.299804688 l 2
 599.799804688 183.299804688 549.799804688 133.299804688 499.799804688 133.299804688 c 2
 399.799804688 133.299804688 l 1
 399.799804688 0 l 1
 266.5 0 l 1
 266.5 133.299804688 l 1
 166.5 133.299804688 l 2
 116.5 133.299804688 66.5 183.299804688 66.5 233.299804688 c 2
 66.599609375 800 l 1
 199.900390625 800 l 1
 199.900390625 266.700195312 l 1
 466.5 266.700195312 l 1
 466.5 800 l 1
EndSplineSet
Validated: 1
EndChar

StartChar: z
Encoding: 90 122 90
Width: 666
VWidth: 0
Flags: W
HStem: 0 133.3<233 466.3> 333.4 133.3<133 204.1 461.9 533> 666.7 133.399<199.6 433>
VStem: 66.2998 133.3<533.4 666.7> 466.3 133.3<133.3 266.7>
LayerCount: 2
Back
Fore
SplineSet
466.299804688 133.299804688 m 1
 466.299804688 266.700195312 l 1
 599.599609375 266.700195312 l 1
 599.599609375 100 l 2
 599.599609375 50.400390625 550.299804688 0.7998046875 500.700195312 0.099609375 c 1
 500.700195312 0 l 1
 166.299804688 0 l 2
 111.299804688 0 66.2998046875 45 66.2998046875 100 c 0
 66.2998046875 121.700195312 73 142.799804688 85.2001953125 160.599609375 c 2
 204.099609375 333.400390625 l 1
 133 333.400390625 l 1
 133 466.700195312 l 1
 295.200195312 466.700195312 l 1
 433 666.700195312 l 1
 199.599609375 666.700195312 l 1
 199.599609375 533.400390625 l 1
 66.2998046875 533.400390625 l 1
 66.2998046875 700.099609375 l 2
 66.2998046875 750.099609375 116.299804688 800.099609375 166.299804688 800.099609375 c 2
 499.700195312 800.099609375 l 2
 554.700195312 800.099609375 599.700195312 755.099609375 599.700195312 700.099609375 c 0
 599.700195312 678.400390625 593 657.299804688 580.799804688 639.5 c 2
 461.900390625 466.700195312 l 1
 533 466.700195312 l 1
 533 333.299804688 l 1
 370.799804688 333.299804688 l 1
 233 133.299804688 l 1
 466.299804688 133.299804688 l 1
EndSplineSet
Validated: 1
EndChar

StartChar: braceleft
Encoding: 91 123 91
Width: 666
VWidth: 0
Flags: W
HStem: 0 133.3<399.7 466.4> 333.4 133.3<199.7 266.4> 666.7 133.3<399.7 466.4>
VStem: 266.4 200<42.4149 133.3 666.7 757.585> 266.4 133.3<133.3 333.4 466.7 666.7>
LayerCount: 2
Back
Fore
SplineSet
266.400390625 333.299804688 m 1xe8
 266.400390625 333.400390625 l 1
 199.700195312 333.400390625 l 1
 199.700195312 466.700195312 l 1
 266.400390625 466.700195312 l 1xe8
 266.400390625 700 l 2
 266.400390625 750 316.400390625 800 366.400390625 800 c 2
 466.400390625 800 l 1
 466.400390625 666.700195312 l 1xf0
 399.700195312 666.700195312 l 1
 399.700195312 466.700195312 l 2
 399.700195312 433.299804688 366.299804688 400 333 400 c 1
 366.400390625 400 399.700195312 366.599609375 399.700195312 333.299804688 c 2
 399.700195312 133.299804688 l 1xe8
 466.400390625 133.299804688 l 1
 466.400390625 0 l 1
 366.400390625 0 l 2
 316.400390625 0 266.400390625 50 266.400390625 100 c 2xf0
 266.400390625 333.299804688 l 1xe8
EndSplineSet
Validated: 1
EndChar

StartChar: bar
Encoding: 92 124 92
Width: 666
VWidth: 0
Flags: W
HStem: 0 21G<266.3 399.6> 0 21G<266.3 399.6> 780 20G<266.3 399.6> 780 20G<266.3 399.6>
VStem: 266.3 133.3<0 800>
LayerCount: 2
Back
Fore
SplineSet
266.299804688 0 m 1xa8
 266.299804688 800 l 1
 399.599609375 800 l 1
 399.599609375 0 l 1
 266.299804688 0 l 1xa8
EndSplineSet
Validated: 1
EndChar

StartChar: braceright
Encoding: 93 125 93
Width: 666
VWidth: 0
Flags: W
HStem: 0 133.3<199.7 266.4> 333.4 133.3<399.7 466.4> 666.7 133.3<199.7 266.4>
VStem: 199.7 200<42.4149 133.3 666.7 757.585> 266.4 133.3<133.3 333.4 466.7 666.7>
LayerCount: 2
Back
Fore
SplineSet
399.700195312 333.299804688 m 1xe8
 399.700195312 100 l 2
 399.700195312 50 349.700195312 0 299.700195312 0 c 2
 199.700195312 0 l 1
 199.700195312 133.299804688 l 1xf0
 266.400390625 133.299804688 l 1
 266.400390625 333.299804688 l 2
 266.400390625 366.599609375 299.700195312 400 333.100585938 400 c 1
 299.80078125 400 266.400390625 433.299804688 266.400390625 466.700195312 c 2
 266.400390625 666.700195312 l 1xe8
 199.700195312 666.700195312 l 1
 199.700195312 800 l 1
 299.700195312 800 l 2
 349.700195312 800 399.700195312 750 399.700195312 700 c 2xf0
 399.700195312 466.700195312 l 1
 466.400390625 466.700195312 l 1
 466.400390625 333.400390625 l 1
 399.700195312 333.400390625 l 1
 399.700195312 333.299804688 l 1xe8
EndSplineSet
Validated: 1
EndChar

StartChar: asciitilde
Encoding: 94 126 94
Width: 666
VWidth: 0
Flags: W
HStem: 666.7 133.3<66.4004 599.7>
LayerCount: 2
Back
Fore
SplineSet
66.400390625 666.700195312 m 1
 66.400390625 800 l 1
 599.700195312 800 l 1
 599.700195312 666.700195312 l 1
 66.400390625 666.700195312 l 1
EndSplineSet
Validated: 1
EndChar

StartChar: exclamdown
Encoding: 95 161 95
Width: 666
VWidth: 0
Flags: W
HStem: -0.0996094 133.3<199.7 266.4 399.801 466.4> 599.9 200.1<253.863 412.238>
VStem: 233.001 200.1<620.725 779.138> 266.4 133.4<133.2 466.601>
LayerCount: 2
Back
Fore
SplineSet
299.700195312 599.900390625 m 2xe0
 266.400390625 599.900390625 233.000976562 633.200195312 233.000976562 666.600585938 c 2
 233.000976562 733.30078125 l 2
 233.000976562 766.700195312 266.400390625 800 299.700195312 800 c 2
 366.400390625 800 l 2
 399.80078125 800 433.100585938 766.600585938 433.100585938 733.30078125 c 2
 433.100585938 666.600585938 l 2
 433.100585938 633.200195312 399.700195312 599.900390625 366.400390625 599.900390625 c 2
 299.700195312 599.900390625 l 2xe0
466.400390625 -0.099609375 m 1
 199.700195312 -0.099609375 l 1
 199.700195312 133.200195312 l 1
 266.400390625 133.200195312 l 1
 266.400390625 466.600585938 l 1
 266.500976562 466.600585938 l 1
 299.80078125 533.200195312 l 1
 366.500976562 533.200195312 l 1
 399.80078125 466.600585938 l 1
 399.80078125 133.200195312 l 1xd0
 466.400390625 133.200195312 l 1
 466.400390625 -0.099609375 l 1
EndSplineSet
Validated: 1
EndChar

StartChar: cent
Encoding: 96 162 96
Width: 666
VWidth: 0
Flags: W
HStem: 0 21G<266.3 399.7> 133.3 200<466.2 599.5> 133.3 133.4<66.2998 132.9 266.2 266.3 399.7 466.2> 466.7 200<466.2 599.5> 533.3 133.4<66.2998 132.9 266.2 266.3 399.7 466.2> 780 20G<266.3 399.7>
VStem: 132.9 133.3<266.7 533.3> 266.3 133.4<0 133.3 666.7 800> 466.2 133.3<266.7 333.3 466.7 533.3>
LayerCount: 2
Back
Fore
SplineSet
599.5 333.299804688 m 1xc780
 599.700195312 133.299804688 l 1
 399.700195312 133.299804688 l 1
 399.700195312 0 l 1
 266.299804688 0 l 1
 266.299804688 133.299804688 l 1
 66.2998046875 133.299804688 l 1
 66.2998046875 266.700195312 l 1
 132.900390625 266.700195312 l 1
 132.900390625 533.299804688 l 1
 66.2998046875 533.299804688 l 1
 66.2998046875 666.700195312 l 1
 266.299804688 666.700195312 l 1
 266.299804688 800 l 1
 399.700195312 800 l 1
 399.700195312 666.700195312 l 1
 599.700195312 666.700195312 l 1xaf80
 599.5 466.700195312 l 1
 466.200195312 466.700195312 l 1x9780
 466.200195312 533.299804688 l 1
 266.200195312 533.299804688 l 1
 266.200195312 266.700195312 l 1
 466.200195312 266.700195312 l 1xaf80
 466.200195312 333.299804688 l 1
 599.5 333.299804688 l 1xc780
EndSplineSet
Validated: 1
EndChar

StartChar: sterling
Encoding: 97 163 97
Width: 666
VWidth: 0
Flags: W
HStem: 0 133.3<66.4004 133 266.4 466.4> 333.3 133.4<66.4004 133 266.4 399.7> 666.7 133.3<266.4 333>
VStem: 133 200<666.7 800> 133 133.4<133.3 333.3 466.7 666.7> 466.4 133.3<133.3 333.3>
CounterMasks: 1 e0
LayerCount: 2
Back
Fore
SplineSet
466.400390625 333.299804688 m 1xec
 599.700195312 333.299804688 l 1
 599.700195312 0 l 1
 66.400390625 0 l 1
 66.400390625 133.299804688 l 1
 133 133.299804688 l 1
 133 333.299804688 l 1
 66.400390625 333.299804688 l 1
 66.400390625 466.700195312 l 1
 133 466.700195312 l 1xec
 133 800 l 1
 333 800 l 1
 333 666.700195312 l 1xf4
 266.400390625 666.700195312 l 1
 266.400390625 466.700195312 l 1
 399.700195312 466.700195312 l 1
 399.700195312 333.299804688 l 1
 266.400390625 333.299804688 l 1
 266.400390625 133.299804688 l 1
 466.400390625 133.299804688 l 1
 466.400390625 333.299804688 l 1xec
EndSplineSet
Validated: 1
EndChar

StartChar: currency
Encoding: 98 164 98
Width: 666
VWidth: 0
Flags: HMW
LayerCount: 2
Back
Fore
SplineSet
466.400390625 439.099609375 m 1
 466.400390625 360.900390625 l 1
 599.700195312 227.700195312 l 1
 505.400390625 133.400390625 l 1
 372.099609375 266.700195312 l 1
 294 266.700195312 l 1
 160.700195312 133.299804688 l 1
 66.400390625 227.599609375 l 1
 199.700195312 361 l 1
 199.700195312 439.099609375 l 1
 66.400390625 572.400390625 l 1
 160.700195312 666.700195312 l 1
 294 533.299804688 l 1
 372.099609375 533.299804688 l 1
 505.400390625 666.700195312 l 1
 599.700195312 572.400390625 l 1
 466.400390625 439.099609375 l 1
299.700195312 366.700195312 m 1
 366.400390625 366.700195312 l 1
 366.400390625 433.400390625 l 1
 299.700195312 433.400390625 l 1
 299.700195312 366.700195312 l 1
EndSplineSet
Validated: 1
EndChar

StartChar: yen
Encoding: 99 165 99
Width: 666
VWidth: 0
Flags: W
HStem: 0 133.3<199.7 266.4 399.7 466.4> 200 133.3<133.2 266.4 399.7 533.2> 400 133.3<133.2 199.7 466.4 533.2> 666.7 133.3<66.4004 133 533 599.7>
VStem: 66.4004 200<666.7 800> 266.4 133.3<133.3 200 333.3 400> 399.7 200<666.7 800>
LayerCount: 2
Back
Fore
SplineSet
599.700195312 666.700195312 m 1xfa
 533 666.700195312 l 1
 466.400390625 533.299804688 l 1
 533.200195312 533.299804688 l 1
 533.200195312 400 l 1
 399.700195312 400 l 1
 399.700195312 333.299804688 l 1
 533.200195312 333.299804688 l 1
 533.200195312 200 l 1
 399.700195312 200 l 1
 399.700195312 133.299804688 l 1
 466.400390625 133.299804688 l 1
 466.400390625 0 l 1
 199.700195312 0 l 1
 199.700195312 133.299804688 l 1
 266.400390625 133.299804688 l 1
 266.400390625 200 l 1
 133.200195312 200 l 1
 133.200195312 333.299804688 l 1
 266.400390625 333.299804688 l 1
 266.400390625 400 l 1xf4
 133.200195312 400 l 1
 133.200195312 533.299804688 l 1
 199.700195312 533.299804688 l 1
 133 666.700195312 l 1
 66.400390625 666.700195312 l 1
 66.400390625 800 l 1
 266.400390625 800 l 1
 266.400390625 666.700195312 l 1
 333 533.299804688 l 1
 399.700195312 666.700195312 l 1
 399.700195312 800 l 1
 599.700195312 800 l 1
 599.700195312 666.700195312 l 1xfa
EndSplineSet
Validated: 1
EndChar

StartChar: brokenbar
Encoding: 100 166 100
Width: 666
VWidth: 0
Flags: W
HStem: 0 21G<266.6 399.9> 0 21G<266.6 399.9> 780 20G<266.6 399.9> 780 20G<266.6 399.9>
VStem: 266.6 133.301<0 266.7 533.3 800>
LayerCount: 2
Back
Fore
SplineSet
266.599609375 0 m 1x88
 266.599609375 266.700195312 l 1
 399.900390625 266.700195312 l 1
 399.900390625 0 l 1
 266.599609375 0 l 1x88
266.599609375 533.299804688 m 1
 266.599609375 800 l 1
 399.900390625 800 l 1x28
 399.900390625 533.299804688 l 1
 266.599609375 533.299804688 l 1
EndSplineSet
Validated: 1
EndChar

StartChar: section
Encoding: 101 167 101
Width: 666
VWidth: 0
Flags: HMW
LayerCount: 2
Back
Fore
SplineSet
166.400390625 800 m 2
 599.700195312 800 l 1
 599.700195312 600 l 1
 466.400390625 600 l 1
 466.400390625 666.700195312 l 1
 199.700195312 666.700195312 l 1
 199.700195312 566.700195312 l 1
 499.700195312 566.700195312 l 2
 549.700195312 566.700195312 599.700195312 516.700195312 599.700195312 466.700195312 c 2
 599.700195312 366.700195312 l 2
 599.700195312 333.299804688 566.299804688 300 533 300 c 1
 566.400390625 300 599.700195312 266.599609375 599.700195312 233.299804688 c 2
 599.700195312 100 l 2
 599.700195312 50 549.700195312 0 499.700195312 0 c 2
 66.400390625 0 l 1
 66.400390625 200 l 1
 199.700195312 200 l 1
 199.700195312 133.299804688 l 1
 466.400390625 133.299804688 l 1
 466.400390625 233.299804688 l 1
 166.400390625 233.299804688 l 2
 116.400390625 233.299804688 66.400390625 283.299804688 66.400390625 333.299804688 c 2
 66.400390625 433.299804688 l 2
 66.400390625 466.700195312 99.7001953125 500 133.099609375 500 c 1
 99.7001953125 500 66.400390625 533.299804688 66.400390625 566.700195312 c 2
 66.400390625 700 l 2
 66.400390625 750 116.400390625 800 166.400390625 800 c 2
200.700195312 433.400390625 m 1
 200.700195312 366.700195312 l 1
 466.400390625 366.700195312 l 1
 466.400390625 433.400390625 l 1
 200.700195312 433.400390625 l 1
EndSplineSet
Validated: 1
EndChar

StartChar: dieresis
Encoding: 102 168 102
Width: 666
VWidth: 0
Flags: W
HStem: 666.7 133.3<66.4004 199.7 466.4 599.7>
VStem: 66.4004 133.3<666.7 800> 466.4 133.3<666.7 800>
LayerCount: 2
Back
Fore
SplineSet
466.400390625 666.700195312 m 1
 466.400390625 800 l 1
 599.700195312 800 l 1
 599.700195312 666.700195312 l 1
 466.400390625 666.700195312 l 1
66.400390625 666.700195312 m 1
 66.400390625 800 l 1
 199.700195312 800 l 1
 199.700195312 666.700195312 l 1
 66.400390625 666.700195312 l 1
EndSplineSet
Validated: 1
EndChar

StartChar: copyright
Encoding: 103 169 103
Width: 666
VWidth: 0
Flags: W
HStem: 0 133.3<299.7 366.4> 666.7 133.3<299.7 366.4>
LayerCount: 2
Back
Fore
SplineSet
589.200195312 447.799804688 m 0
 597.5 426.299804688 599.200195312 417.200195312 599.700195312 400 c 0
 599.099609375 382.799804688 597.400390625 373.700195312 589.099609375 352.200195312 c 0
 475.799804688 58.900390625 589.099609375 352.200195312 475.799804688 58.900390625 c 0
 460.400390625 19 423 0 386.900390625 0 c 2
 279.099609375 0 l 2
 243 0 205.599609375 19.099609375 190.200195312 58.900390625 c 0
 76.900390625 352.200195312 190.200195312 58.900390625 76.900390625 352.200195312 c 0
 68.599609375 373.700195312 66.900390625 382.799804688 66.2998046875 400 c 0
 66.900390625 417.200195312 68.599609375 426.299804688 76.900390625 447.799804688 c 0
 190.299804688 741.099609375 76.900390625 447.799804688 190.299804688 741.099609375 c 0
 205.700195312 781 243.099609375 800 279.200195312 800 c 2
 386.900390625 800 l 2
 423.099609375 800 460.400390625 781 475.900390625 741.099609375 c 0
 589.200195312 447.799804688 475.900390625 741.099609375 589.200195312 447.799804688 c 0
366.400390625 133.299804688 m 1
 466.400390625 400 l 1
 366.400390625 666.700195312 l 1
 299.700195312 666.700195312 l 1
 199.700195312 400 l 1
 299.700195312 133.299804688 l 1
 366.400390625 133.299804688 l 1
EndSplineSet
Validated: 1
EndChar

StartChar: ordfeminine
Encoding: 104 170 104
Width: 666
VWidth: 0
Flags: HMW
LayerCount: 2
Back
Fore
SplineSet
132.099609375 200 m 1
 132.099609375 333.299804688 l 1
 532.099609375 333.299804688 l 1
 532.099609375 200 l 1
 132.099609375 200 l 1
532.099609375 733.400390625 m 1
 420.900390625 733.400390625 l 1
 454.299804688 633.299804688 l 1
 532.099609375 633.299804688 l 1
 532.099609375 566.700195312 l 1
 476.5 566.700195312 l 1
 509.900390625 466.599609375 l 1
 532.099609375 466.599609375 l 1
 532.099609375 400 l 1
 354.299804688 400 l 1
 354.299804688 466.599609375 l 1
 376.599609375 466.599609375 l 1
 343.200195312 566.700195312 l 1
 321 566.700195312 l 1
 287.700195312 466.599609375 l 1
 309.900390625 466.599609375 l 1
 309.900390625 400 l 1
 132.200195312 400 l 1
 132.099609375 466.599609375 l 1
 154.299804688 466.599609375 l 1
 187.700195312 566.700195312 l 1
 132.099609375 566.700195312 l 1
 132.099609375 633.299804688 l 1
 209.900390625 633.299804688 l 1
 243.299804688 733.400390625 l 1
 132.099609375 733.400390625 l 1
 132.099609375 800 l 1
 532.099609375 800 l 1
 532.099609375 733.400390625 l 1
EndSplineSet
Validated: 1
EndChar

StartChar: guillemotleft
Encoding: 105 171 105
Width: 666
VWidth: 0
Flags: W
LayerCount: 2
Back
Fore
SplineSet
599.700195312 733.299804688 m 1
 599.700195312 566.700195312 l 1
 421.900390625 400 l 1
 599.700195312 233.299804688 l 1
 599.700195312 66.7001953125 l 1
 333 316.700195312 l 1
 333 483.299804688 l 1
 599.700195312 733.299804688 l 1
333 566.700195312 m 1
 155.200195312 400 l 1
 333 233.299804688 l 1
 333 66.7001953125 l 1
 66.2998046875 316.700195312 l 1
 66.2998046875 483.299804688 l 1
 333 733.299804688 l 1
 333 566.700195312 l 1
EndSplineSet
Validated: 1
EndChar

StartChar: logicalnot
Encoding: 106 172 106
Width: 666
VWidth: 0
Flags: W
HStem: 266.8 199.9<466.5 599.8> 333.4 133.3<66.4004 466.5>
VStem: 466.5 133.3<266.8 333.4>
LayerCount: 2
Back
Fore
SplineSet
599.799804688 466.700195312 m 1xa0
 599.799804688 266.799804688 l 1
 466.5 266.799804688 l 1xa0
 466.5 333.400390625 l 1
 66.400390625 333.400390625 l 1
 66.400390625 466.700195312 l 1x60
 599.799804688 466.700195312 l 1xa0
EndSplineSet
Validated: 1
EndChar

StartChar: uni00AD
Encoding: 107 173 107
Width: 666
VWidth: 0
Flags: W
HStem: 333.4 133.3<133 533>
LayerCount: 2
Back
Fore
SplineSet
133 333.400390625 m 1
 133 466.700195312 l 1
 533 466.700195312 l 1
 533 333.400390625 l 1
 133 333.400390625 l 1
EndSplineSet
Validated: 1
EndChar

StartChar: registered
Encoding: 108 174 108
Width: 666
VWidth: 0
Flags: W
HStem: 0 21G<224.665 441.335> 780 20G<224.665 441.335>
LayerCount: 2
Back
Fore
SplineSet
433 800 m 1
 599.700195312 400 l 1
 433 0 l 1
 233 0 l 1
 66.2998046875 400 l 1
 233 800 l 1
 433 800 l 1
366.299804688 166.700195312 m 1
 466.299804688 400 l 1
 366.299804688 633.299804688 l 1
 299.599609375 633.299804688 l 1
 199.599609375 400 l 1
 299.599609375 166.700195312 l 1
 366.299804688 166.700195312 l 1
EndSplineSet
Validated: 1
EndChar

StartChar: macron
Encoding: 109 175 109
Width: 666
VWidth: 0
Flags: W
HStem: 666.7 133.3<66.4004 599.7>
LayerCount: 2
Back
Fore
SplineSet
66.400390625 666.700195312 m 1
 66.400390625 800 l 1
 599.700195312 800 l 1
 599.700195312 666.700195312 l 1
 66.400390625 666.700195312 l 1
EndSplineSet
Validated: 1
EndChar

StartChar: degree
Encoding: 110 176 110
Width: 666
VWidth: 0
Flags: W
HStem: 400 133.4<266.4 399.7> 666.7 133.3<266.4 399.7>
VStem: 133 133.4<533.4 666.7> 399.7 133.3<533.4 666.7>
LayerCount: 2
Back
Fore
SplineSet
266.400390625 666.700195312 m 1
 266.400390625 533.400390625 l 1
 399.700195312 533.400390625 l 1
 399.700195312 666.700195312 l 1
 266.400390625 666.700195312 l 1
533 700 m 2
 533 500 l 2
 533 450 483 400 433 400 c 2
 233 400 l 2
 183 400 133 450 133 500 c 2
 133 700 l 2
 133 750 183 800 233 800 c 2
 433 800 l 2
 483 800 533 750 533 700 c 2
EndSplineSet
Validated: 1
EndChar

StartChar: plusminus
Encoding: 111 177 111
Width: 666
VWidth: 0
Flags: W
HStem: 0 133.3<66.4004 599.7> 400 133.3<66.4004 266.4 399.6 599.7>
VStem: 266.4 133.199<200 400 533.3 733.3>
LayerCount: 2
Back
Fore
SplineSet
399.599609375 733.299804688 m 1
 399.599609375 533.299804688 l 1
 599.700195312 533.299804688 l 1
 599.700195312 400 l 1
 399.599609375 400 l 1
 399.599609375 200 l 1
 266.400390625 200 l 1
 266.400390625 400 l 1
 66.400390625 400 l 1
 66.400390625 533.299804688 l 1
 266.400390625 533.299804688 l 1
 266.400390625 733.299804688 l 1
 399.599609375 733.299804688 l 1
66.400390625 0 m 1
 66.400390625 133.299804688 l 1
 599.700195312 133.299804688 l 1
 599.700195312 0 l 1
 66.400390625 0 l 1
EndSplineSet
Validated: 1
EndChar

StartChar: NameMe.224
Encoding: 112 8776 112
Width: 666
VWidth: 0
Flags: W
HStem: 166.7 133.3<399.6 466.3> 233.4 133.3<199.6 266.3> 433.3 133.3<399.6 466.3> 500 133.3<199.6 266.3>
VStem: 66.2998 133.3<166.7 233.4 433.3 500> 466.3 133.4<300 366.7 566.6 633.3>
LayerCount: 2
Back
Fore
SplineSet
599.5 366.700195312 m 1x4c
 599.700195312 266.700195312 l 2
 599.700195312 216.700195312 549.700195312 166.700195312 499.700195312 166.700195312 c 2
 333 166.700195312 l 2x8c
 299.599609375 166.700195312 266.299804688 200.099609375 266.299804688 233.400390625 c 1
 199.599609375 233.400390625 l 1x4c
 199.599609375 166.700195312 l 1
 66.2998046875 166.700195312 l 1x8c
 66.2998046875 266.700195312 l 2
 66.2998046875 316.700195312 116.299804688 366.700195312 166.299804688 366.700195312 c 2
 332.900390625 366.700195312 l 2x4c
 366.299804688 366.700195312 399.599609375 333.299804688 399.599609375 300 c 1
 466.299804688 300 l 1x8c
 466.299804688 366.700195312 l 1
 599.5 366.700195312 l 1x4c
599.5 633.299804688 m 1x1c
 599.700195312 533.299804688 l 2
 599.700195312 483.299804688 549.700195312 433.299804688 499.700195312 433.299804688 c 2
 333 433.299804688 l 2x2c
 299.599609375 433.299804688 266.299804688 466.700195312 266.299804688 500 c 1
 199.599609375 500 l 1x1c
 199.599609375 433.299804688 l 1
 66.2998046875 433.299804688 l 1x2c
 66.2998046875 533.299804688 l 2
 66.2998046875 583.299804688 116.299804688 633.299804688 166.299804688 633.299804688 c 2
 332.900390625 633.299804688 l 2x1c
 366.299804688 633.299804688 399.599609375 599.900390625 399.599609375 566.599609375 c 1
 466.299804688 566.599609375 l 1x2c
 466.299804688 633.299804688 l 1
 599.5 633.299804688 l 1x1c
EndSplineSet
Validated: 1
EndChar

StartChar: NameMe.225
Encoding: 113 8260 113
Width: 666
VWidth: 0
Flags: W
HStem: 0 21G<66.4004 225.983> 0 21G<66.4004 225.983> 780 20G<440.118 599.7> 780 20G<440.118 599.7>
LayerCount: 2
Back
Fore
SplineSet
66.400390625 0 m 1xa0
 449.700195312 800 l 1
 599.700195312 800 l 1
 216.400390625 0 l 1
 66.400390625 0 l 1xa0
EndSplineSet
Validated: 1
EndChar

StartChar: acute
Encoding: 114 180 114
Width: 666
VWidth: 0
Flags: W
HStem: 666.7 133.3<399.7 466.4>
LayerCount: 2
Back
Fore
SplineSet
266.400390625 666.700195312 m 5
 399.700195312 800 l 5
 599.700195312 800 l 5
 466.400390625 666.700195312 l 5
 266.400390625 666.700195312 l 5
EndSplineSet
Validated: 1
EndChar

StartChar: mu
Encoding: 115 181 115
Width: 666
VWidth: 0
Flags: W
HStem: 0 133.3<266.3 466.3> 133.4 133.3<66.2998 133> 333.3 133.4<199.7 466.3> 533.3 133.4<533 599.7> 666.7 133.3<199.7 399.6>
VStem: 66.2998 200<133.4 266.7> 66.4004 133.3<466.7 666.7> 399.6 200.101<533.4 666.7> 466.3 133.4<133.3 333.3>
LayerCount: 2
Back
Fore
SplineSet
599.700195312 533.299804688 m 1xf080
 399.599609375 533.400390625 l 1
 399.599609375 666.700195312 l 1
 199.700195312 666.700195312 l 1
 199.700195312 466.700195312 l 1xeb
 499.700195312 466.700195312 l 2
 549.700195312 466.700195312 599.700195312 416.700195312 599.700195312 366.700195312 c 2
 599.700195312 0 l 1
 233 0 l 2
 183 0 133 50 133 100 c 2
 133 133.400390625 l 1
 66.2998046875 133.400390625 l 1
 66.2998046875 266.700195312 l 1
 266.299804688 266.700195312 l 1
 266.299804688 133.299804688 l 1xec80
 466.299804688 133.299804688 l 1
 466.299804688 333.299804688 l 1
 166.400390625 333.299804688 l 2
 116.400390625 333.299804688 66.400390625 383.299804688 66.400390625 433.299804688 c 2
 66.400390625 800 l 1
 433 800 l 2xea80
 483 800 533 750 533 700 c 2
 533 666.700195312 l 1
 599.700195312 666.700195312 l 1xf3
 599.700195312 533.299804688 l 1xf080
EndSplineSet
Validated: 1
EndChar

StartChar: paragraph
Encoding: 116 182 116
Width: 666
VWidth: 0
Flags: W
HStem: 0 21G<232.8 366.1 433 566.3> 666.7 133.3<199.3 232.8 366.1 433 566.3 599.6>
VStem: 66.2998 133<533.3 666.7> 232.8 133.3<0 400 533.3 666.7> 433 133.3<0 666.7>
LayerCount: 2
Back
Fore
SplineSet
599.700195312 800 m 1
 599.599609375 666.700195312 l 1
 566.299804688 666.700195312 l 1
 566.299804688 0 l 1
 433 0 l 1
 433 666.700195312 l 1
 366.099609375 666.700195312 l 1
 366.099609375 0 l 1
 232.799804688 0 l 1
 232.799804688 400 l 1
 66.2998046875 400 l 1
 66.2998046875 800 l 1
 599.700195312 800 l 1
232.799804688 533.299804688 m 1
 232.799804688 666.700195312 l 1
 199.299804688 666.700195312 l 1
 199.299804688 533.299804688 l 1
 232.799804688 533.299804688 l 1
EndSplineSet
Validated: 1
EndChar

StartChar: periodcentered
Encoding: 117 183 117
Width: 666
VWidth: 0
Flags: W
HStem: 299.9 200.1<259.425 417.838>
VStem: 238.6 200.101<320.763 479.137>
LayerCount: 2
Back
Fore
SplineSet
238.599609375 433.299804688 m 2
 238.599609375 466.700195312 271.900390625 500 305.299804688 500 c 2
 372 500 l 2
 405.400390625 500 438.700195312 466.599609375 438.700195312 433.299804688 c 2
 438.700195312 366.599609375 l 2
 438.700195312 333.200195312 405.299804688 299.900390625 372 299.900390625 c 2
 305.299804688 299.900390625 l 2
 271.900390625 299.900390625 238.599609375 333.299804688 238.599609375 366.599609375 c 2
 238.599609375 433.299804688 l 2
EndSplineSet
Validated: 1
EndChar

StartChar: cedilla
Encoding: 118 184 118
Width: 666
VWidth: 0
Flags: W
HStem: 0 200.1<399.7 512.237> 0 66.7002<266.4 399.7> 133.4 133.3<266.4 399.7>
VStem: 266.4 133.3<200.1 266.7> 399.7 133.399<66.7002 133.4>
LayerCount: 2
Back
Fore
SplineSet
466.400390625 200.099609375 m 2x90
 499.799804688 200.099609375 533.099609375 166.700195312 533.099609375 133.400390625 c 2
 533.099609375 66.7001953125 l 2x68
 533.099609375 33.2998046875 499.700195312 0 466.400390625 0 c 2x88
 266.400390625 0 l 1
 266.400390625 66.7001953125 l 1x50
 399.700195312 66.7001953125 l 1
 399.700195312 133.400390625 l 1x68
 266.400390625 133.400390625 l 1
 266.400390625 266.700195312 l 1
 399.700195312 266.700195312 l 1x70
 399.700195312 200.099609375 l 1
 466.400390625 200.099609375 l 2x90
EndSplineSet
Validated: 1
EndChar

StartChar: integral
Encoding: 119 8747 119
Width: 666
VWidth: 0
Flags: W
HStem: 0 133.4<66.2998 133> 666.6 133.4<533 599.7>
LayerCount: 2
Back
Fore
SplineSet
533 800 m 2
 599.700195312 800 l 1
 599.700195312 666.599609375 l 1
 533 666.599609375 l 1
 229.5 59.599609375 l 2
 211.200195312 23.099609375 173.900390625 0 133 0 c 2
 66.2998046875 0 l 1
 66.2998046875 133.400390625 l 1
 133 133.400390625 l 1
 436.5 740.400390625 l 2
 454.799804688 776.900390625 492.099609375 800 533 800 c 2
EndSplineSet
Validated: 1
EndChar

StartChar: ordmasculine
Encoding: 120 186 120
Width: 666
VWidth: 0
Flags: W
HStem: 200 133.3<133 533> 400 133.4<266.4 399.7> 666.7 133.3<266.4 399.7>
VStem: 133 133.4<533.4 666.7> 399.7 133.3<533.4 666.7>
LayerCount: 2
Back
Fore
SplineSet
266.400390625 666.700195312 m 1
 266.400390625 533.400390625 l 1
 399.700195312 533.400390625 l 1
 399.700195312 666.700195312 l 1
 266.400390625 666.700195312 l 1
533 700 m 2
 533 500 l 2
 533 450 483 400 433 400 c 2
 233 400 l 2
 183 400 133 450 133 500 c 2
 133 700 l 2
 133 750 183 800 233 800 c 2
 433 800 l 2
 483 800 533 750 533 700 c 2
133 200 m 1
 133 333.299804688 l 1
 533 333.299804688 l 1
 533 200 l 1
 133 200 l 1
EndSplineSet
Validated: 1
EndChar

StartChar: guillemotright
Encoding: 121 187 121
Width: 666
VWidth: 0
Flags: W
LayerCount: 2
Back
Fore
SplineSet
66.2998046875 733.299804688 m 1
 333 483.299804688 l 1
 333 316.700195312 l 1
 66.2998046875 66.7001953125 l 1
 66.2998046875 233.299804688 l 1
 244.099609375 400 l 1
 66.2998046875 566.700195312 l 1
 66.2998046875 733.299804688 l 1
333 566.700195312 m 1
 333 733.299804688 l 1
 599.700195312 483.299804688 l 1
 599.700195312 316.700195312 l 1
 333 66.7001953125 l 1
 333 233.299804688 l 1
 510.799804688 400 l 1
 333 566.700195312 l 1
EndSplineSet
Validated: 1
EndChar

StartChar: onequarter
Encoding: 122 188 122
Width: 666
VWidth: 0
Flags: W
HStem: 0 21G<466.3 599.6> 333.3 133.4<199.6 466.3> 780 20G<133 266.3 466.3 599.6>
VStem: 466.3 133.3<0 333.3 466.7 800>
LayerCount: 2
Back
Fore
SplineSet
466.299804688 800 m 1
 599.599609375 800 l 1
 599.599609375 0 l 1
 466.299804688 0 l 1
 466.299804688 333.299804688 l 1
 166.299804688 333.299804688 l 2
 116.299804688 333.299804688 66.2998046875 383.299804688 66.2998046875 433.299804688 c 0
 66.2998046875 462.200195312 70.2001953125 485.5 76.900390625 518.299804688 c 0
 133 800 133 800 133 800 c 1
 266.299804688 800 l 1
 199.599609375 466.700195312 l 1
 466.299804688 466.700195312 l 1
 466.299804688 800 l 1
EndSplineSet
Validated: 1
EndChar

StartChar: onehalf
Encoding: 123 189 123
Width: 666
VWidth: 0
Flags: W
HStem: 0 133.3<214 466.4> 333.3 133.4<299.7 366.4> 666.7 133.3<199.7 452.1>
VStem: 66.4004 133.3<600 666.7> 466.4 133.3<133.3 200>
CounterMasks: 1 e0
LayerCount: 2
Back
Fore
SplineSet
366.400390625 333.299804688 m 1
 299.700195312 333.299804688 l 1
 214 133.299804688 l 1
 466.400390625 133.299804688 l 1
 466.400390625 200 l 1
 599.700195312 200 l 1
 599.700195312 100 l 2
 599.700195312 45 554.700195312 0 499.700195312 0 c 2
 166.400390625 0 l 2
 111.400390625 0 66.400390625 45 66.400390625 100 c 1
 66.400390625 100 67.7001953125 126.599609375 76.900390625 147.799804688 c 0
 122.599609375 252.599609375 151.700195312 326.400390625 170 376.299804688 c 0
 190 430.599609375 241.799804688 466.700195312 299.700195312 466.700195312 c 2
 366.400390625 466.700195312 l 1
 452.099609375 666.700195312 l 1
 199.700195312 666.700195312 l 1
 199.700195312 600 l 1
 66.400390625 600 l 1
 66.400390625 700 l 2
 66.400390625 755 111.400390625 800 166.400390625 800 c 2
 499.799804688 800 l 2
 554.799804688 800 599.799804688 755 599.799804688 700 c 1
 599.799804688 700 598.400390625 673.400390625 589.200195312 652.200195312 c 0
 543.5 547.400390625 514.400390625 473.599609375 496.099609375 423.700195312 c 0
 476.099609375 369.400390625 424.299804688 333.299804688 366.400390625 333.299804688 c 1
EndSplineSet
Validated: 1
EndChar

StartChar: threequarters
Encoding: 124 190 124
Width: 666
VWidth: 0
Flags: W
HStem: 0 133.4<199.7 452.1> 333.4 133.3<199.7 366.4> 666.7 133.3<199.7 452.1>
VStem: 66.4004 133.3<133.4 200 600 666.7>
LayerCount: 2
Back
Fore
SplineSet
599.700195312 700 m 1
 599.099609375 682.799804688 598.299804688 673.400390625 589.099609375 652.200195312 c 0
 479.200195312 400 479.200195312 400 479.200195312 400 c 1
 479.200195312 400 479.200195312 400 589.099609375 147.799804688 c 0
 598.400390625 126.599609375 599.099609375 117.200195312 599.700195312 100 c 1
 599.700195312 50 549.700195312 0 499.700195312 0 c 2
 166.400390625 0 l 2
 116.400390625 0 66.400390625 50 66.400390625 100 c 2
 66.400390625 200 l 1
 199.700195312 200 l 1
 199.700195312 133.400390625 l 1
 452.099609375 133.400390625 l 1
 366.400390625 333.400390625 l 1
 199.700195312 333.400390625 l 1
 199.700195312 466.700195312 l 1
 366.400390625 466.700195312 l 1
 452.099609375 666.700195312 l 1
 199.700195312 666.700195312 l 1
 199.700195312 600 l 1
 66.400390625 600 l 1
 66.400390625 700 l 2
 66.400390625 750 116.400390625 800 166.400390625 800 c 2
 499.700195312 800 l 2
 549.700195312 800 599.700195312 750 599.700195312 700 c 1
EndSplineSet
Validated: 1
EndChar

StartChar: questiondown
Encoding: 125 191 125
Width: 666
VWidth: 0
Flags: W
HStem: -0.0996094 133.3<66.4004 133.101 266.501 399.801 533.101 599.7> 266.601 133.3<66.501 133.101> 599.9 200.1<253.863 412.238>
VStem: 133.101 133.4<133.2 266.5> 233.001 200.1<620.725 779.138> 266.4 133.4<399.9 466.5> 399.801 133.3<133.2 266.5>
LayerCount: 2
Back
Fore
SplineSet
133.100585938 266.600585938 m 1xf2
 66.5009765625 266.600585938 l 1
 66.5009765625 399.900390625 l 1
 266.400390625 399.900390625 l 1
 266.400390625 466.5 l 1xe4
 266.500976562 466.5 l 1xf0
 299.80078125 533.200195312 l 1
 366.500976562 533.200195312 l 1
 399.80078125 466.5 l 1xe4
 399.80078125 366.5 l 2xe2
 399.80078125 316.5 349.80078125 266.5 299.80078125 266.5 c 2
 266.400390625 266.5 l 1xe4
 266.500976562 133.200195312 l 1
 399.80078125 133.200195312 l 1
 399.80078125 266.5 l 1
 533.100585938 266.5 l 1
 533.100585938 133.200195312 l 1
 599.700195312 133.200195312 l 1
 599.700195312 -0.099609375 l 1
 66.400390625 -0.099609375 l 1
 66.400390625 133.200195312 l 1
 133.100585938 133.200195312 l 1
 133.100585938 266.600585938 l 1xf2
299.700195312 599.900390625 m 2
 266.400390625 599.900390625 233.000976562 633.200195312 233.000976562 666.600585938 c 2
 233.000976562 733.30078125 l 2
 233.000976562 766.700195312 266.400390625 800 299.700195312 800 c 2
 366.400390625 800 l 2
 399.80078125 800 433.100585938 766.600585938 433.100585938 733.30078125 c 2
 433.100585938 666.600585938 l 2xe8
 433.100585938 633.200195312 399.700195312 599.900390625 366.400390625 599.900390625 c 2
 299.700195312 599.900390625 l 2
EndSplineSet
Validated: 1
EndChar

StartChar: Agrave
Encoding: 126 192 126
Width: 666
VWidth: 0
Flags: W
HStem: 0 133.3<66.2998 110.9 244.2 266.3 399.6 421.7 555 599.6> 200 133.4<66.2998 133.2 311.1 354.9 532.8 599.7> 466.7 133.3<66.2998 222.4 443.6 599.7> 666.7 133.3<199.7 266.4>
VStem: 66.2998 200<0 133.3> 399.6 200<0 133.3>
LayerCount: 2
Back
Fore
SplineSet
599.599609375 133.299804688 m 1
 599.599609375 0 l 1
 399.599609375 0 l 1
 399.599609375 133.299804688 l 1
 421.700195312 133.299804688 l 1
 399.400390625 200 l 1
 266.5 200 l 1
 244.200195312 133.299804688 l 1
 266.299804688 133.299804688 l 1
 266.299804688 0 l 1
 66.2998046875 0 l 1
 66.2998046875 133.299804688 l 1
 110.900390625 133.299804688 l 1
 133.200195312 200 l 1
 66.2998046875 200 l 1
 66.2998046875 333.400390625 l 1
 177.799804688 333.400390625 l 1
 222.400390625 466.700195312 l 1
 66.2998046875 466.700195312 l 1
 66.2998046875 600 l 1
 599.700195312 600 l 1
 599.700195312 466.599609375 l 1
 443.599609375 466.599609375 l 1
 488.200195312 333.299804688 l 1
 599.700195312 333.299804688 l 1
 599.700195312 200 l 1
 532.799804688 200 l 1
 555 133.299804688 l 1
 599.599609375 133.299804688 l 1
311.099609375 333.299804688 m 1
 354.900390625 333.299804688 l 1
 333 398.700195312 l 1
 311.099609375 333.299804688 l 1
399.700195312 666.700195312 m 1
 199.700195312 666.700195312 l 1
 66.400390625 800 l 1
 266.400390625 800 l 1
 399.700195312 666.700195312 l 1
EndSplineSet
Validated: 1
EndChar

StartChar: Aacute
Encoding: 127 193 127
Width: 666
VWidth: 0
Flags: W
HStem: 0 133.3<66.2998 110.9 244.2 266.3 399.6 421.7 555 599.6> 200 133.4<66.2998 133.2 311.1 354.9 532.8 599.7> 466.7 133.3<66.2998 222.4 443.6 599.7> 666.7 133.3<399.7 466.4>
VStem: 66.2998 200<0 133.3> 399.6 200<0 133.3>
LayerCount: 2
Back
Fore
SplineSet
599.599609375 133.299804688 m 1
 599.599609375 0 l 1
 399.599609375 0 l 1
 399.599609375 133.299804688 l 1
 421.700195312 133.299804688 l 1
 399.400390625 200 l 1
 266.5 200 l 1
 244.200195312 133.299804688 l 1
 266.299804688 133.299804688 l 1
 266.299804688 0 l 1
 66.2998046875 0 l 1
 66.2998046875 133.299804688 l 1
 110.900390625 133.299804688 l 1
 133.200195312 200 l 1
 66.2998046875 200 l 1
 66.2998046875 333.400390625 l 1
 177.799804688 333.400390625 l 1
 222.400390625 466.700195312 l 1
 66.2998046875 466.700195312 l 1
 66.2998046875 600 l 1
 599.700195312 600 l 1
 599.700195312 466.599609375 l 1
 443.599609375 466.599609375 l 1
 488.200195312 333.299804688 l 1
 599.700195312 333.299804688 l 1
 599.700195312 200 l 1
 532.799804688 200 l 1
 555 133.299804688 l 1
 599.599609375 133.299804688 l 1
311.099609375 333.299804688 m 1
 354.900390625 333.299804688 l 1
 333 398.700195312 l 1
 311.099609375 333.299804688 l 1
266.400390625 666.700195312 m 1
 399.700195312 800 l 1
 599.700195312 800 l 1
 466.400390625 666.700195312 l 1
 266.400390625 666.700195312 l 1
EndSplineSet
Validated: 1
EndChar

StartChar: Acircumflex
Encoding: 128 194 128
Width: 666
VWidth: 0
Flags: W
HStem: 0 133.3<66.2998 110.9 244.2 266.3 399.6 421.7 555 599.6> 200 133.4<66.2998 133.2 311.1 354.9 532.8 599.7> 466.7 133.3<66.2998 222.4 443.6 599.7> 666.7 133.3<199.7 266.4 399.7 466.4>
VStem: 66.2998 200<0 133.3> 399.6 200<0 133.3>
LayerCount: 2
Back
Fore
SplineSet
599.599609375 133.299804688 m 1
 599.599609375 0 l 1
 399.599609375 0 l 1
 399.599609375 133.299804688 l 1
 421.700195312 133.299804688 l 1
 399.400390625 200 l 1
 266.5 200 l 1
 244.200195312 133.299804688 l 1
 266.299804688 133.299804688 l 1
 266.299804688 0 l 1
 66.2998046875 0 l 1
 66.2998046875 133.299804688 l 1
 110.900390625 133.299804688 l 1
 133.200195312 200 l 1
 66.2998046875 200 l 1
 66.2998046875 333.400390625 l 1
 177.799804688 333.400390625 l 1
 222.400390625 466.700195312 l 1
 66.2998046875 466.700195312 l 1
 66.2998046875 600 l 1
 599.700195312 600 l 1
 599.700195312 466.599609375 l 1
 443.599609375 466.599609375 l 1
 488.200195312 333.299804688 l 1
 599.700195312 333.299804688 l 1
 599.700195312 200 l 1
 532.799804688 200 l 1
 555 133.299804688 l 1
 599.599609375 133.299804688 l 1
311.099609375 333.299804688 m 1
 354.900390625 333.299804688 l 1
 333 398.700195312 l 1
 311.099609375 333.299804688 l 1
599.700195312 666.700195312 m 1
 399.700195312 666.700195312 l 1
 333 733.299804688 l 1
 266.400390625 666.700195312 l 1
 66.400390625 666.700195312 l 1
 199.700195312 800 l 1
 466.400390625 800 l 1
 599.700195312 666.700195312 l 1
EndSplineSet
Validated: 1
EndChar

StartChar: Atilde
Encoding: 129 195 129
Width: 666
VWidth: 0
Flags: W
HStem: 0 133.3<66.2998 110.9 244.2 266.3 399.6 421.7 555 599.6> 200 133.4<66.2998 133.2 311.1 354.9 532.8 599.7> 466.7 133.3<66.2998 222.4 443.6 599.7> 666.7 133.3<66.4004 599.7>
VStem: 66.2998 200<0 133.3> 399.6 200<0 133.3>
LayerCount: 2
Back
Fore
SplineSet
599.599609375 133.299804688 m 1
 599.599609375 0 l 1
 399.599609375 0 l 1
 399.599609375 133.299804688 l 1
 421.700195312 133.299804688 l 1
 399.400390625 200 l 1
 266.5 200 l 1
 244.200195312 133.299804688 l 1
 266.299804688 133.299804688 l 1
 266.299804688 0 l 1
 66.2998046875 0 l 1
 66.2998046875 133.299804688 l 1
 110.900390625 133.299804688 l 1
 133.200195312 200 l 1
 66.2998046875 200 l 1
 66.2998046875 333.400390625 l 1
 177.799804688 333.400390625 l 1
 222.400390625 466.700195312 l 1
 66.2998046875 466.700195312 l 1
 66.2998046875 600 l 1
 599.700195312 600 l 1
 599.700195312 466.599609375 l 1
 443.599609375 466.599609375 l 1
 488.200195312 333.299804688 l 1
 599.700195312 333.299804688 l 1
 599.700195312 200 l 1
 532.799804688 200 l 1
 555 133.299804688 l 1
 599.599609375 133.299804688 l 1
311.099609375 333.299804688 m 1
 354.900390625 333.299804688 l 1
 333 398.700195312 l 1
 311.099609375 333.299804688 l 1
66.400390625 666.700195312 m 1
 66.400390625 800 l 1
 599.700195312 800 l 1
 599.700195312 666.700195312 l 1
 66.400390625 666.700195312 l 1
EndSplineSet
Validated: 1
EndChar

StartChar: Adieresis
Encoding: 130 196 130
Width: 666
VWidth: 0
Flags: W
HStem: 0 133.3<66.2998 110.9 244.2 266.3 399.6 421.7 555 599.6> 200 133.4<66.2998 133.2 311.1 354.9 532.8 599.7> 466.7 133.3<66.2998 222.4 443.6 599.7> 666.7 133.3<66.2998 199.6 466.3 599.6>
VStem: 66.2998 200<0 133.3> 66.2998 133.3<666.7 800> 399.6 200<0 133.3> 466.3 133.3<666.7 800>
LayerCount: 2
Back
Fore
SplineSet
66.2998046875 666.700195312 m 1xf4
 66.2998046875 800 l 1
 199.599609375 800 l 1
 199.599609375 666.700195312 l 1
 66.2998046875 666.700195312 l 1xf4
466.299804688 666.700195312 m 1xf1
 466.299804688 800 l 1
 599.599609375 800 l 1
 599.599609375 666.700195312 l 1
 466.299804688 666.700195312 l 1xf1
599.599609375 133.299804688 m 1xf6
 599.599609375 0 l 1
 399.599609375 0 l 1
 399.599609375 133.299804688 l 1
 421.700195312 133.299804688 l 1
 399.400390625 200 l 1
 266.5 200 l 1
 244.200195312 133.299804688 l 1
 266.299804688 133.299804688 l 1
 266.299804688 0 l 1
 66.2998046875 0 l 1
 66.2998046875 133.299804688 l 1xfa
 110.900390625 133.299804688 l 1
 133.200195312 200 l 1
 66.2998046875 200 l 1
 66.2998046875 333.400390625 l 1
 177.799804688 333.400390625 l 1
 222.400390625 466.700195312 l 1
 66.2998046875 466.700195312 l 1
 66.2998046875 600 l 1
 599.700195312 600 l 1
 599.700195312 466.599609375 l 1
 443.599609375 466.599609375 l 1
 488.200195312 333.299804688 l 1
 599.700195312 333.299804688 l 1
 599.700195312 200 l 1
 532.799804688 200 l 1
 555 133.299804688 l 1
 599.599609375 133.299804688 l 1xf6
311.099609375 333.299804688 m 1
 354.900390625 333.299804688 l 1
 333 398.700195312 l 1
 311.099609375 333.299804688 l 1
EndSplineSet
Validated: 1
EndChar

StartChar: Aring
Encoding: 131 197 131
Width: 666
VWidth: 0
Flags: W
HStem: 0 133.3<66.2998 110.9 244.2 266.3 399.6 421.7 555 599.6> 200 133.3<66.2998 133.2 311.1 354.9 532.8 599.7> 466.6 133.301<66.2998 222.4 443.6 599.7> 733.3 66.7002<299.6 366.3>
VStem: 66.2998 200<0 133.3> 233 66.5996<666.6 733.3> 366.3 66.7002<666.6 733.3> 399.6 200<0 133.3>
LayerCount: 2
Back
Fore
SplineSet
599.599609375 133.299804688 m 1xf1
 599.599609375 0 l 1
 399.599609375 0 l 1
 399.599609375 133.299804688 l 1
 421.700195312 133.299804688 l 1
 399.400390625 200 l 1
 266.5 200 l 1
 244.200195312 133.299804688 l 1
 266.299804688 133.299804688 l 1
 266.299804688 0 l 1
 66.2998046875 0 l 1
 66.2998046875 133.299804688 l 1
 110.900390625 133.299804688 l 1
 133.200195312 200 l 1
 66.2998046875 200 l 1
 66.2998046875 333.299804688 l 1
 177.799804688 333.299804688 l 1
 222.400390625 466.599609375 l 1
 66.2998046875 466.599609375 l 1
 66.2998046875 599.900390625 l 1xf9
 299.700195312 599.900390625 l 2
 266.299804688 599.900390625 233 633.299804688 233 666.599609375 c 2
 233 733.299804688 l 2
 233 766.700195312 266.299804688 800 299.599609375 800 c 2
 366.299804688 800 l 2
 399.599609375 800 433 766.700195312 433 733.299804688 c 2
 433 666.700195312 l 2
 433 633.299804688 399.599609375 600 366.299804688 600 c 2xf6
 599.700195312 600 l 1
 599.700195312 466.599609375 l 1
 443.599609375 466.599609375 l 1
 488.200195312 333.299804688 l 1
 599.700195312 333.299804688 l 1
 599.700195312 200 l 1
 532.799804688 200 l 1
 555 133.299804688 l 1
 599.599609375 133.299804688 l 1xf1
299.599609375 733.299804688 m 1xf6
 299.599609375 666.599609375 l 1
 366.299804688 666.599609375 l 1
 366.299804688 733.299804688 l 1
 299.599609375 733.299804688 l 1xf6
311.099609375 333.299804688 m 1
 354.900390625 333.299804688 l 1
 333 398.700195312 l 1
 311.099609375 333.299804688 l 1
EndSplineSet
Validated: 1
EndChar

StartChar: AE
Encoding: 132 198 132
Width: 666
VWidth: 0
Flags: W
HStem: 0 133.3<66.2998 99.5996 233 266.3 466.3 599.7> 333.3 133.4<66.2998 149.6 316.3 333 466.3 599.6> 666.7 133.3<66.2998 233 466.3 599.7>
VStem: 66.2998 200<0 133.3> 333 133.3<133.3 333.3 466.7 533.4>
CounterMasks: 1 e0
LayerCount: 2
Back
Fore
SplineSet
599.700195312 666.700195312 m 1
 466.299804688 666.700195312 l 1
 466.299804688 466.700195312 l 1
 599.599609375 466.700195312 l 1
 599.599609375 333.299804688 l 1
 466.299804688 333.299804688 l 1
 466.299804688 133.299804688 l 1
 599.700195312 133.299804688 l 1
 599.700195312 0 l 1
 333 0 l 1
 333 133.299804688 l 1
 333 333.299804688 l 1
 283 333.299804688 l 1
 233 133.299804688 l 1
 266.299804688 133.299804688 l 1
 266.299804688 0 l 1
 66.2998046875 0 l 1
 66.2998046875 133.400390625 l 1
 99.599609375 133.400390625 l 1
 149.599609375 333.400390625 l 1
 66.2998046875 333.400390625 l 1
 66.2998046875 466.700195312 l 1
 183 466.700195312 l 1
 233 666.700195312 l 1
 66.2998046875 666.700195312 l 1
 66.2998046875 800 l 1
 599.700195312 800 l 1
 599.700195312 666.700195312 l 1
316.299804688 466.700195312 m 1
 333 466.700195312 l 1
 333 533.400390625 l 1
 316.299804688 466.700195312 l 1
EndSplineSet
Validated: 1
EndChar

StartChar: Ccedilla
Encoding: 133 199 133
Width: 666
VWidth: 0
Flags: W
HStem: 0 200.1<399.5 512.038> 0 66.7002<266.2 399.5> 266.8 200<466.3 599.6> 266.8 133.2<66.2998 133 399.5 466.3> 600 200<466.3 599.7> 666.7 133.3<66.2998 133 266.3 466.3>
VStem: 133 133.3<400 666.7> 266.2 133.3<200.1 266.7> 399.5 133.4<66.7002 133.4> 466.3 133.3<400 466.8 600 666.7>
LayerCount: 2
Back
Fore
SplineSet
599.700195312 600 m 1x0a
 466.299804688 600 l 1x0a40
 466.299804688 666.700195312 l 1
 266.299804688 666.700195312 l 1
 266.299804688 400 l 1
 466.299804688 400 l 1x1640
 466.299804688 466.799804688 l 1
 599.599609375 466.799804688 l 1
 599.599609375 266.799804688 l 1x2240
 399.5 266.799804688 l 1x1080
 399.5 200.099609375 l 1
 466.200195312 200.099609375 l 2x91
 499.599609375 200.099609375 532.900390625 166.700195312 532.900390625 133.400390625 c 2
 532.900390625 66.7001953125 l 2x4080
 532.900390625 33.2998046875 499.5 0 466.200195312 0 c 2x8080
 266.200195312 0 l 1
 266.200195312 66.7001953125 l 1x41
 399.5 66.7001953125 l 1
 399.5 133.400390625 l 1x4080
 266.200195312 133.400390625 l 1
 266.200195312 266.700195312 l 1x41
 66.2998046875 266.700195312 l 1
 66.2998046875 400 l 1
 133 400 l 1
 133 666.700195312 l 1
 66.2998046875 666.700195312 l 1
 66.2998046875 800 l 1x56
 599.700195312 800 l 1
 599.700195312 600 l 1x0a
EndSplineSet
Validated: 1
EndChar

StartChar: Egrave
Encoding: 134 200 134
Width: 666
VWidth: 0
Flags: W
HStem: 0 200<466.4 599.7> 0 133.3<66.4004 133.2 266.5 466.4> 233 133.3<66.4004 133.2 266.5 399.7> 400 200<466.4 599.7> 466.7 133.3<66.4004 133.2 266.5 466.4> 666.7 133.3<199.7 266.4>
VStem: 133.2 133.3<133.3 233 366.3 466.7> 466.4 133.3<133.3 200 400 466.7>
LayerCount: 2
Back
Fore
SplineSet
66.400390625 600 m 1x6f
 599.700195312 600 l 1x37
 599.700195312 466.700195312 l 1x2f
 599.700195312 400 l 1
 466.400390625 400 l 1x37
 466.400390625 466.700195312 l 1
 266.5 466.700195312 l 1
 266.5 366.299804688 l 1
 399.700195312 366.299804688 l 1
 399.700195312 233 l 1
 266.5 233 l 1
 266.5 133.299804688 l 1
 466.400390625 133.299804688 l 1x6f
 466.400390625 200 l 1
 599.700195312 200 l 1xa7
 599.700195312 133.299804688 l 1x67
 599.700195312 0 l 1xa7
 66.400390625 0 l 1
 66.400390625 133.299804688 l 1
 133.200195312 133.299804688 l 1
 133.200195312 233 l 1
 66.400390625 233 l 1
 66.400390625 366.299804688 l 1
 133.200195312 366.299804688 l 1
 133.200195312 466.700195312 l 1
 66.400390625 466.700195312 l 1
 66.400390625 600 l 1x6f
399.700195312 666.700195312 m 1
 199.700195312 666.700195312 l 1
 66.400390625 800 l 1
 266.400390625 800 l 1
 399.700195312 666.700195312 l 1
EndSplineSet
Validated: 1
EndChar

StartChar: Eacute
Encoding: 135 201 135
Width: 666
VWidth: 0
Flags: W
HStem: 0 200<466.4 599.7> 0 133.3<66.4004 133.2 266.5 466.4> 233 133.3<66.4004 133.2 266.5 399.7> 400 200<466.4 599.7> 466.7 133.3<66.4004 133.2 266.5 466.4> 666.7 133.3<399.7 466.4>
VStem: 133.2 133.3<133.3 233 366.3 466.7> 466.4 133.3<133.3 200 400 466.7>
LayerCount: 2
Back
Fore
SplineSet
66.400390625 600 m 1x6f
 599.700195312 600 l 1x37
 599.700195312 466.700195312 l 1x2f
 599.700195312 400 l 1
 466.400390625 400 l 1x37
 466.400390625 466.700195312 l 1
 266.5 466.700195312 l 1
 266.5 366.299804688 l 1
 399.700195312 366.299804688 l 1
 399.700195312 233 l 1
 266.5 233 l 1
 266.5 133.299804688 l 1
 466.400390625 133.299804688 l 1x6f
 466.400390625 200 l 1
 599.700195312 200 l 1xa7
 599.700195312 133.299804688 l 1x67
 599.700195312 0 l 1xa7
 66.400390625 0 l 1
 66.400390625 133.299804688 l 1
 133.200195312 133.299804688 l 1
 133.200195312 233 l 1
 66.400390625 233 l 1
 66.400390625 366.299804688 l 1
 133.200195312 366.299804688 l 1
 133.200195312 466.700195312 l 1
 66.400390625 466.700195312 l 1
 66.400390625 600 l 1x6f
266.400390625 666.700195312 m 1
 399.700195312 800 l 1
 599.700195312 800 l 1
 466.400390625 666.700195312 l 1
 266.400390625 666.700195312 l 1
EndSplineSet
Validated: 1
EndChar

StartChar: Ecircumflex
Encoding: 136 202 136
Width: 666
VWidth: 0
Flags: W
HStem: 0 200<466.4 599.7> 0 133.3<66.4004 133.2 266.5 466.4> 233 133.3<66.4004 133.2 266.5 399.7> 400 200<466.4 599.7> 466.7 133.3<66.4004 133.2 266.5 466.4> 666.7 133.3<399.7 466.4>
VStem: 133.2 133.3<133.3 233 366.3 466.7> 466.4 133.3<133.3 200 400 466.7>
LayerCount: 2
Back
Fore
SplineSet
66.400390625 600 m 1x6f
 599.700195312 600 l 1x37
 599.700195312 466.700195312 l 1x2f
 599.700195312 400 l 1
 466.400390625 400 l 1x37
 466.400390625 466.700195312 l 1
 266.5 466.700195312 l 1
 266.5 366.299804688 l 1
 399.700195312 366.299804688 l 1
 399.700195312 233 l 1
 266.5 233 l 1
 266.5 133.299804688 l 1
 466.400390625 133.299804688 l 1x6f
 466.400390625 200 l 1
 599.700195312 200 l 1xa7
 599.700195312 133.299804688 l 1x67
 599.700195312 0 l 1xa7
 66.400390625 0 l 1
 66.400390625 133.299804688 l 1
 133.200195312 133.299804688 l 1
 133.200195312 233 l 1
 66.400390625 233 l 1
 66.400390625 366.299804688 l 1
 133.200195312 366.299804688 l 1
 133.200195312 466.700195312 l 1
 66.400390625 466.700195312 l 1
 66.400390625 600 l 1x6f
266.400390625 666.700195312 m 1
 399.700195312 800 l 1
 599.700195312 800 l 1
 466.400390625 666.700195312 l 1
 266.400390625 666.700195312 l 1
EndSplineSet
Validated: 1
EndChar

StartChar: Edieresis
Encoding: 137 203 137
Width: 666
VWidth: 0
Flags: W
HStem: 0 200<466.4 599.7> 0 133.3<66.4004 133.2 266.5 466.4> 233 133.3<66.4004 133.2 266.5 399.7> 400 200<466.4 599.7> 466.7 133.3<66.4004 133.2 266.5 466.4> 666.7 133.3<66.4004 199.7 466.4 599.7>
VStem: 66.4004 133.3<666.7 800> 133.2 133.3<133.3 233 366.3 466.7> 466.4 133.3<133.3 200 400 466.7 666.7 800>
LayerCount: 2
Back
Fore
SplineSet
66.400390625 666.700195312 m 1x2680
 66.400390625 800 l 1
 199.700195312 800 l 1
 199.700195312 666.700195312 l 1
 66.400390625 666.700195312 l 1x2680
466.400390625 666.700195312 m 1
 466.400390625 800 l 1
 599.700195312 800 l 1
 599.700195312 666.700195312 l 1
 466.400390625 666.700195312 l 1
66.400390625 600 m 1x6e80
 599.700195312 600 l 1x3680
 599.700195312 466.700195312 l 1x2e80
 599.700195312 400 l 1
 466.400390625 400 l 1x3680
 466.400390625 466.700195312 l 1
 266.5 466.700195312 l 1
 266.5 366.299804688 l 1
 399.700195312 366.299804688 l 1
 399.700195312 233 l 1
 266.5 233 l 1
 266.5 133.299804688 l 1
 466.400390625 133.299804688 l 1x6d80
 466.400390625 200 l 1
 599.700195312 200 l 1xa580
 599.700195312 133.299804688 l 1x6580
 599.700195312 0 l 1xa580
 66.400390625 0 l 1
 66.400390625 133.299804688 l 1x6680
 133.200195312 133.299804688 l 1
 133.200195312 233 l 1x6580
 66.400390625 233 l 1
 66.400390625 366.299804688 l 1x6680
 133.200195312 366.299804688 l 1
 133.200195312 466.700195312 l 1x6d80
 66.400390625 466.700195312 l 1
 66.400390625 600 l 1x6e80
EndSplineSet
Validated: 1
EndChar

StartChar: Igrave
Encoding: 138 204 138
Width: 666
VWidth: 0
Flags: W
HStem: 0 133.3<66.4004 266.3 399.7 599.7> 466.7 133.3<66.4004 266.3 399.7 599.7> 666.7 133.3<199.7 266.4>
VStem: 266.3 133.4<133.3 466.7>
LayerCount: 2
Back
Fore
SplineSet
66.400390625 600 m 1
 599.700195312 600 l 1
 599.700195312 466.700195312 l 1
 399.700195312 466.700195312 l 1
 399.700195312 133.299804688 l 1
 599.700195312 133.299804688 l 1
 599.700195312 0 l 1
 66.400390625 0 l 1
 66.400390625 133.299804688 l 1
 266.299804688 133.299804688 l 1
 266.299804688 466.700195312 l 1
 66.400390625 466.700195312 l 1
 66.400390625 600 l 1
399.700195312 666.700195312 m 1
 199.700195312 666.700195312 l 1
 66.400390625 800 l 1
 266.400390625 800 l 1
 399.700195312 666.700195312 l 1
EndSplineSet
Validated: 1
EndChar

StartChar: Iacute
Encoding: 139 205 139
Width: 666
VWidth: 0
Flags: W
HStem: 0 133.3<66.4004 266.3 399.7 599.7> 466.7 133.3<66.4004 266.3 399.7 599.7> 666.7 133.3<399.7 466.4>
VStem: 266.3 133.4<133.3 466.7>
LayerCount: 2
Back
Fore
SplineSet
66.400390625 600 m 1
 599.700195312 600 l 1
 599.700195312 466.700195312 l 1
 399.700195312 466.700195312 l 1
 399.700195312 133.299804688 l 1
 599.700195312 133.299804688 l 1
 599.700195312 0 l 1
 66.400390625 0 l 1
 66.400390625 133.299804688 l 1
 266.299804688 133.299804688 l 1
 266.299804688 466.700195312 l 1
 66.400390625 466.700195312 l 1
 66.400390625 600 l 1
266.400390625 666.700195312 m 1
 399.700195312 800 l 1
 599.700195312 800 l 1
 466.400390625 666.700195312 l 1
 266.400390625 666.700195312 l 1
EndSplineSet
Validated: 1
EndChar

StartChar: Icircumflex
Encoding: 140 206 140
Width: 666
VWidth: 0
Flags: W
HStem: 0 133.3<66.4004 266.3 399.7 599.7> 466.7 133.3<66.4004 266.3 399.7 599.7> 666.7 133.3<199.7 266.4 399.7 466.4>
VStem: 266.3 133.4<133.3 466.7>
LayerCount: 2
Back
Fore
SplineSet
66.400390625 600 m 1
 599.700195312 600 l 1
 599.700195312 466.700195312 l 1
 399.700195312 466.700195312 l 1
 399.700195312 133.299804688 l 1
 599.700195312 133.299804688 l 1
 599.700195312 0 l 1
 66.400390625 0 l 1
 66.400390625 133.299804688 l 1
 266.299804688 133.299804688 l 1
 266.299804688 466.700195312 l 1
 66.400390625 466.700195312 l 1
 66.400390625 600 l 1
599.700195312 666.700195312 m 1
 399.700195312 666.700195312 l 1
 333 733.299804688 l 1
 266.400390625 666.700195312 l 1
 66.400390625 666.700195312 l 1
 199.700195312 800 l 1
 466.400390625 800 l 1
 599.700195312 666.700195312 l 1
EndSplineSet
Validated: 1
EndChar

StartChar: Idieresis
Encoding: 141 207 141
Width: 666
VWidth: 0
Flags: W
HStem: 0 133.3<66.4004 266.3 399.7 599.7> 466.7 133.3<66.4004 266.3 399.7 599.7> 666.7 133.3<66.4004 199.7 466.4 599.7>
VStem: 66.4004 133.3<666.7 800> 266.3 133.4<133.3 466.7> 466.4 133.3<666.7 800>
LayerCount: 2
Back
Fore
SplineSet
66.400390625 600 m 1
 599.700195312 600 l 1
 599.700195312 466.700195312 l 1
 399.700195312 466.700195312 l 1
 399.700195312 133.299804688 l 1
 599.700195312 133.299804688 l 1
 599.700195312 0 l 1
 66.400390625 0 l 1
 66.400390625 133.299804688 l 1
 266.299804688 133.299804688 l 1
 266.299804688 466.700195312 l 1
 66.400390625 466.700195312 l 1
 66.400390625 600 l 1
466.400390625 666.700195312 m 1
 466.400390625 800 l 1
 599.700195312 800 l 1
 599.700195312 666.700195312 l 1
 466.400390625 666.700195312 l 1
66.400390625 666.700195312 m 1
 66.400390625 800 l 1
 199.700195312 800 l 1
 199.700195312 666.700195312 l 1
 66.400390625 666.700195312 l 1
EndSplineSet
Validated: 1
EndChar

StartChar: Eth
Encoding: 142 208 142
Width: 666
VWidth: 0
Flags: W
HStem: 0 133.3<66.4004 132.9 266.2 466.2> 333.3 133.4<66.4004 132.9 266.2 399.7> 666.7 133.3<66.4004 132.9 266.2 466.2>
VStem: 132.9 133.3<133.4 333.3 466.7 666.7> 466.2 133.5<133.3 666.7>
CounterMasks: 1 e0
LayerCount: 2
Back
Fore
SplineSet
599.599609375 700 m 2
 599.700195312 100 l 2
 599.700195312 50 549.700195312 0 499.700195312 0 c 2
 66.400390625 0 l 1
 66.400390625 133.400390625 l 1
 132.900390625 133.400390625 l 1
 132.900390625 333.400390625 l 1
 66.400390625 333.400390625 l 1
 66.400390625 466.700195312 l 1
 132.900390625 466.700195312 l 1
 132.900390625 666.700195312 l 1
 66.400390625 666.700195312 l 1
 66.400390625 800 l 1
 499.599609375 800 l 2
 549.599609375 800 599.599609375 750 599.599609375 700 c 2
466.200195312 133.299804688 m 1
 466.200195312 666.700195312 l 1
 266.200195312 666.700195312 l 1
 266.200195312 466.700195312 l 1
 399.700195312 466.700195312 l 1
 399.700195312 333.299804688 l 1
 266.200195312 333.299804688 l 1
 266.200195312 133.299804688 l 1
 466.200195312 133.299804688 l 1
EndSplineSet
Validated: 1
EndChar

StartChar: Ntilde
Encoding: 143 209 143
Width: 666
VWidth: 0
Flags: W
HStem: 0 133.3<66.4004 133 266.4 333 533 599.7> 466.7 133.3<66.4004 133 288.6 333 533 599.7> 666.7 133.3<66.4004 599.7>
VStem: 66.4004 266.6<0 133.3 466.7 600> 133 133.4<133.3 300> 399.7 200<0 100 466.7 600> 399.7 133.3<300 466.7>
LayerCount: 2
Back
Fore
SplineSet
66.400390625 666.700195312 m 1xf4
 66.400390625 800 l 1
 599.700195312 800 l 1
 599.700195312 666.700195312 l 1
 66.400390625 666.700195312 l 1xf4
599.700195312 466.700195312 m 1
 533 466.700195312 l 1
 533 133.299804688 l 1xe2
 599.700195312 133.299804688 l 1
 599.700195312 0 l 1
 399.700195312 0 l 1
 399.700195312 100 l 1
 266.400390625 300 l 1
 266.400390625 133.299804688 l 1xec
 333 133.299804688 l 1
 333 0 l 1
 66.400390625 0 l 1
 66.400390625 133.299804688 l 1xf0
 133 133.299804688 l 1
 133 466.700195312 l 1xe8
 66.400390625 466.700195312 l 1
 66.400390625 600 l 1
 333 600 l 1
 333 466.700195312 l 1
 288.599609375 466.700195312 l 1
 399.700195312 300 l 1xf2
 399.700195312 600 l 1
 599.700195312 600 l 1
 599.700195312 466.700195312 l 1
EndSplineSet
Validated: 1
EndChar

StartChar: Ograve
Encoding: 144 210 144
Width: 666
VWidth: 0
Flags: W
HStem: 0 133.3<66.4004 133 266.4 399.7 533 599.7> 466.7 133.3<66.4004 133 266.4 399.7 533 599.7> 666.7 133.3<199.7 266.4>
VStem: 133 133.4<133.4 466.7> 399.7 133.3<133.3 466.7>
LayerCount: 2
Back
Fore
SplineSet
599.700195312 466.700195312 m 1
 533 466.700195312 l 1
 533 133.299804688 l 1
 599.700195312 133.299804688 l 1
 599.700195312 0 l 1
 66.400390625 0 l 1
 66.400390625 133.400390625 l 1
 133 133.400390625 l 1
 133 466.700195312 l 1
 66.400390625 466.700195312 l 1
 66.400390625 600 l 1
 599.700195312 600 l 1
 599.700195312 466.700195312 l 1
399.700195312 133.299804688 m 1
 399.700195312 466.700195312 l 1
 266.400390625 466.700195312 l 1
 266.400390625 133.299804688 l 1
 399.700195312 133.299804688 l 1
399.700195312 666.700195312 m 1
 199.700195312 666.700195312 l 1
 66.400390625 800 l 1
 266.400390625 800 l 1
 399.700195312 666.700195312 l 1
EndSplineSet
Validated: 1
EndChar

StartChar: Oacute
Encoding: 145 211 145
Width: 666
VWidth: 0
Flags: W
HStem: 0 133.3<66.4004 133 266.4 399.7 533 599.7> 466.7 133.3<66.4004 133 266.4 399.7 533 599.7> 666.7 133.3<399.7 466.4>
VStem: 133 133.4<133.4 466.7> 399.7 133.3<133.3 466.7>
LayerCount: 2
Back
Fore
SplineSet
599.700195312 466.700195312 m 1
 533 466.700195312 l 1
 533 133.299804688 l 1
 599.700195312 133.299804688 l 1
 599.700195312 0 l 1
 66.400390625 0 l 1
 66.400390625 133.400390625 l 1
 133 133.400390625 l 1
 133 466.700195312 l 1
 66.400390625 466.700195312 l 1
 66.400390625 600 l 1
 599.700195312 600 l 1
 599.700195312 466.700195312 l 1
399.700195312 133.299804688 m 1
 399.700195312 466.700195312 l 1
 266.400390625 466.700195312 l 1
 266.400390625 133.299804688 l 1
 399.700195312 133.299804688 l 1
266.400390625 666.700195312 m 1
 399.700195312 800 l 1
 599.700195312 800 l 1
 466.400390625 666.700195312 l 1
 266.400390625 666.700195312 l 1
EndSplineSet
Validated: 1
EndChar

StartChar: Ocircumflex
Encoding: 146 212 146
Width: 666
VWidth: 0
Flags: W
HStem: 0 133.3<66.4004 133 266.4 399.7 533 599.7> 466.7 133.3<66.4004 133 266.4 399.7 533 599.7> 666.7 133.3<199.7 266.4 399.7 466.4>
VStem: 133 133.4<133.4 466.7> 399.7 133.3<133.3 466.7>
LayerCount: 2
Back
Fore
SplineSet
599.700195312 466.700195312 m 1
 533 466.700195312 l 1
 533 133.299804688 l 1
 599.700195312 133.299804688 l 1
 599.700195312 0 l 1
 66.400390625 0 l 1
 66.400390625 133.400390625 l 1
 133 133.400390625 l 1
 133 466.700195312 l 1
 66.400390625 466.700195312 l 1
 66.400390625 600 l 1
 599.700195312 600 l 1
 599.700195312 466.700195312 l 1
399.700195312 133.299804688 m 1
 399.700195312 466.700195312 l 1
 266.400390625 466.700195312 l 1
 266.400390625 133.299804688 l 1
 399.700195312 133.299804688 l 1
599.700195312 666.700195312 m 1
 399.700195312 666.700195312 l 1
 333 733.299804688 l 1
 266.400390625 666.700195312 l 1
 66.400390625 666.700195312 l 1
 199.700195312 800 l 1
 466.400390625 800 l 1
 599.700195312 666.700195312 l 1
EndSplineSet
Validated: 1
EndChar

StartChar: Otilde
Encoding: 147 213 147
Width: 666
VWidth: 0
Flags: W
HStem: 0 133.3<66.4004 133 266.4 399.7 533 599.7> 466.7 133.3<66.4004 133 266.4 399.7 533 599.7> 666.7 133.3<66.4004 599.7>
VStem: 133 133.4<133.4 466.7> 399.7 133.3<133.3 466.7>
LayerCount: 2
Back
Fore
SplineSet
599.700195312 466.700195312 m 1
 533 466.700195312 l 1
 533 133.299804688 l 1
 599.700195312 133.299804688 l 1
 599.700195312 0 l 1
 66.400390625 0 l 1
 66.400390625 133.400390625 l 1
 133 133.400390625 l 1
 133 466.700195312 l 1
 66.400390625 466.700195312 l 1
 66.400390625 600 l 1
 599.700195312 600 l 1
 599.700195312 466.700195312 l 1
399.700195312 133.299804688 m 1
 399.700195312 466.700195312 l 1
 266.400390625 466.700195312 l 1
 266.400390625 133.299804688 l 1
 399.700195312 133.299804688 l 1
66.400390625 666.700195312 m 1
 66.400390625 800 l 1
 599.700195312 800 l 1
 599.700195312 666.700195312 l 1
 66.400390625 666.700195312 l 1
EndSplineSet
Validated: 1
EndChar

StartChar: Odieresis
Encoding: 148 214 148
Width: 666
VWidth: 0
Flags: W
HStem: 0 133.3<66.4004 133 266.4 399.7 533 599.7> 466.7 133.3<66.4004 133 266.4 399.7 533 599.7> 666.7 133.3<66.4004 199.7 466.4 599.7>
VStem: 66.4004 133.3<666.7 800> 133 133.4<133.4 466.7> 399.7 133.3<133.3 466.7> 466.4 133.3<666.7 800>
LayerCount: 2
Back
Fore
SplineSet
66.400390625 666.700195312 m 1xf0
 66.400390625 800 l 1
 199.700195312 800 l 1
 199.700195312 666.700195312 l 1
 66.400390625 666.700195312 l 1xf0
466.400390625 666.700195312 m 1xe2
 466.400390625 800 l 1
 599.700195312 800 l 1
 599.700195312 666.700195312 l 1
 466.400390625 666.700195312 l 1xe2
599.700195312 466.700195312 m 1
 533 466.700195312 l 1
 533 133.299804688 l 1xe4
 599.700195312 133.299804688 l 1
 599.700195312 0 l 1
 66.400390625 0 l 1
 66.400390625 133.400390625 l 1xf2
 133 133.400390625 l 1
 133 466.700195312 l 1xe8
 66.400390625 466.700195312 l 1
 66.400390625 600 l 1xf0
 599.700195312 600 l 1
 599.700195312 466.700195312 l 1
399.700195312 133.299804688 m 1
 399.700195312 466.700195312 l 1
 266.400390625 466.700195312 l 1
 266.400390625 133.299804688 l 1xec
 399.700195312 133.299804688 l 1
EndSplineSet
Validated: 1
EndChar

StartChar: multiply
Encoding: 149 215 149
Width: 666
VWidth: 0
Flags: W
LayerCount: 2
Back
Fore
SplineSet
566.400390625 533.299804688 m 1
 433 400 l 1
 566.400390625 266.700195312 l 1
 466.400390625 166.700195312 l 1
 333 300 l 1
 199.700195312 166.700195312 l 1
 99.7001953125 266.700195312 l 1
 233 400 l 1
 99.7001953125 533.299804688 l 1
 199.700195312 633.299804688 l 1
 333 500 l 1
 466.400390625 633.299804688 l 1
 566.400390625 533.299804688 l 1
EndSplineSet
Validated: 1
EndChar

StartChar: Oslash
Encoding: 150 216 150
Width: 666
VWidth: 0
Flags: W
HStem: 0 133.3<66.2998 132.3 266.4 399.7 533 599.6> 666.7 133.3<66.4004 133 266.4 399.7 533.2 599.7>
VStem: 133 133.4<133.4 199 401 666.7> 399.7 133.3<133.3 396.9 601 666.6>
LayerCount: 2
Back
Fore
SplineSet
599.700195312 800 m 1
 599.700195312 666.599609375 l 1
 533.200195312 666.599609375 l 1
 533 133.299804688 l 1
 599.599609375 133.299804688 l 1
 599.599609375 0 l 1
 66.2998046875 0 l 1
 66.2998046875 133.400390625 l 1
 132.299804688 133.400390625 l 1
 133 666.700195312 l 1
 66.400390625 666.700195312 l 1
 66.400390625 800 l 1
 599.700195312 800 l 1
266.400390625 666.700195312 m 1
 266.400390625 401 l 1
 399.700195312 601 l 1
 399.700195312 666.700195312 l 1
 266.400390625 666.700195312 l 1
399.700195312 133.299804688 m 1
 399.700195312 396.900390625 l 1
 266.400390625 199 l 1
 266.400390625 133.299804688 l 1
 399.700195312 133.299804688 l 1
EndSplineSet
Validated: 1
EndChar

StartChar: Ugrave
Encoding: 151 217 151
Width: 666
VWidth: 0
Flags: W
HStem: 0 133.3<66.4004 133 266.4 399.7 533 599.7> 466.7 133.3<66.4004 133 533 599.7> 666.7 133.3<199.7 266.4>
VStem: 66.4004 200<466.7 600> 133 133.4<133.3 466.7> 399.7 200<466.7 600> 399.7 133.3<133.3 466.7>
LayerCount: 2
Back
Fore
SplineSet
599.700195312 466.700195312 m 1xe4
 533 466.700195312 l 1
 533 133.299804688 l 1xe2
 599.700195312 133.299804688 l 1
 599.700195312 0 l 1
 66.400390625 0 l 1
 66.400390625 133.299804688 l 1xf4
 133 133.299804688 l 1
 133 466.700195312 l 1xe8
 66.400390625 466.700195312 l 1
 66.400390625 600 l 1
 266.400390625 600 l 1xf0
 266.400390625 133.299804688 l 1
 399.700195312 133.299804688 l 1xea
 399.700195312 600 l 1
 599.700195312 600 l 1
 599.700195312 466.700195312 l 1xe4
399.700195312 666.700195312 m 1
 199.700195312 666.700195312 l 1
 66.400390625 800 l 1xf2
 266.400390625 800 l 1xe8
 399.700195312 666.700195312 l 1
EndSplineSet
Validated: 1
EndChar

StartChar: Uacute
Encoding: 152 218 152
Width: 666
VWidth: 0
Flags: W
HStem: 0 133.3<66.4004 133 266.4 399.7 533 599.7> 466.7 133.3<66.4004 133 533 599.7> 666.7 133.3<399.7 466.4>
VStem: 66.4004 200<466.7 600> 133 133.4<133.3 466.7> 399.7 200<466.7 600> 399.7 133.3<133.3 466.7>
LayerCount: 2
Back
Fore
SplineSet
599.700195312 466.700195312 m 1xe4
 533 466.700195312 l 1
 533 133.299804688 l 1xe2
 599.700195312 133.299804688 l 1
 599.700195312 0 l 1
 66.400390625 0 l 1
 66.400390625 133.299804688 l 1xf4
 133 133.299804688 l 1
 133 466.700195312 l 1xe8
 66.400390625 466.700195312 l 1
 66.400390625 600 l 1
 266.400390625 600 l 1xf0
 266.400390625 133.299804688 l 1
 399.700195312 133.299804688 l 1xea
 399.700195312 600 l 1
 599.700195312 600 l 1
 599.700195312 466.700195312 l 1xe4
266.400390625 666.700195312 m 1xec
 399.700195312 800 l 1xea
 599.700195312 800 l 1
 466.400390625 666.700195312 l 1
 266.400390625 666.700195312 l 1xec
EndSplineSet
Validated: 1
EndChar

StartChar: Ucircumflex
Encoding: 153 219 153
Width: 666
VWidth: 0
Flags: W
HStem: 0 133.3<66.4004 133 266.4 399.7 533 599.7> 466.7 133.3<66.4004 133 533 599.7> 666.7 133.3<199.7 266.4 399.7 466.4>
VStem: 66.4004 200<466.7 600> 133 133.4<133.3 466.7> 399.7 200<466.7 600> 399.7 133.3<133.3 466.7>
LayerCount: 2
Back
Fore
SplineSet
599.700195312 466.700195312 m 1xe4
 533 466.700195312 l 1
 533 133.299804688 l 1xe2
 599.700195312 133.299804688 l 1
 599.700195312 0 l 1
 66.400390625 0 l 1
 66.400390625 133.299804688 l 1xf4
 133 133.299804688 l 1
 133 466.700195312 l 1xe8
 66.400390625 466.700195312 l 1
 66.400390625 600 l 1
 266.400390625 600 l 1xf0
 266.400390625 133.299804688 l 1
 399.700195312 133.299804688 l 1xea
 399.700195312 600 l 1
 599.700195312 600 l 1
 599.700195312 466.700195312 l 1xe4
599.700195312 666.700195312 m 1xf4
 399.700195312 666.700195312 l 1
 333 733.299804688 l 1
 266.400390625 666.700195312 l 1xea
 66.400390625 666.700195312 l 1
 199.700195312 800 l 1
 466.400390625 800 l 1
 599.700195312 666.700195312 l 1xf4
EndSplineSet
Validated: 1
EndChar

StartChar: Udieresis
Encoding: 154 220 154
Width: 666
VWidth: 0
Flags: W
HStem: 0 133.3<66.4004 133 266.4 399.7 533 599.7> 466.7 133.3<66.4004 133 533 599.7> 666.7 133.3<66.4004 199.7 466.4 599.7>
VStem: 66.4004 133.3<666.7 800> 133 133.4<133.3 466.7> 399.7 133.3<133.3 466.7> 466.4 133.3<666.7 800>
LayerCount: 2
Back
Fore
SplineSet
599.700195312 466.700195312 m 1xe2
 533 466.700195312 l 1
 533 133.299804688 l 1xe4
 599.700195312 133.299804688 l 1
 599.700195312 0 l 1
 66.400390625 0 l 1
 66.400390625 133.299804688 l 1xf2
 133 133.299804688 l 1
 133 466.700195312 l 1xe8
 66.400390625 466.700195312 l 1
 66.400390625 600 l 1xf0
 266.400390625 600 l 1
 266.400390625 133.299804688 l 1
 399.700195312 133.299804688 l 1
 399.700195312 600 l 1xec
 599.700195312 600 l 1
 599.700195312 466.700195312 l 1xe2
66.400390625 666.700195312 m 1xf0
 66.400390625 800 l 1
 199.700195312 800 l 1
 199.700195312 666.700195312 l 1
 66.400390625 666.700195312 l 1xf0
466.400390625 666.700195312 m 1xe2
 466.400390625 800 l 1
 599.700195312 800 l 1
 599.700195312 666.700195312 l 1
 466.400390625 666.700195312 l 1xe2
EndSplineSet
Validated: 1
EndChar

StartChar: Yacute
Encoding: 155 221 155
Width: 666
VWidth: 0
Flags: W
HStem: 0 133.3<199.7 266.4 399.7 466.4> 466.7 133.3<66.4004 133 533 599.7> 666.7 133.3<399.7 466.4>
VStem: 66.4004 200<466.7 600> 266.4 133.3<133.3 200> 399.7 200<466.7 600>
LayerCount: 2
Back
Fore
SplineSet
533 466.700195312 m 1xf4
 399.700195312 200 l 1
 399.700195312 133.299804688 l 1
 466.400390625 133.299804688 l 1
 466.400390625 0 l 1
 199.700195312 0 l 1
 199.700195312 133.299804688 l 1
 266.400390625 133.299804688 l 1
 266.400390625 200 l 1xe8
 133 466.700195312 l 1
 66.400390625 466.700195312 l 1
 66.400390625 600 l 1
 266.400390625 600 l 1
 266.400390625 466.700195312 l 1
 333 333.299804688 l 1
 399.700195312 466.700195312 l 1
 399.700195312 600 l 1
 599.700195312 600 l 1
 599.700195312 466.700195312 l 1
 533 466.700195312 l 1xf4
266.400390625 666.700195312 m 1
 399.700195312 800 l 1
 599.700195312 800 l 1xe4
 466.400390625 666.700195312 l 1
 266.400390625 666.700195312 l 1
EndSplineSet
Validated: 1
EndChar

StartChar: Thorn
Encoding: 156 222 156
Width: 666
VWidth: 0
Flags: W
HStem: 0 133.4<66.4004 133.1 266.4 333.1> 200.5 133.4<266.4 466.4> 466.7 133.3<266.4 466.4> 666.7 133.3<66.4004 133.1 266.4 333.1>
VStem: 66.4004 266.699<0 133.3 666.7 800> 133.1 133.301<133.4 200.5 333.9 466.7 600 666.7> 466.4 133.3<333.9 466.7>
LayerCount: 2
Back
Fore
SplineSet
499.599609375 600 m 2xf6
 549.700195312 600 599.700195312 550 599.700195312 500 c 2
 599.700195312 299.900390625 l 2
 599.700195312 249.900390625 549.700195312 199.900390625 499.700195312 199.900390625 c 1
 499.700195312 200.5 l 1
 266.400390625 200.5 l 1
 266.400390625 133.299804688 l 1xf6
 333.099609375 133.299804688 l 1
 333.099609375 0 l 1
 66.400390625 0 l 1
 66.400390625 133.400390625 l 1xfa
 133.099609375 133.400390625 l 1
 133.099609375 666.700195312 l 1xf6
 66.400390625 666.700195312 l 1
 66.400390625 800 l 1
 333.099609375 800 l 1
 333.099609375 666.700195312 l 1xfa
 266.400390625 666.700195312 l 1
 266.400390625 600 l 1
 499.599609375 600 l 2xf6
266.400390625 466.700195312 m 1
 266.400390625 333.900390625 l 1
 466.400390625 333.900390625 l 1
 466.400390625 466.700195312 l 1
 266.400390625 466.700195312 l 1
EndSplineSet
Validated: 1
EndChar

StartChar: germandbls
Encoding: 157 223 157
Width: 666
VWidth: 0
Flags: W
HStem: 0 200<266.5 399.8> 0 133.4<399.8 466.4> 666.7 133.3<199.7 433.1>
VStem: 66.4004 133.3<0 666.7> 266.5 133.3<133.4 200> 466.4 133.3<133.4 333.4>
LayerCount: 2
Back
Fore
SplineSet
599.799804688 800 m 1x7c
 599.799804688 666.700195312 l 1
 433.099609375 466.700195312 l 1
 499.799804688 466.700195312 l 2
 549.799804688 466.599609375 599.700195312 416.700195312 599.700195312 366.700195312 c 2
 599.700195312 99.900390625 l 2
 599.599609375 49.900390625 549.700195312 0 499.700195312 0 c 2x7c
 266.5 0 l 1xbc
 266.400390625 0 l 1x7c
 266.5 200 l 1
 399.799804688 200 l 1xbc
 399.799804688 133.400390625 l 1
 466.400390625 133.400390625 l 1
 466.400390625 333.400390625 l 1
 266.400390625 333.400390625 l 1
 266.400390625 466.700195312 l 1
 433.099609375 666.700195312 l 1
 199.700195312 666.700195312 l 1
 199.700195312 0 l 1
 66.400390625 0 l 1
 66.400390625 800 l 1
 599.799804688 800 l 1x7c
EndSplineSet
Validated: 1
EndChar

StartChar: agrave
Encoding: 158 224 158
Width: 666
VWidth: 0
Flags: W
HStem: 0 21G<66.4004 199.7 466.4 599.7> 66.7002 133.3<199.7 466.4> 466.7 133.3<199.7 466.4> 666.7 133.3<199.7 266.4>
VStem: 66.4004 133.3<0 66.7002 200 466.7> 466.4 133.3<0 66.7002 200 466.7>
LayerCount: 2
Back
Fore
SplineSet
499.700195312 600 m 2
 549.700195312 600 599.700195312 550 599.700195312 500 c 2
 599.700195312 0 l 1
 466.400390625 0 l 1
 466.400390625 66.7001953125 l 1
 199.700195312 66.7001953125 l 1
 199.700195312 0 l 1
 66.400390625 0 l 1
 66.400390625 500 l 2
 66.400390625 550 116.400390625 600 166.400390625 600 c 2
 499.700195312 600 l 2
466.400390625 200 m 1
 466.400390625 466.700195312 l 1
 199.700195312 466.700195312 l 1
 199.700195312 200 l 1
 466.400390625 200 l 1
399.700195312 666.700195312 m 1
 199.700195312 666.700195312 l 1
 66.400390625 800 l 1
 266.400390625 800 l 1
 399.700195312 666.700195312 l 1
EndSplineSet
Validated: 1
EndChar

StartChar: aacute
Encoding: 159 225 159
Width: 666
VWidth: 0
Flags: W
HStem: 0 21G<66.4004 199.7 466.4 599.7> 66.7002 133.3<199.7 466.4> 466.7 133.3<199.7 466.4> 666.7 133.3<399.7 466.4>
VStem: 66.4004 133.3<0 66.7002 200 466.7> 466.4 133.3<0 66.7002 200 466.7>
LayerCount: 2
Back
Fore
SplineSet
499.700195312 600 m 2
 549.700195312 600 599.700195312 550 599.700195312 500 c 2
 599.700195312 0 l 1
 466.400390625 0 l 1
 466.400390625 66.7001953125 l 1
 199.700195312 66.7001953125 l 1
 199.700195312 0 l 1
 66.400390625 0 l 1
 66.400390625 500 l 2
 66.400390625 550 116.400390625 600 166.400390625 600 c 2
 499.700195312 600 l 2
466.400390625 200 m 1
 466.400390625 466.700195312 l 1
 199.700195312 466.700195312 l 1
 199.700195312 200 l 1
 466.400390625 200 l 1
266.400390625 666.700195312 m 1
 399.700195312 800 l 1
 599.700195312 800 l 1
 466.400390625 666.700195312 l 1
 266.400390625 666.700195312 l 1
EndSplineSet
Validated: 1
EndChar

StartChar: acircumflex
Encoding: 160 226 160
Width: 666
VWidth: 0
Flags: W
HStem: 0 21G<66.4004 199.7 466.4 599.7> 66.7002 133.3<199.7 466.4> 466.7 133.3<199.7 466.4> 666.7 133.3<199.7 266.4 399.7 466.4>
VStem: 66.4004 133.3<0 66.7002 200 466.7> 466.4 133.3<0 66.7002 200 466.7>
LayerCount: 2
Back
Fore
SplineSet
599.700195312 666.700195312 m 1
 399.700195312 666.700195312 l 1
 333 733.299804688 l 1
 266.400390625 666.700195312 l 1
 66.400390625 666.700195312 l 1
 199.700195312 800 l 1
 466.400390625 800 l 1
 599.700195312 666.700195312 l 1
499.700195312 600 m 2
 549.700195312 600 599.700195312 550 599.700195312 500 c 2
 599.700195312 0 l 1
 466.400390625 0 l 1
 466.400390625 66.7001953125 l 1
 199.700195312 66.7001953125 l 1
 199.700195312 0 l 1
 66.400390625 0 l 1
 66.400390625 500 l 2
 66.400390625 550 116.400390625 600 166.400390625 600 c 2
 499.700195312 600 l 2
466.400390625 200 m 1
 466.400390625 466.700195312 l 1
 199.700195312 466.700195312 l 1
 199.700195312 200 l 1
 466.400390625 200 l 1
EndSplineSet
Validated: 1
EndChar

StartChar: atilde
Encoding: 161 227 161
Width: 666
VWidth: 0
Flags: W
HStem: 0 21G<66.4004 199.7 466.4 599.7> 66.7002 133.3<199.7 466.4> 466.7 133.3<199.7 466.4> 666.7 133.3<66.4004 599.7>
VStem: 66.4004 133.3<0 66.7002 200 466.7> 466.4 133.3<0 66.7002 200 466.7>
LayerCount: 2
Back
Fore
SplineSet
499.700195312 600 m 2
 549.700195312 600 599.700195312 550 599.700195312 500 c 2
 599.700195312 0 l 1
 466.400390625 0 l 1
 466.400390625 66.7001953125 l 1
 199.700195312 66.7001953125 l 1
 199.700195312 0 l 1
 66.400390625 0 l 1
 66.400390625 500 l 2
 66.400390625 550 116.400390625 600 166.400390625 600 c 2
 499.700195312 600 l 2
466.400390625 200 m 1
 466.400390625 466.700195312 l 1
 199.700195312 466.700195312 l 1
 199.700195312 200 l 1
 466.400390625 200 l 1
66.400390625 666.700195312 m 1
 66.400390625 800 l 1
 599.700195312 800 l 1
 599.700195312 666.700195312 l 1
 66.400390625 666.700195312 l 1
EndSplineSet
Validated: 1
EndChar

StartChar: adieresis
Encoding: 162 228 162
Width: 666
VWidth: 0
Flags: W
HStem: 0 21G<66.4004 199.7 466.4 599.7> 66.7002 133.3<199.7 466.4> 466.7 133.3<199.7 466.4> 666.7 133.3<66.4004 199.7 466.4 599.7>
VStem: 66.4004 133.3<0 66.7002 200 466.7 666.7 800> 466.4 133.3<0 66.7002 200 466.7 666.7 800>
LayerCount: 2
Back
Fore
SplineSet
499.700195312 600 m 2
 549.700195312 600 599.700195312 550 599.700195312 500 c 2
 599.700195312 0 l 1
 466.400390625 0 l 1
 466.400390625 66.7001953125 l 1
 199.700195312 66.7001953125 l 1
 199.700195312 0 l 1
 66.400390625 0 l 1
 66.400390625 500 l 2
 66.400390625 550 116.400390625 600 166.400390625 600 c 2
 499.700195312 600 l 2
466.400390625 200 m 1
 466.400390625 466.700195312 l 1
 199.700195312 466.700195312 l 1
 199.700195312 200 l 1
 466.400390625 200 l 1
66.400390625 666.700195312 m 1
 66.400390625 800 l 1
 199.700195312 800 l 1
 199.700195312 666.700195312 l 1
 66.400390625 666.700195312 l 1
466.400390625 666.700195312 m 1
 466.400390625 800 l 1
 599.700195312 800 l 1
 599.700195312 666.700195312 l 1
 466.400390625 666.700195312 l 1
EndSplineSet
Validated: 1
EndChar

StartChar: aring
Encoding: 163 229 163
Width: 666
VWidth: 0
Flags: W
HStem: -0.0996094 21.0996G<66.4004 199.7 466.4 599.7> 66.5996 133.4<199.7 466.4> 466.7 133.3<199.7 299.7 366.3 466.4> 733.3 66.7002<299.7 366.4>
VStem: 66.4004 133.3<-0.0996094 66.5996 200 466.7> 233 66.7002<666.6 733.3> 366.4 66.5996<666.6 733.3> 466.4 133.3<0 66.5996 200 466.7>
LayerCount: 2
Back
Fore
SplineSet
499.700195312 600 m 2
 549.700195312 600 599.700195312 550 599.700195312 500 c 2
 599.700195312 0 l 1
 466.400390625 0 l 1
 466.400390625 66.599609375 l 1
 199.700195312 66.599609375 l 1
 199.700195312 -0.099609375 l 1
 66.400390625 -0.099609375 l 1
 66.400390625 499.900390625 l 2
 66.400390625 549.900390625 116.400390625 599.900390625 166.400390625 599.900390625 c 2
 299.700195312 599.900390625 l 2
 266.299804688 599.900390625 233 633.299804688 233 666.599609375 c 2
 233 733.299804688 l 2
 233 766.700195312 266.299804688 800 299.599609375 800 c 2
 366.299804688 800 l 2
 399.700195312 800 433 766.700195312 433 733.299804688 c 2
 433 666.700195312 l 2
 433 633.299804688 399.599609375 600 366.299804688 600 c 2
 499.700195312 600 l 2
299.700195312 733.299804688 m 1
 299.700195312 666.599609375 l 1
 366.400390625 666.599609375 l 1
 366.400390625 733.299804688 l 1
 299.700195312 733.299804688 l 1
466.400390625 200 m 1
 466.400390625 466.700195312 l 1
 199.700195312 466.700195312 l 1
 199.700195312 200 l 1
 466.400390625 200 l 1
EndSplineSet
Validated: 1
EndChar

StartChar: ae
Encoding: 164 230 164
Width: 666
VWidth: 0
Flags: W
HStem: 0 133.3<466.3 599.7> 66.7002 133.3<199.5 333> 466.7 133.3<466.3 566.3> 666.7 133.3<199.5 333 466.3 599.7>
VStem: 66.2998 133.2<0 66.7002 200 666.7> 333 133.3<200 466.7 600 666.7>
LayerCount: 2
Back
Fore
SplineSet
599.700195312 666.700195312 m 1xbc
 466.299804688 666.700195312 l 1
 466.299804688 600 l 1
 566.299804688 600 l 1
 566.299804688 466.700195312 l 1
 466.299804688 466.700195312 l 1
 466.299804688 133.299804688 l 1
 599.700195312 133.299804688 l 1
 599.700195312 0 l 1
 333 0 l 1xbc
 333 66.7001953125 l 1
 199.5 66.7001953125 l 1x7c
 199.5 0 l 1
 66.2998046875 0 l 1
 66.2998046875 700 l 2
 66.2998046875 750 116.299804688 799.900390625 166.299804688 800 c 2
 599.700195312 800 l 1
 599.700195312 666.700195312 l 1xbc
333 200 m 1x7c
 333 666.700195312 l 1
 199.5 666.700195312 l 1
 199.5 200 l 1
 333 200 l 1x7c
EndSplineSet
Validated: 1
EndChar

StartChar: ccedilla
Encoding: 165 231 165
Width: 666
VWidth: 0
Flags: HMW
LayerCount: 2
Back
Fore
SplineSet
599.799804688 600 m 1
 466.5 600 l 1
 466.5 666.700195312 l 1
 299.799804688 666.700195312 l 1
 299.799804688 616.700195312 249.799804688 566.900390625 199.799804688 566.900390625 c 1
 199.599609375 500 l 1
 249.599609375 500 299.599609375 450 299.599609375 400 c 1
 466.5 400 l 1
 466.5 466.799804688 l 1
 599.799804688 466.799804688 l 1
 599.799804688 366.799804688 l 2
 599.599609375 316.900390625 549.700195312 266.799804688 499.799804688 266.799804688 c 2
 399.799804688 266.799804688 l 1
 399.799804688 200.099609375 l 1
 466.5 200.099609375 l 2
 499.900390625 200.099609375 533.200195312 166.700195312 533.200195312 133.400390625 c 2
 533.200195312 66.7001953125 l 2
 533.200195312 33.2998046875 499.799804688 0 466.5 0 c 2
 266.5 0 l 1
 266.5 66.599609375 l 1
 399.799804688 66.599609375 l 1
 399.799804688 133.299804688 l 1
 266.5 133.299804688 l 1
 266.5 266.599609375 l 1
 266.299804688 266.599609375 l 2
 216.299804688 266.599609375 166.5 316.599609375 166.5 366.599609375 c 1
 116.5 366.599609375 66.5 416.599609375 66.5 466.599609375 c 2
 66.5 600.200195312 l 2
 66.5 650.200195312 116.5 700 166.5 700 c 1
 166.5 750 216.5 800 266.5 800 c 2
 499.799804688 800 l 2
 549.799804688 800 599.799804688 750 599.799804688 700 c 2
 599.799804688 600 l 1
EndSplineSet
Validated: 1
EndChar

StartChar: egrave
Encoding: 166 232 166
Width: 666
VWidth: 0
Flags: W
HStem: 0 133.3<199.6 599.7> 266.7 133.3<199.6 399.6> 466.7 133.3<199.6 599.7> 666.7 133.3<199.7 266.4>
VStem: 66.4004 133.199<133.3 266.7 400 466.7>
LayerCount: 2
Back
Fore
SplineSet
599.700195312 466.700195312 m 1
 199.599609375 466.700195312 l 1
 199.599609375 400 l 1
 399.599609375 400 l 1
 399.599609375 266.700195312 l 1
 199.599609375 266.700195312 l 1
 199.599609375 133.299804688 l 1
 599.700195312 133.299804688 l 1
 599.700195312 0 l 1
 66.400390625 0 l 1
 66.400390625 600 l 1
 599.700195312 600 l 1
 599.700195312 466.700195312 l 1
399.700195312 666.700195312 m 1
 199.700195312 666.700195312 l 1
 66.400390625 800 l 1
 266.400390625 800 l 1
 399.700195312 666.700195312 l 1
EndSplineSet
Validated: 1
EndChar

StartChar: eacute
Encoding: 167 233 167
Width: 666
VWidth: 0
Flags: W
HStem: 0 133.3<199.6 599.7> 266.7 133.3<199.6 399.6> 466.7 133.3<199.6 599.7> 666.7 133.3<399.7 466.4>
VStem: 66.4004 133.199<133.3 266.7 400 466.7>
LayerCount: 2
Back
Fore
SplineSet
599.700195312 466.700195312 m 1
 199.599609375 466.700195312 l 1
 199.599609375 400 l 1
 399.599609375 400 l 1
 399.599609375 266.700195312 l 1
 199.599609375 266.700195312 l 1
 199.599609375 133.299804688 l 1
 599.700195312 133.299804688 l 1
 599.700195312 0 l 1
 66.400390625 0 l 1
 66.400390625 600 l 1
 599.700195312 600 l 1
 599.700195312 466.700195312 l 1
266.400390625 666.700195312 m 1
 399.700195312 800 l 1
 599.700195312 800 l 1
 466.400390625 666.700195312 l 1
 266.400390625 666.700195312 l 1
EndSplineSet
Validated: 1
EndChar

StartChar: ecircumflex
Encoding: 168 234 168
Width: 666
VWidth: 0
Flags: W
HStem: 0 133.3<199.6 599.7> 266.7 133.3<199.6 399.6> 466.7 133.3<199.6 599.7> 666.7 133.3<199.7 266.4 399.7 466.4>
VStem: 66.4004 133.199<133.3 266.7 400 466.7>
LayerCount: 2
Back
Fore
SplineSet
599.700195312 466.700195312 m 1
 199.599609375 466.700195312 l 1
 199.599609375 400 l 1
 399.599609375 400 l 1
 399.599609375 266.700195312 l 1
 199.599609375 266.700195312 l 1
 199.599609375 133.299804688 l 1
 599.700195312 133.299804688 l 1
 599.700195312 0 l 1
 66.400390625 0 l 1
 66.400390625 600 l 1
 599.700195312 600 l 1
 599.700195312 466.700195312 l 1
599.700195312 666.700195312 m 1
 399.700195312 666.700195312 l 1
 333 733.299804688 l 1
 266.400390625 666.700195312 l 1
 66.400390625 666.700195312 l 1
 199.700195312 800 l 1
 466.400390625 800 l 1
 599.700195312 666.700195312 l 1
EndSplineSet
Validated: 1
EndChar

StartChar: edieresis
Encoding: 169 235 169
Width: 666
VWidth: 0
Flags: W
HStem: 0 133.3<199.6 599.7> 266.7 133.3<199.6 399.6> 466.7 133.3<199.6 599.7> 666.7 133.3<66.4004 199.7 466.4 599.7>
VStem: 66.4004 133.199<133.3 266.7 400 466.7 666.7 800> 466.4 133.3<666.7 800>
LayerCount: 2
Back
Fore
SplineSet
599.700195312 466.700195312 m 1
 199.599609375 466.700195312 l 1
 199.599609375 400 l 1
 399.599609375 400 l 1
 399.599609375 266.700195312 l 1
 199.599609375 266.700195312 l 1
 199.599609375 133.299804688 l 1
 599.700195312 133.299804688 l 1
 599.700195312 0 l 1
 66.400390625 0 l 1
 66.400390625 600 l 1
 599.700195312 600 l 1
 599.700195312 466.700195312 l 1
66.400390625 666.700195312 m 1
 66.400390625 800 l 1
 199.700195312 800 l 1
 199.700195312 666.700195312 l 1
 66.400390625 666.700195312 l 1
466.400390625 666.700195312 m 1
 466.400390625 800 l 1
 599.700195312 800 l 1
 599.700195312 666.700195312 l 1
 466.400390625 666.700195312 l 1
EndSplineSet
Validated: 1
EndChar

StartChar: igrave
Encoding: 170 236 170
Width: 666
VWidth: 0
Flags: W
HStem: 0 133.3<66.4004 266.3 399.7 599.7> 466.7 133.3<66.4004 266.3 399.7 599.7> 666.7 133.3<199.7 266.4>
VStem: 266.3 133.4<133.3 466.7>
LayerCount: 2
Back
Fore
SplineSet
66.400390625 600 m 1
 599.700195312 600 l 1
 599.700195312 466.700195312 l 1
 399.700195312 466.700195312 l 1
 399.700195312 133.299804688 l 1
 599.700195312 133.299804688 l 1
 599.700195312 0 l 1
 66.400390625 0 l 1
 66.400390625 133.299804688 l 1
 266.299804688 133.299804688 l 1
 266.299804688 466.700195312 l 1
 66.400390625 466.700195312 l 1
 66.400390625 600 l 1
399.700195312 666.700195312 m 1
 199.700195312 666.700195312 l 1
 66.400390625 800 l 1
 266.400390625 800 l 1
 399.700195312 666.700195312 l 1
EndSplineSet
Validated: 1
EndChar

StartChar: iacute
Encoding: 171 237 171
Width: 666
VWidth: 0
Flags: W
HStem: 0 133.3<66.4004 266.3 399.7 599.7> 466.7 133.3<66.4004 266.3 399.7 599.7> 666.7 133.3<399.7 466.4>
VStem: 266.3 133.4<133.3 466.7>
LayerCount: 2
Back
Fore
SplineSet
66.400390625 600 m 1
 599.700195312 600 l 1
 599.700195312 466.700195312 l 1
 399.700195312 466.700195312 l 1
 399.700195312 133.299804688 l 1
 599.700195312 133.299804688 l 1
 599.700195312 0 l 1
 66.400390625 0 l 1
 66.400390625 133.299804688 l 1
 266.299804688 133.299804688 l 1
 266.299804688 466.700195312 l 1
 66.400390625 466.700195312 l 1
 66.400390625 600 l 1
266.400390625 666.700195312 m 1
 399.700195312 800 l 1
 599.700195312 800 l 1
 466.400390625 666.700195312 l 1
 266.400390625 666.700195312 l 1
EndSplineSet
Validated: 1
EndChar

StartChar: icircumflex
Encoding: 172 238 172
Width: 666
VWidth: 0
Flags: W
HStem: 0 133.3<66.4004 266.3 399.7 599.7> 466.7 133.3<66.4004 266.3 399.7 599.7> 666.7 133.3<199.7 266.4 399.7 466.4>
VStem: 266.3 133.4<133.3 466.7>
LayerCount: 2
Back
Fore
SplineSet
66.400390625 600 m 1
 599.700195312 600 l 1
 599.700195312 466.700195312 l 1
 399.700195312 466.700195312 l 1
 399.700195312 133.299804688 l 1
 599.700195312 133.299804688 l 1
 599.700195312 0 l 1
 66.400390625 0 l 1
 66.400390625 133.299804688 l 1
 266.299804688 133.299804688 l 1
 266.299804688 466.700195312 l 1
 66.400390625 466.700195312 l 1
 66.400390625 600 l 1
599.700195312 666.700195312 m 1
 399.700195312 666.700195312 l 1
 333 733.299804688 l 1
 266.400390625 666.700195312 l 1
 66.400390625 666.700195312 l 1
 199.700195312 800 l 1
 466.400390625 800 l 1
 599.700195312 666.700195312 l 1
EndSplineSet
Validated: 1
EndChar

StartChar: idieresis
Encoding: 173 239 173
Width: 666
VWidth: 0
Flags: W
HStem: 0 133.3<66.4004 266.3 399.7 599.7> 466.7 133.3<66.4004 266.3 399.7 599.7> 666.7 133.3<66.4004 199.7 466.4 599.7>
VStem: 66.4004 133.3<666.7 800> 266.3 133.4<133.3 466.7> 466.4 133.3<666.7 800>
LayerCount: 2
Back
Fore
SplineSet
66.400390625 600 m 1
 599.700195312 600 l 1
 599.700195312 466.700195312 l 1
 399.700195312 466.700195312 l 1
 399.700195312 133.299804688 l 1
 599.700195312 133.299804688 l 1
 599.700195312 0 l 1
 66.400390625 0 l 1
 66.400390625 133.299804688 l 1
 266.299804688 133.299804688 l 1
 266.299804688 466.700195312 l 1
 66.400390625 466.700195312 l 1
 66.400390625 600 l 1
466.400390625 666.700195312 m 1
 466.400390625 800 l 1
 599.700195312 800 l 1
 599.700195312 666.700195312 l 1
 466.400390625 666.700195312 l 1
66.400390625 666.700195312 m 1
 66.400390625 800 l 1
 199.700195312 800 l 1
 199.700195312 666.700195312 l 1
 66.400390625 666.700195312 l 1
EndSplineSet
Validated: 1
EndChar

StartChar: eth
Encoding: 174 240 174
Width: 666
VWidth: 0
Flags: W
HStem: 0 133.3<199.6 333> 333.3 133.4<199.6 333> 666.7 133.3<199.6 333>
VStem: 66.2998 133.3<133.3 333.3 466.7 666.7> 466.3 133.3<265.7 534.3>
CounterMasks: 1 e0
LayerCount: 2
Back
Fore
SplineSet
499.599609375 667.599609375 m 2
 549.649877126 667.599609375 599.599760884 617.699993266 599.599760884 567.750260814 c 0
 599.599609375 567.599609375 l 2
 599.599609375 232.400390625 l 2
 599.599609375 182.400390625 549.599609375 132.400390625 499.599609375 132.400390625 c 2
 466.299804688 132.400390625 l 1
 466.299804688 100 l 2
 466.299804688 50 416.299804688 0 366.299804688 0 c 2
 66.2998046875 0 l 1
 66.2998046875 800 l 1
 199.599609375 800 l 1
 366.299804688 800 l 2
 416.299804688 800 466.299804688 750 466.299804688 700 c 2
 466.299804688 667.599609375 l 1
 499.599609375 667.599609375 l 2
466.299804688 265.700195312 m 1
 466.299804688 534.299804688 l 1
 433 534.299804688 l 2
 383 534.299804688 333 584.299804688 333 634.299804688 c 2
 333 666.700195312 l 1
 199.599609375 666.700195312 l 1
 199.599609375 466.700195312 l 1
 333 466.700195312 l 1
 333 333.299804688 l 1
 199.599609375 333.299804688 l 1
 199.599609375 133.299804688 l 1
 333 133.299804688 l 1
 333 165.700195312 l 2
 333 215.700195312 383 265.700195312 433 265.700195312 c 2
 466.299804688 265.700195312 l 1
EndSplineSet
Validated: 1
EndChar

StartChar: ntilde
Encoding: 175 241 175
Width: 666
VWidth: 0
Flags: W
HStem: 0 133.3<399.7 466.4> 466.9 133.1<199.7 266.4> 666.7 133.3<66.4004 599.7>
VStem: 66.4004 133.3<0 466.9> 266.4 133.3<133.3 466.9> 466.4 133.3<133.3 600>
CounterMasks: 1 1c
LayerCount: 2
Back
Fore
SplineSet
66.400390625 666.700195312 m 1
 66.400390625 800 l 1
 599.700195312 800 l 1
 599.700195312 666.700195312 l 1
 66.400390625 666.700195312 l 1
466.400390625 600 m 1
 599.700195312 600 l 1
 599.700195312 100 l 2
 599.700195312 50 549.700195312 0 499.700195312 0 c 2
 366.400390625 0 l 2
 316.400390625 0 266.400390625 50 266.400390625 100 c 2
 266.400390625 466.900390625 l 1
 199.700195312 466.900390625 l 1
 199.700195312 0 l 1
 66.400390625 0 l 1
 66.400390625 500 l 2
 66.400390625 550 116.400390625 600 166.400390625 600 c 2
 299.400390625 600 l 2
 349.400390625 600 399.400390625 550 399.400390625 500 c 2
 399.700195312 133.299804688 l 1
 466.400390625 133.299804688 l 1
 466.400390625 600 l 1
EndSplineSet
Validated: 1
EndChar

StartChar: ograve
Encoding: 176 242 176
Width: 666
VWidth: 0
Flags: W
HStem: 0 133.3<299.7 366.4> 466.2 133.3<299.7 366.4> 666.7 133.3<199.7 266.4>
VStem: 66.4004 133.3<265.7 333.8> 466.4 133.3<265.7 333.8>
LayerCount: 2
Back
Fore
SplineSet
499.700195312 467.099609375 m 1
 549.700195312 467.099609375 599.700195312 417.099609375 599.700195312 367.099609375 c 2
 599.700195312 232.400390625 l 2
 599.700195312 182.400390625 549.700195312 132.400390625 499.700195312 132.400390625 c 1
 499.700195312 100 l 2
 499.700195312 50 449.700195312 0 399.700195312 0 c 2
 266.400390625 0 l 2
 216.400390625 0 166.400390625 50 166.400390625 100 c 2
 166.400390625 132.400390625 l 1
 116.400390625 132.400390625 66.400390625 182.400390625 66.400390625 232.400390625 c 2
 66.400390625 367.099609375 l 2
 66.400390625 417.099609375 116.400390625 467.099609375 166.400390625 467.099609375 c 1
 166.400390625 499.5 l 2
 166.400390625 549.5 216.400390625 599.5 266.400390625 599.5 c 2
 399.700195312 599.5 l 2
 449.700195312 599.5 499.700195312 549.5 499.700195312 499.5 c 2
 499.700195312 467.099609375 l 1
466.400390625 265.700195312 m 1
 466.400390625 333.799804688 l 1
 416.400390625 333.799804688 366.400390625 383.799804688 366.400390625 433.799804688 c 2
 366.400390625 466.200195312 l 1
 299.700195312 466.200195312 l 1
 299.700195312 433.799804688 l 2
 299.700195312 383.799804688 249.700195312 333.799804688 199.700195312 333.799804688 c 1
 199.700195312 265.700195312 l 1
 249.700195312 265.700195312 299.700195312 215.700195312 299.700195312 165.700195312 c 2
 299.700195312 133.299804688 l 1
 366.400390625 133.299804688 l 1
 366.400390625 165.700195312 l 2
 366.400390625 215.700195312 416.400390625 265.700195312 466.400390625 265.700195312 c 1
399.700195312 666.700195312 m 1
 199.700195312 666.700195312 l 1
 66.400390625 800 l 1
 266.400390625 800 l 1
 399.700195312 666.700195312 l 1
EndSplineSet
Validated: 1
EndChar

StartChar: oacute
Encoding: 177 243 177
Width: 666
VWidth: 0
Flags: W
HStem: 0 133.3<299.7 366.4> 466.2 133.3<299.7 366.4> 666.7 133.3<399.7 466.4>
VStem: 66.4004 133.3<265.7 333.8> 466.4 133.3<265.7 333.8>
LayerCount: 2
Back
Fore
SplineSet
499.700195312 467.099609375 m 1
 549.700195312 467.099609375 599.700195312 417.099609375 599.700195312 367.099609375 c 2
 599.700195312 232.400390625 l 2
 599.700195312 182.400390625 549.700195312 132.400390625 499.700195312 132.400390625 c 1
 499.700195312 100 l 2
 499.700195312 50 449.700195312 0 399.700195312 0 c 2
 266.400390625 0 l 2
 216.400390625 0 166.400390625 50 166.400390625 100 c 2
 166.400390625 132.400390625 l 1
 116.400390625 132.400390625 66.400390625 182.400390625 66.400390625 232.400390625 c 2
 66.400390625 367.099609375 l 2
 66.400390625 417.099609375 116.400390625 467.099609375 166.400390625 467.099609375 c 1
 166.400390625 499.5 l 2
 166.400390625 549.5 216.400390625 599.5 266.400390625 599.5 c 2
 399.700195312 599.5 l 2
 449.700195312 599.5 499.700195312 549.5 499.700195312 499.5 c 2
 499.700195312 467.099609375 l 1
466.400390625 265.700195312 m 1
 466.400390625 333.799804688 l 1
 416.400390625 333.799804688 366.400390625 383.799804688 366.400390625 433.799804688 c 2
 366.400390625 466.200195312 l 1
 299.700195312 466.200195312 l 1
 299.700195312 433.799804688 l 2
 299.700195312 383.799804688 249.700195312 333.799804688 199.700195312 333.799804688 c 1
 199.700195312 265.700195312 l 1
 249.700195312 265.700195312 299.700195312 215.700195312 299.700195312 165.700195312 c 2
 299.700195312 133.299804688 l 1
 366.400390625 133.299804688 l 1
 366.400390625 165.700195312 l 2
 366.400390625 215.700195312 416.400390625 265.700195312 466.400390625 265.700195312 c 1
266.400390625 666.700195312 m 1
 399.700195312 800 l 1
 599.700195312 800 l 1
 466.400390625 666.700195312 l 1
 266.400390625 666.700195312 l 1
EndSplineSet
Validated: 1
EndChar

StartChar: ocircumflex
Encoding: 178 244 178
Width: 666
VWidth: 0
Flags: W
HStem: 0 133.3<299.7 366.4> 466.2 133.3<299.7 366.4> 666.7 133.3<199.7 266.4 399.7 466.4>
VStem: 66.4004 133.3<265.7 333.8> 466.4 133.3<265.7 333.8>
LayerCount: 2
Back
Fore
SplineSet
499.700195312 467.099609375 m 1
 549.700195312 467.099609375 599.700195312 417.099609375 599.700195312 367.099609375 c 2
 599.700195312 232.400390625 l 2
 599.700195312 182.400390625 549.700195312 132.400390625 499.700195312 132.400390625 c 1
 499.700195312 100 l 2
 499.700195312 50 449.700195312 0 399.700195312 0 c 2
 266.400390625 0 l 2
 216.400390625 0 166.400390625 50 166.400390625 100 c 2
 166.400390625 132.400390625 l 1
 116.400390625 132.400390625 66.400390625 182.400390625 66.400390625 232.400390625 c 2
 66.400390625 367.099609375 l 2
 66.400390625 417.099609375 116.400390625 467.099609375 166.400390625 467.099609375 c 1
 166.400390625 499.5 l 2
 166.400390625 549.5 216.400390625 599.5 266.400390625 599.5 c 2
 399.700195312 599.5 l 2
 449.700195312 599.5 499.700195312 549.5 499.700195312 499.5 c 2
 499.700195312 467.099609375 l 1
466.400390625 265.700195312 m 1
 466.400390625 333.799804688 l 1
 416.400390625 333.799804688 366.400390625 383.799804688 366.400390625 433.799804688 c 2
 366.400390625 466.200195312 l 1
 299.700195312 466.200195312 l 1
 299.700195312 433.799804688 l 2
 299.700195312 383.799804688 249.700195312 333.799804688 199.700195312 333.799804688 c 1
 199.700195312 265.700195312 l 1
 249.700195312 265.700195312 299.700195312 215.700195312 299.700195312 165.700195312 c 2
 299.700195312 133.299804688 l 1
 366.400390625 133.299804688 l 1
 366.400390625 165.700195312 l 2
 366.400390625 215.700195312 416.400390625 265.700195312 466.400390625 265.700195312 c 1
599.700195312 666.700195312 m 1
 399.700195312 666.700195312 l 1
 333 733.299804688 l 1
 266.400390625 666.700195312 l 1
 66.400390625 666.700195312 l 1
 199.700195312 800 l 1
 466.400390625 800 l 1
 599.700195312 666.700195312 l 1
EndSplineSet
Validated: 1
EndChar

StartChar: otilde
Encoding: 179 245 179
Width: 666
VWidth: 0
Flags: W
HStem: 0 133.3<299.7 366.4> 466.2 133.3<299.7 366.4> 666.7 133.3<66.4004 599.7>
VStem: 66.4004 133.3<265.7 333.8> 466.4 133.3<265.7 333.8>
LayerCount: 2
Back
Fore
SplineSet
499.700195312 467.099609375 m 1
 549.700195312 467.099609375 599.700195312 417.099609375 599.700195312 367.099609375 c 2
 599.700195312 232.400390625 l 2
 599.700195312 182.400390625 549.700195312 132.400390625 499.700195312 132.400390625 c 1
 499.700195312 100 l 2
 499.700195312 50 449.700195312 0 399.700195312 0 c 2
 266.400390625 0 l 2
 216.400390625 0 166.400390625 50 166.400390625 100 c 2
 166.400390625 132.400390625 l 1
 116.400390625 132.400390625 66.400390625 182.400390625 66.400390625 232.400390625 c 2
 66.400390625 367.099609375 l 2
 66.400390625 417.099609375 116.400390625 467.099609375 166.400390625 467.099609375 c 1
 166.400390625 499.5 l 2
 166.400390625 549.5 216.400390625 599.5 266.400390625 599.5 c 2
 399.700195312 599.5 l 2
 449.700195312 599.5 499.700195312 549.5 499.700195312 499.5 c 2
 499.700195312 467.099609375 l 1
466.400390625 265.700195312 m 1
 466.400390625 333.799804688 l 1
 416.400390625 333.799804688 366.400390625 383.799804688 366.400390625 433.799804688 c 2
 366.400390625 466.200195312 l 1
 299.700195312 466.200195312 l 1
 299.700195312 433.799804688 l 2
 299.700195312 383.799804688 249.700195312 333.799804688 199.700195312 333.799804688 c 1
 199.700195312 265.700195312 l 1
 249.700195312 265.700195312 299.700195312 215.700195312 299.700195312 165.700195312 c 2
 299.700195312 133.299804688 l 1
 366.400390625 133.299804688 l 1
 366.400390625 165.700195312 l 2
 366.400390625 215.700195312 416.400390625 265.700195312 466.400390625 265.700195312 c 1
66.400390625 666.700195312 m 1
 66.400390625 800 l 1
 599.700195312 800 l 1
 599.700195312 666.700195312 l 1
 66.400390625 666.700195312 l 1
EndSplineSet
Validated: 1
EndChar

StartChar: odieresis
Encoding: 180 246 180
Width: 666
VWidth: 0
Flags: W
HStem: 0 133.3<299.7 366.4> 466.2 133.3<299.7 366.4> 666.7 133.3<66.4004 199.7 466.4 599.7>
VStem: 66.4004 133.3<265.7 333.8 666.7 800> 466.4 133.3<265.7 333.8 666.7 800>
LayerCount: 2
Back
Fore
SplineSet
499.700195312 467.099609375 m 1
 549.700195312 467.099609375 599.700195312 417.099609375 599.700195312 367.099609375 c 2
 599.700195312 232.400390625 l 2
 599.700195312 182.400390625 549.700195312 132.400390625 499.700195312 132.400390625 c 1
 499.700195312 100 l 2
 499.700195312 50 449.700195312 0 399.700195312 0 c 2
 266.400390625 0 l 2
 216.400390625 0 166.400390625 50 166.400390625 100 c 2
 166.400390625 132.400390625 l 1
 116.400390625 132.400390625 66.400390625 182.400390625 66.400390625 232.400390625 c 2
 66.400390625 367.099609375 l 2
 66.400390625 417.099609375 116.400390625 467.099609375 166.400390625 467.099609375 c 1
 166.400390625 499.5 l 2
 166.400390625 549.5 216.400390625 599.5 266.400390625 599.5 c 2
 399.700195312 599.5 l 2
 449.700195312 599.5 499.700195312 549.5 499.700195312 499.5 c 2
 499.700195312 467.099609375 l 1
466.400390625 265.700195312 m 1
 466.400390625 333.799804688 l 1
 416.400390625 333.799804688 366.400390625 383.799804688 366.400390625 433.799804688 c 2
 366.400390625 466.200195312 l 1
 299.700195312 466.200195312 l 1
 299.700195312 433.799804688 l 2
 299.700195312 383.799804688 249.700195312 333.799804688 199.700195312 333.799804688 c 1
 199.700195312 265.700195312 l 1
 249.700195312 265.700195312 299.700195312 215.700195312 299.700195312 165.700195312 c 2
 299.700195312 133.299804688 l 1
 366.400390625 133.299804688 l 1
 366.400390625 165.700195312 l 2
 366.400390625 215.700195312 416.400390625 265.700195312 466.400390625 265.700195312 c 1
66.400390625 666.700195312 m 1
 66.400390625 800 l 1
 199.700195312 800 l 1
 199.700195312 666.700195312 l 1
 66.400390625 666.700195312 l 1
466.400390625 666.700195312 m 1
 466.400390625 800 l 1
 599.700195312 800 l 1
 599.700195312 666.700195312 l 1
 466.400390625 666.700195312 l 1
EndSplineSet
Validated: 1
EndChar

StartChar: divide
Encoding: 181 247 181
Width: 666
VWidth: 0
Flags: W
HStem: 133.4 133.3<266.4 399.7> 333.4 133.3<66.4004 599.7> 533.4 133.3<266.4 399.7>
VStem: 266.4 133.3<133.4 266.7 533.4 666.7>
CounterMasks: 1 e0
LayerCount: 2
Back
Fore
SplineSet
66.400390625 333.400390625 m 1
 66.400390625 466.700195312 l 1
 599.700195312 466.700195312 l 1
 599.700195312 333.400390625 l 1
 66.400390625 333.400390625 l 1
266.400390625 133.400390625 m 1
 266.400390625 266.700195312 l 1
 399.700195312 266.700195312 l 1
 399.700195312 133.400390625 l 1
 266.400390625 133.400390625 l 1
266.400390625 533.400390625 m 1
 266.400390625 666.700195312 l 1
 399.700195312 666.700195312 l 1
 399.700195312 533.400390625 l 1
 266.400390625 533.400390625 l 1
EndSplineSet
Validated: 1
EndChar

StartChar: oslash
Encoding: 182 248 182
Width: 666
VWidth: 0
Flags: W
HStem: 0 133.3<299.6 366.3> 666.7 133.3<299.6 366.3>
VStem: 66.2998 133.3<266.4 534.3> 466.3 133.3<265.7 533.6>
LayerCount: 2
Back
Fore
SplineSet
499.599609375 667.599609375 m 1
 549.549492779 667.599609375 599.59976058 617.699792333 599.59976058 567.749959112 c 0
 599.599609375 567.599609375 l 2
 599.599609375 232.400390625 l 2
 599.599609375 182.400390625 549.599609375 132.400390625 499.599609375 132.400390625 c 1
 499.599609375 100 l 2
 499.599609375 50 449.599609375 0 399.599609375 0 c 2
 266.299804688 0 l 2
 216.299804688 0 166.299804688 50 166.299804688 100 c 2
 166.299804688 132.400390625 l 1
 116.299804688 132.400390625 66.2998046875 182.400390625 66.2998046875 232.400390625 c 2
 66.2998046875 567.599609375 l 2
 66.2998046875 617.599609375 116.299804688 667.599609375 166.299804688 667.599609375 c 1
 166.299804688 700 l 2
 166.299804688 750 216.299804688 800 266.299804688 800 c 2
 399.599609375 800 l 2
 449.599609375 800 499.599609375 750 499.599609375 700 c 2
 499.599609375 667.599609375 l 1
199.599609375 534.299804688 m 1
 199.599609375 266.400390625 l 1
 370.799804688 608 l 1
 367.900390625 616.599609375 366.299804688 625.400390625 366.299804688 634.299804688 c 2
 366.299804688 666.700195312 l 1
 299.599609375 666.700195312 l 1
 299.599609375 634.299804688 l 2
 299.599609375 584.299804688 249.599609375 534.299804688 199.599609375 534.299804688 c 1
466.299804688 265.700195312 m 1
 466.299804688 533.599609375 l 1
 295.099609375 192 l 1
 298 183.400390625 299.599609375 174.599609375 299.599609375 165.700195312 c 2
 299.599609375 133.299804688 l 1
 366.299804688 133.299804688 l 1
 366.299804688 165.700195312 l 2
 366.299804688 215.700195312 416.299804688 265.700195312 466.299804688 265.700195312 c 1
EndSplineSet
Validated: 1
EndChar

StartChar: ugrave
Encoding: 183 249 183
Width: 666
VWidth: 0
Flags: W
HStem: 0 133.3<199.7 466.4> 466.7 133.3<66.4004 133 532.9 599.7> 666.7 133.3<199.7 266.4>
VStem: 66.2998 200.101<287.525 379.175 466.7 557.585> 66.2998 133.4<133.3 266.7> 399.7 199.899<287.462 379.137 466.7 557.585> 466.4 133.199<133.3 266.6>
LayerCount: 2
Back
Fore
SplineSet
399.700195312 666.700195312 m 1xf4
 199.700195312 666.700195312 l 1xec
 66.400390625 800 l 1
 266.400390625 800 l 1
 399.700195312 666.700195312 l 1xf4
599.700195312 466.700195312 m 1
 532.900390625 466.700195312 l 1
 532.900390625 400 l 1
 566.299804688 400 599.599609375 366.599609375 599.599609375 333.299804688 c 2xe4
 599.599609375 100 l 2
 599.599609375 50 549.599609375 0 499.599609375 0 c 2
 166.299804688 0 l 2
 116.299804688 0 66.2998046875 50 66.2998046875 100 c 2xea
 66.2998046875 333.299804688 l 2
 66.2998046875 366.700195312 99.7001953125 400 133 400 c 1
 133 466.700195312 l 1
 66.400390625 466.700195312 l 1
 66.400390625 600 l 1
 166.400390625 600 l 2
 216.400390625 600 266.400390625 550 266.400390625 500 c 2
 266.400390625 333.400390625 l 2xf0
 266.400390625 300 233 266.700195312 199.700195312 266.700195312 c 1
 199.700195312 133.299804688 l 1
 466.400390625 133.299804688 l 1
 466.400390625 266.599609375 l 1xea
 433 266.599609375 399.700195312 300 399.700195312 333.299804688 c 2
 399.700195312 500 l 2
 399.700195312 550 449.700195312 600 499.700195312 600 c 2
 599.700195312 600 l 1
 599.700195312 466.700195312 l 1
EndSplineSet
Validated: 1
EndChar

StartChar: uacute
Encoding: 184 250 184
Width: 666
VWidth: 0
Flags: W
HStem: 0 133.3<199.7 466.4> 466.7 133.3<66.4004 133 532.9 599.7> 666.7 133.3<399.7 466.4>
VStem: 66.2998 200.101<287.525 379.175 466.7 557.585> 66.2998 133.4<133.3 266.7> 399.7 199.899<287.462 379.137 466.7 557.585> 466.4 133.199<133.3 266.6>
LayerCount: 2
Back
Fore
SplineSet
266.400390625 666.700195312 m 1xf2
 399.700195312 800 l 1xf4
 599.700195312 800 l 1
 466.400390625 666.700195312 l 1
 266.400390625 666.700195312 l 1xf2
599.700195312 466.700195312 m 1
 532.900390625 466.700195312 l 1
 532.900390625 400 l 1
 566.299804688 400 599.599609375 366.599609375 599.599609375 333.299804688 c 2xe4
 599.599609375 100 l 2
 599.599609375 50 549.599609375 0 499.599609375 0 c 2
 166.299804688 0 l 2
 116.299804688 0 66.2998046875 50 66.2998046875 100 c 2xea
 66.2998046875 333.299804688 l 2
 66.2998046875 366.700195312 99.7001953125 400 133 400 c 1
 133 466.700195312 l 1
 66.400390625 466.700195312 l 1
 66.400390625 600 l 1
 166.400390625 600 l 2
 216.400390625 600 266.400390625 550 266.400390625 500 c 2
 266.400390625 333.400390625 l 2xf0
 266.400390625 300 233 266.700195312 199.700195312 266.700195312 c 1
 199.700195312 133.299804688 l 1
 466.400390625 133.299804688 l 1
 466.400390625 266.599609375 l 1xea
 433 266.599609375 399.700195312 300 399.700195312 333.299804688 c 2
 399.700195312 500 l 2
 399.700195312 550 449.700195312 600 499.700195312 600 c 2
 599.700195312 600 l 1
 599.700195312 466.700195312 l 1
EndSplineSet
Validated: 1
EndChar

StartChar: ucircumflex
Encoding: 185 251 185
Width: 666
VWidth: 0
Flags: W
HStem: 0 133.3<199.7 466.4> 466.7 133.3<66.4004 133 532.9 599.7> 666.7 133.3<199.7 266.4 399.7 466.4>
VStem: 66.2998 200.101<287.525 379.175 466.7 557.585> 66.2998 133.4<133.3 266.7> 399.7 199.899<287.462 379.137 466.7 557.585> 466.4 133.199<133.3 266.6>
LayerCount: 2
Back
Fore
SplineSet
599.700195312 666.700195312 m 1xea
 399.700195312 666.700195312 l 1
 333 733.299804688 l 1
 266.400390625 666.700195312 l 1xf4
 66.400390625 666.700195312 l 1
 199.700195312 800 l 1
 466.400390625 800 l 1
 599.700195312 666.700195312 l 1xea
599.700195312 466.700195312 m 1
 532.900390625 466.700195312 l 1
 532.900390625 400 l 1
 566.299804688 400 599.599609375 366.599609375 599.599609375 333.299804688 c 2xe4
 599.599609375 100 l 2
 599.599609375 50 549.599609375 0 499.599609375 0 c 2
 166.299804688 0 l 2
 116.299804688 0 66.2998046875 50 66.2998046875 100 c 2xea
 66.2998046875 333.299804688 l 2
 66.2998046875 366.700195312 99.7001953125 400 133 400 c 1
 133 466.700195312 l 1
 66.400390625 466.700195312 l 1
 66.400390625 600 l 1
 166.400390625 600 l 2
 216.400390625 600 266.400390625 550 266.400390625 500 c 2
 266.400390625 333.400390625 l 2xf0
 266.400390625 300 233 266.700195312 199.700195312 266.700195312 c 1
 199.700195312 133.299804688 l 1
 466.400390625 133.299804688 l 1
 466.400390625 266.599609375 l 1xea
 433 266.599609375 399.700195312 300 399.700195312 333.299804688 c 2
 399.700195312 500 l 2
 399.700195312 550 449.700195312 600 499.700195312 600 c 2
 599.700195312 600 l 1
 599.700195312 466.700195312 l 1
EndSplineSet
Validated: 1
EndChar

StartChar: udieresis
Encoding: 186 252 186
Width: 666
VWidth: 0
Flags: W
HStem: 0 133.3<199.7 466.4> 466.7 133.3<66.4004 133 532.9 599.7> 666.7 133.3<66.4004 199.7 466.4 599.7>
VStem: 66.2998 200.101<287.525 379.175 466.7 557.585> 66.2998 133.4<133.3 266.7 666.7 800> 399.7 199.899<287.462 379.137 466.7 557.585> 466.4 133.199<133.3 266.6 666.7 800>
LayerCount: 2
Back
Fore
SplineSet
66.400390625 666.700195312 m 1xe8
 66.400390625 800 l 1
 199.700195312 800 l 1
 199.700195312 666.700195312 l 1
 66.400390625 666.700195312 l 1xe8
466.400390625 666.700195312 m 1xe2
 466.400390625 800 l 1
 599.700195312 800 l 1
 599.700195312 666.700195312 l 1
 466.400390625 666.700195312 l 1xe2
599.700195312 466.700195312 m 1
 532.900390625 466.700195312 l 1
 532.900390625 400 l 1
 566.299804688 400 599.599609375 366.599609375 599.599609375 333.299804688 c 2xe4
 599.599609375 100 l 2
 599.599609375 50 549.599609375 0 499.599609375 0 c 2
 166.299804688 0 l 2
 116.299804688 0 66.2998046875 50 66.2998046875 100 c 2xea
 66.2998046875 333.299804688 l 2
 66.2998046875 366.700195312 99.7001953125 400 133 400 c 1
 133 466.700195312 l 1
 66.400390625 466.700195312 l 1
 66.400390625 600 l 1
 166.400390625 600 l 2
 216.400390625 600 266.400390625 550 266.400390625 500 c 2
 266.400390625 333.400390625 l 2xf0
 266.400390625 300 233 266.700195312 199.700195312 266.700195312 c 1
 199.700195312 133.299804688 l 1
 466.400390625 133.299804688 l 1
 466.400390625 266.599609375 l 1xea
 433 266.599609375 399.700195312 300 399.700195312 333.299804688 c 2
 399.700195312 500 l 2xe4
 399.700195312 550 449.700195312 600 499.700195312 600 c 2
 599.700195312 600 l 1
 599.700195312 466.700195312 l 1
EndSplineSet
Validated: 1
EndChar

StartChar: yacute
Encoding: 187 253 187
Width: 666
VWidth: 0
Flags: HMW
LayerCount: 2
Back
Fore
SplineSet
266.400390625 666.700195312 m 5
 399.700195312 800 l 5
 599.700195312 800 l 5
 466.400390625 666.700195312 l 5
 266.400390625 666.700195312 l 5
589.200195312 318.299804688 m 0
 595.700195312 285.5 599.700195312 262.200195312 599.700195312 233.299804688 c 0
 599.700195312 183.299804688 549.700195312 133.299804688 499.700195312 133.299804688 c 2
 399.700195312 133.299804688 l 1
 399.700195312 0 l 1
 266.400390625 0 l 1
 266.400390625 133.299804688 l 1
 166.400390625 133.299804688 l 2
 116.400390625 133.299804688 66.400390625 183.299804688 66.400390625 233.299804688 c 0
 66.400390625 262.200195312 70.5 285.5 77 318.299804688 c 0
 133.099609375 600 133.099609375 600 133.099609375 600 c 1
 266.400390625 600 l 1
 199.700195312 266.700195312 l 1
 466.400390625 266.700195312 l 1
 399.700195312 600 l 1
 533.099609375 600 l 1
 533.099609375 600 533.099609375 600 589.200195312 318.299804688 c 0
EndSplineSet
Validated: 1
EndChar

StartChar: thorn
Encoding: 188 254 188
Width: 666
VWidth: 0
Flags: W
HStem: 0 21G<66.4004 199.7> 200.6 133.301<199.7 466.4> 466.7 133.3<199.7 466.4> 780 20G<66.4004 199.6>
VStem: 66.4004 133.3<0 200.6 333.9 466.7 600 800> 466.4 133.3<333.9 466.7>
LayerCount: 2
Back
Fore
SplineSet
499.599609375 600 m 2
 549.700195312 600 599.700195312 550 599.700195312 500 c 2
 599.700195312 300 l 2
 599.700195312 250 549.700195312 200 499.700195312 200 c 1
 499.700195312 200.599609375 l 1
 199.700195312 200.599609375 l 1
 199.700195312 0 l 1
 66.400390625 0 l 1
 66.400390625 800 l 1
 199.599609375 800 l 1
 199.599609375 600 l 1
 499.599609375 600 l 2
199.700195312 466.700195312 m 1
 199.700195312 333.900390625 l 1
 466.400390625 333.900390625 l 1
 466.400390625 466.700195312 l 1
 199.700195312 466.700195312 l 1
EndSplineSet
Validated: 1
EndChar

StartChar: ydieresis
Encoding: 189 255 189
Width: 666
VWidth: 0
Flags: HMW
LayerCount: 2
Back
Fore
SplineSet
589.200195312 318.299804688 m 4
 595.700195312 285.5 599.700195312 262.200195312 599.700195312 233.299804688 c 4
 599.700195312 183.299804688 549.700195312 133.299804688 499.700195312 133.299804688 c 6
 399.700195312 133.299804688 l 5
 399.700195312 0 l 5
 266.400390625 0 l 5
 266.400390625 133.299804688 l 5
 166.400390625 133.299804688 l 6
 116.400390625 133.299804688 66.400390625 183.299804688 66.400390625 233.299804688 c 4
 66.400390625 262.200195312 70.5 285.5 77 318.299804688 c 4
 133.099609375 600 133.099609375 600 133.099609375 600 c 5
 266.400390625 600 l 5
 199.700195312 266.700195312 l 5
 466.400390625 266.700195312 l 5
 399.700195312 600 l 5
 533.099609375 600 l 5
 533.099609375 600 533.099609375 600 589.200195312 318.299804688 c 4
66.400390625 666.700195312 m 1
 66.400390625 800 l 1
 199.700195312 800 l 1
 199.700195312 666.700195312 l 1
 66.400390625 666.700195312 l 1
466.400390625 666.700195312 m 1
 466.400390625 800 l 1
 599.700195312 800 l 1
 599.700195312 666.700195312 l 1
 466.400390625 666.700195312 l 1
EndSplineSet
Validated: 1
EndChar

StartChar: Ydieresis
Encoding: 190 376 190
Width: 666
VWidth: 0
Flags: W
HStem: 0 133.3<199.7 266.4 399.7 466.4> 466.7 133.3<66.4004 133 533 599.7> 666.7 133.3<66.4004 199.7 466.4 599.7>
VStem: 66.4004 200<466.7 600> 66.4004 133.3<666.7 800> 266.4 133.3<133.3 200> 399.7 200<466.7 600> 466.4 133.3<666.7 800>
LayerCount: 2
Back
Fore
SplineSet
66.400390625 666.700195312 m 1xe8
 66.400390625 800 l 1
 199.700195312 800 l 1
 199.700195312 666.700195312 l 1
 66.400390625 666.700195312 l 1xe8
466.400390625 666.700195312 m 1xe1
 466.400390625 800 l 1
 599.700195312 800 l 1
 599.700195312 666.700195312 l 1
 466.400390625 666.700195312 l 1xe1
533 466.700195312 m 1
 399.700195312 200 l 1
 399.700195312 133.299804688 l 1
 466.400390625 133.299804688 l 1
 466.400390625 0 l 1
 199.700195312 0 l 1
 199.700195312 133.299804688 l 1
 266.400390625 133.299804688 l 1
 266.400390625 200 l 1xed
 133 466.700195312 l 1
 66.400390625 466.700195312 l 1
 66.400390625 600 l 1
 266.400390625 600 l 1
 266.400390625 466.700195312 l 1
 333 333.299804688 l 1
 399.700195312 466.700195312 l 1
 399.700195312 600 l 1
 599.700195312 600 l 1
 599.700195312 466.700195312 l 1xf2
 533 466.700195312 l 1
EndSplineSet
Validated: 1
EndChar

StartChar: OE
Encoding: 191 338 191
Width: 666
VWidth: 0
Flags: W
HStem: 0 133.3<66.4004 133 266.3 333 466.3 599.7> 333.3 133.4<466.3 566.3> 666.7 133.3<66.4004 133 266.3 333 466.3 599.7>
VStem: 133 133.3<133.4 666.7> 333 133.3<133.3 333.3 466.7 666.7>
CounterMasks: 1 e0
LayerCount: 2
Back
Fore
SplineSet
599.700195312 666.700195312 m 1
 466.299804688 666.700195312 l 1
 466.299804688 466.700195312 l 1
 566.299804688 466.700195312 l 1
 566.299804688 333.299804688 l 1
 466.299804688 333.299804688 l 1
 466.299804688 133.299804688 l 1
 599.700195312 133.299804688 l 1
 599.700195312 0 l 1
 66.400390625 0 l 1
 66.400390625 133.400390625 l 1
 133 133.400390625 l 1
 133 666.700195312 l 1
 66.400390625 666.700195312 l 1
 66.400390625 800 l 1
 599.700195312 800 l 1
 599.700195312 666.700195312 l 1
333 133.299804688 m 1
 333 666.700195312 l 1
 266.299804688 666.700195312 l 1
 266.299804688 133.299804688 l 1
 333 133.299804688 l 1
EndSplineSet
Validated: 1
EndChar

StartChar: NameMe.192
Encoding: 192 339 192
Width: 666
VWidth: 0
Flags: W
HStem: 0 133.3<299.7 333 466.3 599.6> 466.7 133.3<466.3 566.3> 666.7 133.3<299.7 333 466.3 599.7>
VStem: 66.2998 133.4<265.7 534.3> 333 133.3<133.3 466.7 600 666.7>
LayerCount: 2
Back
Fore
SplineSet
599.700195312 666.700195312 m 1
 466.299804688 666.700195312 l 1
 466.299804688 600 l 1
 566.299804688 600 l 1
 566.299804688 466.700195312 l 1
 466.299804688 466.700195312 l 1
 466.299804688 133.299804688 l 1
 599.599609375 133.299804688 l 1
 599.599609375 0 l 1
 266.299804688 0 l 2
 216.299804688 0 166.299804688 50 166.299804688 100 c 2
 166.299804688 132.400390625 l 1
 116.299804688 132.400390625 66.2998046875 182.400390625 66.2998046875 232.400390625 c 2
 66.2998046875 567.599609375 l 2
 66.2998046875 617.599609375 116.299804688 667.599609375 166.299804688 667.599609375 c 1
 166.299804688 700 l 2
 166.299804688 750 216.299804688 800 266.299804688 800 c 2
 599.700195312 800 l 1
 599.700195312 666.700195312 l 1
333 133.299804688 m 1
 333 666.700195312 l 1
 299.700195312 666.700195312 l 1
 299.700195312 634.299804688 l 2
 299.700195312 584.299804688 249.700195312 534.299804688 199.700195312 534.299804688 c 1
 199.700195312 265.700195312 l 1
 249.700195312 265.700195312 299.700195312 215.700195312 299.700195312 165.700195312 c 2
 299.700195312 133.299804688 l 1
 333 133.299804688 l 1
EndSplineSet
Validated: 1
EndChar

StartChar: uniFB01
Encoding: 193 64257 193
Width: 666
VWidth: 0
Flags: W
HStem: 0 133.3<199.6 466.3> 400 133.3<399.6 466.3> 666.7 133.3<199.6 466.3>
VStem: 66.2998 133.3<133.3 666.7> 266.3 133.3<200 400> 466.3 133.3<133.3 400 600 666.7>
LayerCount: 2
Back
Fore
SplineSet
599.700195312 600 m 1
 466.299804688 600 l 1
 466.299804688 666.700195312 l 1
 199.599609375 666.700195312 l 1
 199.599609375 133.299804688 l 1
 466.299804688 133.299804688 l 1
 466.299804688 400 l 1
 399.599609375 400 l 1
 399.599609375 200 l 1
 266.299804688 200 l 1
 266.299804688 433.299804688 l 2
 266.299804688 483.299804688 316.299804688 533.299804688 366.299804688 533.299804688 c 2
 499.599609375 533.299804688 l 2
 549.599609375 533.299804688 599.599609375 483.299804688 599.599609375 433.299804688 c 2
 599.599609375 100 l 2
 599.599609375 50 549.599609375 0 499.599609375 0 c 2
 166.099609375 0 l 2
 116.200195312 0.099609375 66.2998046875 50.099609375 66.2998046875 100 c 2
 66.2998046875 700 l 2
 66.2998046875 749.900390625 116.200195312 799.900390625 166.099609375 800 c 2
 499.799804688 800 l 2
 549.700195312 800 599.700195312 750 599.700195312 700 c 2
 599.700195312 600 l 1
EndSplineSet
Validated: 1
EndChar

StartChar: florin
Encoding: 194 402 194
Width: 666
VWidth: 0
Flags: W
HStem: 0 133.3<66.2998 99.5996 233 266.3 399.8 433.1 566.5 599.8> 200 133.3<66.2998 116.3 283 383 549.7 599.7> 666.7 133.3<66.2998 233 433 599.7>
VStem: 66.2998 200<0 133.3> 399.8 200<0 133.3>
LayerCount: 2
Back
Fore
SplineSet
599.700195312 666.700195312 m 1
 433 666.700195312 l 1
 516.400390625 333.299804688 l 1
 599.700195312 333.299804688 l 1
 599.700195312 200 l 1
 549.700195312 200 l 1
 566.5 133.299804688 l 1
 599.799804688 133.299804688 l 1
 599.799804688 0 l 1
 399.799804688 0 l 1
 399.799804688 133.299804688 l 1
 433.099609375 133.299804688 l 1
 416.400390625 200 l 1
 249.700195312 200 l 1
 233 133.299804688 l 1
 266.299804688 133.299804688 l 1
 266.299804688 0 l 1
 66.2998046875 0 l 1
 66.2998046875 133.299804688 l 1
 99.599609375 133.299804688 l 1
 116.299804688 200 l 1
 66.2998046875 200 l 1
 66.2998046875 333.400390625 l 1
 149.700195312 333.400390625 l 1
 233 666.700195312 l 1
 66.2998046875 666.700195312 l 1
 66.2998046875 800 l 1
 599.700195312 800 l 1
 599.700195312 666.700195312 l 1
283 333.299804688 m 1
 383 333.299804688 l 1
 333 533.299804688 l 1
 283 333.299804688 l 1
EndSplineSet
Validated: 1
EndChar

StartChar: lozenge
Encoding: 195 9674 195
Width: 666
VWidth: 0
Flags: W
HStem: 0 21G<295 370.85> 0 21G<295 370.85> 780 20G<295.05 370.85> 780 20G<295.05 370.85>
LayerCount: 2
Back
Fore
SplineSet
333 133.299804688 m 1x00
 466.299804688 400 l 1
 332.900390625 666.700195312 l 1
 199.599609375 400 l 1
 333 133.299804688 l 1x00
599.700195312 400.299804688 m 0
 599.700195312 400.200195312 599.599609375 400.099609375 599.599609375 400 c 0
 599.599609375 399.900390625 599.599609375 399.799804688 599.599609375 399.700195312 c 0
 599 382.599609375 595.700195312 366.700195312 589.099609375 352.400390625 c 2
 441.799804688 57.7998046875 l 2
 424 25 388.900390625 0 352.799804688 0 c 2
 313.099609375 0 l 2
 276.900390625 0 241.900390625 25 224.099609375 57.7998046875 c 2
 76.7998046875 352.400390625 l 2
 70.2001953125 366.700195312 66.900390625 382.700195312 66.2998046875 399.700195312 c 0
 66.2998046875 399.799804688 66.2998046875 399.900390625 66.2998046875 400 c 0
 66.2998046875 400.099609375 66.2998046875 400.200195312 66.2998046875 400.299804688 c 0
 67 417.299804688 70.2998046875 433.200195312 76.900390625 447.5 c 2
 224.099609375 742.200195312 l 2
 241.900390625 775 277 800 313.099609375 800 c 2
 352.799804688 800 l 2xa0
 388.900390625 800 424 775 441.700195312 742.200195312 c 2
 589.099609375 447.599609375 l 2
 595.700195312 433.299804688 599 417.299804688 599.700195312 400.299804688 c 0
EndSplineSet
Validated: 1
EndChar

StartChar: dagger
Encoding: 196 8224 196
Width: 666
VWidth: 0
Flags: W
HStem: 0 133.3<199.7 599.7> 433.3 133.4<199.7 599.7> 780 20G<66.4004 199.7>
VStem: 66.4004 133.3<133.3 366.7 566.7 800>
LayerCount: 2
Back
Fore
SplineSet
199.700195312 366.700195312 m 1
 199.700195312 133.299804688 l 1
 599.700195312 133.299804688 l 1
 599.700195312 0 l 1
 66.400390625 0 l 1
 66.400390625 366.700195312 l 1
 199.700195312 366.700195312 l 1
199.700195312 566.700195312 m 1
 599.700195312 566.700195312 l 1
 599.700195312 433.299804688 l 1
 66.400390625 433.299804688 l 1
 66.400390625 800 l 1
 199.700195312 800 l 1
 199.700195312 566.700195312 l 1
EndSplineSet
Validated: 1
EndChar

StartChar: daggerdbl
Encoding: 197 8225 197
Width: 666
VWidth: 0
Flags: W
HStem: 0 366.7<66.4004 199.7 466.4 599.7> 433.3 366.7<66.4004 199.7 466.4 599.7>
VStem: 66.4004 133.3<0 200 433.3 633.3> 466.4 133.3<166.7 366.7 600 800>
LayerCount: 2
Back
Fore
SplineSet
466.400390625 166.700195312 m 1
 466.400390625 366.700195312 l 1
 599.700195312 366.700195312 l 1
 599.700195312 0 l 1
 466.400390625 0 l 1
 199.700195312 200 l 1
 199.700195312 0 l 1
 66.400390625 0 l 1
 66.400390625 366.700195312 l 1
 199.700195312 366.700195312 l 1
 466.400390625 166.700195312 l 1
466.400390625 800 m 1
 599.700195312 800 l 1
 599.700195312 433.299804688 l 1
 466.400390625 433.299804688 l 1
 199.700195312 633.299804688 l 1
 199.700195312 433.299804688 l 1
 66.400390625 433.299804688 l 1
 66.400390625 800 l 1
 199.700195312 800 l 1
 466.400390625 600 l 1
 466.400390625 800 l 1
EndSplineSet
Validated: 1
EndChar

